<?xml version="1.0" standalone="no"?><!DOCTYPE svg PUBLIC "-//W3C//DTD SVG 1.1//EN" "http://www.w3.org/Graphics/SVG/1.1/DTD/svg11.dtd"><svg t="1559218312578" class="icon" style="" viewBox="0 0 1024 1024" version="1.1" xmlns="http://www.w3.org/2000/svg" p-id="2909" xmlns:xlink="http://www.w3.org/1999/xlink" width="18" height="18"><defs><style type="text/css"></style></defs><path d="M512 960C264.6 960 64 759.4 64 512S264.6 64 512 64s448 200.6 448 448-200.6 448-448 448z m0-59.7c214.4 0 388.3-173.8 388.3-388.3S726.4 123.7 512 123.7 123.7 297.6 123.7 512 297.6 900.3 512 900.3z" p-id="2910" fill="#ba221b"></path><path d="M523.6 293c40.8 0 73.9 10.8 99.4 33.8 25.5 22.3 38.2 52.9 38.2 91.1 0 31.2-8.3 57.3-24.2 77.7-5.7 7-23.6 23.6-53.5 49.7-12.1 10.2-21 21.7-26.8 33.1-7 12.7-10.2 26.8-10.2 42.1v10.8h-68.2v-10.8c0-23.6 3.8-44 12.7-60.5 8.3-17.8 32.5-44 72-79l10.8-12.1c11.5-14.7 17.8-29.9 17.8-46.5 0-22.3-6.4-39.5-18.5-52.2-12.7-12.7-31.2-19.1-54.2-19.1-28.7 0-49.7 8.9-62.4 27.4-11.5 15.3-17.2 37-17.2 65h-66.9c0-46.5 13.4-82.8 40.1-109.6 27-27.5 64-40.9 111.1-40.9z m-11.4 372.7c13.4 0 24.8 3.8 33.8 12.7 8.9 8.3 13.4 19.1 13.4 32.5 0 13.4-5.1 24.2-14 33.1-8.9 8.3-20.4 12.7-33.1 12.7-12.7 0-24.2-4.5-33.1-13.4-8.9-8.9-13.4-19.8-13.4-32.5 0-13.4 4.5-24.2 13.4-32.5 8.7-8.8 20.2-12.6 33-12.6z" p-id="2911" fill="#ba221b"></path></svg>