<svg xmlns="http://www.w3.org/2000/svg" xmlns:xlink="http://www.w3.org/1999/xlink" viewBox="0 0 326.67 316.75"><defs><style>.cls-1{fill:#534741;}.cls-2,.cls-25,.cls-40{fill:none;}.cls-3{fill:#333;}.cls-4{fill:#3d433d;}.cls-5{fill:#4edc17;}.cls-6{fill:#3d3535;}.cls-7{fill:#888;}.cls-8{fill:#ddd;}.cls-9{fill:#ddd4dd;}.cls-10{fill:#966;}.cls-11{fill:#866765;}.cls-12{fill:#2f2f2f;}.cls-13{fill:#603813;}.cls-14{clip-path:url(#clip-path);}.cls-15{isolation:isolate;}.cls-16{fill:#5d514b;}.cls-17{fill:#46c515;}.cls-18{clip-path:url(#clip-path-2);}.cls-19{clip-path:url(#clip-path-3);}.cls-20{clip-path:url(#clip-path-4);}.cls-21{clip-path:url(#clip-path-5);}.cls-22{clip-path:url(#clip-path-6);}.cls-23{clip-path:url(#clip-path-7);}.cls-24{clip-path:url(#clip-path-8);}.cls-25,.cls-40{stroke:#333;}.cls-25{stroke-miterlimit:10;stroke-width:2.4px;}.cls-26{fill:#403732;}.cls-27{fill:#bf7217;}.cls-28{fill:#3d4332;}.cls-29{fill:#55221c;}.cls-30{clip-path:url(#clip-path-9);}.cls-31{clip-path:url(#clip-path-10);}.cls-32{fill:#313131;}.cls-33{fill:#303030;}.cls-34{fill:#2e2e2e;}.cls-35{fill:#2d2d2d;}.cls-36{fill:#2c2c2c;}.cls-37{fill:#2b2b2b;}.cls-38{fill:#3d3735;}.cls-39{fill:#2f2d2f;}.cls-40{stroke-linecap:round;stroke-linejoin:round;stroke-width:1.68px;}.cls-41{clip-path:url(#clip-path-11);}.cls-42{fill:#1f1f1f;}.cls-43{clip-path:url(#clip-path-12);}.cls-44{fill:#262626;}.cls-45{fill:#272727;}.cls-46{fill:#282828;}.cls-47{fill:#292929;}.cls-48{clip-path:url(#clip-path-13);}.cls-49{clip-path:url(#clip-path-14);}.cls-50{fill:#2b2522;}.cls-51{fill:#222;}.cls-52{fill:#3d3d3d;}.cls-53{fill:#212121;}.cls-54{fill:#343434;}</style><clipPath id="clip-path"><path class="cls-1" d="M41.08,217l-3.4-2c-3.47-6.81-.22-17.07,0-17.61l3.4,2C40.86,199.93,37.61,210.18,41.08,217Z"/></clipPath><clipPath id="clip-path-2"><path class="cls-1" d="M55.65,225.4l-3.41-2c-3.46-6.82-.22-17.07-.05-17.61l3.41,2C55.43,208.34,52.18,218.59,55.65,225.4Z"/></clipPath><clipPath id="clip-path-3"><path class="cls-1" d="M70.21,233.8l-3.4-2c-3.47-6.82-.22-17.07,0-17.61l3.4,2C70,216.73,66.74,227,70.21,233.8Z"/></clipPath><clipPath id="clip-path-4"><path class="cls-1" d="M84.77,242.21l-3.4-2c-3.46-6.82-.22-17.07-.05-17.61l3.4,2C84.55,225.14,81.31,235.39,84.77,242.21Z"/></clipPath><clipPath id="clip-path-5"><path class="cls-1" d="M99.34,250.6l-3.4-2c-3.48-6.81-.22-17.07,0-17.61l3.4,2C99.12,233.53,95.87,243.78,99.34,250.6Z"/></clipPath><clipPath id="clip-path-6"><path class="cls-1" d="M113.9,259l-3.4-2c-3.47-6.82-.22-17.07,0-17.61l3.4,2C113.68,241.94,110.44,252.19,113.9,259Z"/></clipPath><clipPath id="clip-path-7"><path class="cls-1" d="M128.47,267.4l-3.4-2c-3.48-6.81-.23-17.06,0-17.6l3.4,2C128.25,250.33,125,260.59,128.47,267.4Z"/></clipPath><clipPath id="clip-path-8"><path class="cls-1" d="M143,275.81l-3.4-2c-3.47-6.82-.22-17.07,0-17.61l3.4,2C142.81,258.74,139.56,269,143,275.81Z"/></clipPath><clipPath id="clip-path-9"><path class="cls-4" d="M239.14,181.23,42.32,66.86a482.91,482.91,0,0,0,34-57.43L273.13,123.8A481.25,481.25,0,0,1,239.14,181.23Z"/></clipPath><clipPath id="clip-path-10"><path class="cls-2" d="M28.74,81.27,26.2,79.79C34,75.27,73,12,75.09,8.69l2.53,1.48C75.57,13.5,36.56,76.75,28.74,81.27Z"/></clipPath><clipPath id="clip-path-11"><path class="cls-3" d="M226.74,195.27l-2.54-1.48C232,189.27,271,126,273.09,122.69l2.53,1.48C273.57,127.5,234.56,190.75,226.74,195.27Z"/></clipPath><clipPath id="clip-path-12"><path class="cls-2" d="M225.79,195.45,223.25,194c.22.13.54.06.95-.18l2.54,1.48C226.32,195.5,226,195.57,225.79,195.45Z"/></clipPath><clipPath id="clip-path-13"><path class="cls-3" d="M291.37,130.54l-4.09-2.38c10.42,6.06,24.62,12.66,31.6,8.63a7.64,7.64,0,0,0,1.05-.74l4.09,2.37a6.87,6.87,0,0,1-1,.74C316,143.2,301.79,136.6,291.37,130.54Z"/></clipPath><clipPath id="clip-path-14"><path class="cls-2" d="M293.8,135.6l-4.09-2.38a51.9,51.9,0,0,1-14.93-13.09l4.09,2.38A52.05,52.05,0,0,0,293.8,135.6Z"/></clipPath></defs><title>资源 12</title><g id="图层_2" data-name="图层 2"><g id="图层_1-2" data-name="图层 1"><polygon class="cls-5" points="51.52 230.23 48.13 232.2 44.73 230.23 48.11 228.26 51.52 230.23"/><polygon class="cls-6" points="51.52 230.23 51.44 259.58 48.05 261.55 48.13 232.2 51.52 230.23"/><polygon class="cls-1" points="48.13 232.2 48.05 261.55 44.64 259.58 44.73 230.23 48.13 232.2"/><polygon class="cls-5" points="149.92 285.43 146.53 287.4 143.13 285.43 146.51 283.46 149.92 285.43"/><polygon class="cls-6" points="149.92 285.43 149.84 314.78 146.45 316.75 146.53 287.4 149.92 285.43"/><polygon class="cls-1" points="146.53 287.4 146.45 316.75 143.04 314.78 143.13 285.43 146.53 287.4"/><polygon class="cls-5" points="202.72 251.83 199.34 253.8 195.93 251.83 199.31 249.87 202.72 251.83"/><polygon class="cls-6" points="202.72 251.83 202.64 281.18 199.25 283.15 199.34 253.8 202.72 251.83"/><polygon class="cls-6" points="199.34 253.8 199.25 283.15 195.84 281.18 195.93 251.83 199.34 253.8"/><polygon class="cls-7" points="241.88 177.75 241.59 279.48 67.08 178.72 67.36 76.99 241.88 177.75"/><polygon class="cls-8" points="241.88 177.75 301.5 143.1 301.21 244.83 241.59 279.48 241.88 177.75"/><polygon class="cls-9" points="211.92 244.93 150.18 280.81 25.89 209.05 87.63 173.17 211.92 244.93"/><polygon class="cls-10" points="211.92 244.93 211.88 257.97 150.14 293.85 150.18 280.81 211.92 244.93"/><polygon class="cls-11" points="150.18 280.81 150.14 293.85 25.86 222.09 25.89 209.05 150.18 280.81"/><polygon class="cls-12" points="32.14 130.78 31.91 209.04 29.38 210.51 29.6 132.26 32.14 130.78"/><polygon class="cls-1" points="29.6 132.26 29.38 210.51 26.83 209.04 27.05 130.78 29.6 132.26"/><polygon class="cls-13" points="200.74 161.96 200.52 238.25 93.83 176.66 94.05 100.36 200.74 161.96"/><polygon class="cls-12" points="152.14 200.38 151.92 278.64 149.38 280.11 149.61 201.86 152.14 200.38"/><polygon class="cls-1" points="149.61 201.86 149.38 280.11 146.82 278.63 147.05 200.38 149.61 201.86"/><path class="cls-12" d="M42.75,198.4c-3.41,10.79-.12,17.27,0,17.61l-1.72,1c-3.47-6.82-.22-17.07,0-17.61Z"/><path class="cls-1" d="M41.08,217l-3.4-2c-3.47-6.81-.22-17.07,0-17.61l3.4,2C40.86,199.93,37.61,210.18,41.08,217Z"/><g class="cls-14"><g class="cls-15"><path class="cls-1" d="M41.08,217l-3.4-2c-1.82-3.57-1.79-8.08-1.33-11.65l3.4,2c-.46,3.56-.49,8.08,1.33,11.65"/><path class="cls-1" d="M39.75,205.35l-3.4-2c.15-1.11.33-2.13.52-3l3.4,2c-.19.87-.37,1.89-.52,3"/><path class="cls-1" d="M40.27,202.34l-3.4-2c.19-.89.38-1.62.52-2.13l3.4,2c-.14.52-.33,1.25-.52,2.13"/><path class="cls-1" d="M40.79,200.21l-3.4-2c.13-.46.22-.75.24-.83l3.4,2c0,.08-.11.37-.24.82"/></g></g><polygon class="cls-16" points="41.03 199.39 37.63 197.41 39.35 196.42 42.75 198.4 41.03 199.39"/><polygon class="cls-17" points="52.96 216.55 53.09 218.03 51.72 218.98 51.59 217.49 52.96 216.55"/><polygon class="cls-1" points="51.72 218.98 39.81 212.06 39.68 210.57 51.59 217.49 51.72 218.98"/><polygon class="cls-16" points="51.59 217.49 39.68 210.57 41.05 209.63 52.96 216.55 51.59 217.49"/><polygon class="cls-17" points="51.69 212.52 53.07 211.81 52.99 213.43 51.62 214.13 51.69 212.52"/><polygon class="cls-16" points="51.85 212.51 39.95 205.59 41.32 204.89 53.23 211.81 51.85 212.51"/><polygon class="cls-1" points="51.77 214.12 39.87 207.2 39.95 205.59 51.85 212.51 51.77 214.12"/><path class="cls-12" d="M57.32,206.8c-3.42,10.8-.12,17.27,0,17.61l-1.72,1c-3.47-6.81-.22-17.06,0-17.6Z"/><path class="cls-1" d="M55.65,225.4l-3.41-2c-3.46-6.82-.22-17.07-.05-17.61l3.41,2C55.43,208.34,52.18,218.59,55.65,225.4Z"/><g class="cls-18"><g class="cls-15"><path class="cls-1" d="M55.65,225.4l-3.41-2c-1.81-3.58-1.79-8.1-1.32-11.67l3.4,2c-.46,3.57-.49,8.09,1.33,11.66"/><path class="cls-1" d="M54.32,213.74l-3.4-2c.14-1.11.33-2.13.51-3l3.41,2c-.19.88-.38,1.9-.52,3"/><path class="cls-1" d="M54.84,210.73l-3.41-2c.19-.89.38-1.62.53-2.13l3.4,2c-.15.51-.33,1.24-.52,2.12"/><path class="cls-1" d="M55.36,208.61l-3.4-2c.12-.45.21-.73.23-.81l3.41,2c0,.08-.12.36-.24.81"/></g></g><polygon class="cls-16" points="55.6 207.8 52.19 205.82 53.92 204.82 57.32 206.8 55.6 207.8"/><polygon class="cls-17" points="67.52 224.95 67.65 226.44 66.28 227.38 66.15 225.9 67.52 224.95"/><polygon class="cls-1" points="66.28 227.38 54.37 220.46 54.24 218.98 66.15 225.9 66.28 227.38"/><polygon class="cls-16" points="66.15 225.9 54.24 218.98 55.61 218.03 67.52 224.95 66.15 225.9"/><polygon class="cls-17" points="66.25 220.91 67.63 220.21 67.55 221.81 66.17 222.52 66.25 220.91"/><polygon class="cls-16" points="66.25 220.91 54.35 213.99 55.72 213.29 67.63 220.21 66.25 220.91"/><polygon class="cls-1" points="66.17 222.52 54.27 215.6 54.35 213.99 66.25 220.91 66.17 222.52"/><path class="cls-12" d="M71.88,215.2c-3.42,10.79-.12,17.27.05,17.61l-1.72,1c-3.47-6.81-.22-17.07,0-17.6Z"/><path class="cls-1" d="M70.21,233.8l-3.4-2c-3.47-6.82-.22-17.07,0-17.61l3.4,2C70,216.73,66.74,227,70.21,233.8Z"/><g class="cls-19"><g class="cls-15"><path class="cls-1" d="M70.21,233.8l-3.4-2c-1.82-3.57-1.79-8.09-1.33-11.66l3.4,2c-.46,3.57-.49,8.08,1.33,11.65"/><path class="cls-1" d="M68.88,222.15l-3.4-2c.14-1.11.33-2.13.52-3l3.4,2c-.19.87-.37,1.89-.52,3"/><path class="cls-1" d="M69.4,219.15l-3.4-2c.18-.88.37-1.61.52-2.13l3.4,2c-.14.51-.33,1.24-.52,2.13"/><path class="cls-1" d="M69.92,217l-3.4-2c.12-.45.21-.74.24-.82l3.4,2c0,.07-.11.36-.24.82"/></g></g><polygon class="cls-16" points="70.16 216.19 66.76 214.22 68.48 213.23 71.88 215.2 70.16 216.19"/><polygon class="cls-17" points="82.09 233.36 82.22 234.84 80.85 235.78 80.72 234.3 82.09 233.36"/><polygon class="cls-1" points="80.85 235.78 68.94 228.86 68.81 227.38 80.72 234.3 80.85 235.78"/><polygon class="cls-16" points="80.72 234.3 68.81 227.38 70.18 226.44 82.09 233.36 80.72 234.3"/><polygon class="cls-17" points="80.81 229.32 82.19 228.61 82.11 230.22 80.74 230.92 80.81 229.32"/><polygon class="cls-16" points="80.81 229.32 68.91 222.4 70.29 221.69 82.19 228.61 80.81 229.32"/><polygon class="cls-1" points="80.74 230.92 68.83 224 68.91 222.4 80.81 229.32 80.74 230.92"/><path class="cls-12" d="M86.45,223.61c-3.43,10.79-.13,17.26,0,17.6l-1.73,1c-3.46-6.82-.22-17.07,0-17.61Z"/><path class="cls-1" d="M84.77,242.21l-3.4-2c-3.46-6.82-.22-17.07-.05-17.61l3.4,2C84.55,225.14,81.31,235.39,84.77,242.21Z"/><g class="cls-20"><g class="cls-15"><path class="cls-1" d="M84.77,242.21l-3.4-2c-1.82-3.57-1.79-8.09-1.33-11.66l3.41,2c-.47,3.56-.49,8.08,1.32,11.66"/><path class="cls-1" d="M83.45,230.55l-3.41-2c.15-1.12.34-2.14.52-3l3.4,2c-.18.87-.37,1.89-.51,3"/><path class="cls-1" d="M84,227.54l-3.4-2c.19-.88.38-1.61.52-2.13l3.41,2c-.15.51-.34,1.24-.53,2.13"/><path class="cls-1" d="M84.49,225.41l-3.41-2c.13-.44.22-.73.24-.81l3.4,2c0,.08-.11.36-.23.81"/></g></g><polygon class="cls-16" points="84.72 224.6 81.32 222.63 83.05 221.63 86.45 223.61 84.72 224.6"/><polygon class="cls-17" points="96.65 241.76 96.78 243.24 95.41 244.18 95.28 242.7 96.65 241.76"/><polygon class="cls-1" points="95.41 244.18 83.5 237.26 83.37 235.78 95.28 242.7 95.41 244.18"/><polygon class="cls-16" points="95.28 242.7 83.37 235.78 84.74 234.84 96.65 241.76 95.28 242.7"/><polygon class="cls-17" points="95.38 237.71 96.75 237.01 96.68 238.62 95.3 239.32 95.38 237.71"/><polygon class="cls-16" points="95.38 237.71 83.47 230.79 84.84 230.09 96.75 237.01 95.38 237.71"/><polygon class="cls-1" points="95.3 239.32 83.39 232.41 83.47 230.79 95.38 237.71 95.3 239.32"/><path class="cls-12" d="M101,232c-3.42,10.79-.13,17.26,0,17.61l-1.72,1c-3.47-6.82-.22-17.07,0-17.61Z"/><path class="cls-1" d="M99.34,250.6l-3.4-2c-3.48-6.81-.22-17.07,0-17.61l3.4,2C99.12,233.53,95.87,243.78,99.34,250.6Z"/><g class="cls-21"><g class="cls-15"><path class="cls-1" d="M99.34,250.6l-3.4-2c-1.82-3.57-1.8-8.09-1.33-11.65l3.4,2c-.46,3.57-.49,8.09,1.33,11.66"/><path class="cls-1" d="M98,238.94l-3.4-2c.14-1.11.33-2.13.51-3l3.41,2c-.19.87-.38,1.89-.52,3"/><path class="cls-1" d="M98.53,235.94l-3.41-2c.19-.89.38-1.62.52-2.13l3.41,2c-.15.52-.34,1.25-.52,2.13"/><path class="cls-1" d="M99.05,233.81l-3.41-2c.13-.46.22-.75.25-.83l3.4,2c0,.08-.12.37-.24.82"/></g></g><polygon class="cls-16" points="99.29 232.99 95.89 231.01 97.6 230.02 101.01 232 99.29 232.99"/><polygon class="cls-17" points="111.22 250.16 111.35 251.64 109.98 252.58 109.84 251.09 111.22 250.16"/><polygon class="cls-1" points="109.98 252.58 98.07 245.66 97.94 244.17 109.84 251.09 109.98 252.58"/><polygon class="cls-16" points="109.84 251.09 97.94 244.17 99.31 243.24 111.22 250.16 109.84 251.09"/><polygon class="cls-9" points="221.88 298.1 199.56 311.06 193.71 307.68 216.02 294.71 221.88 298.1"/><polygon class="cls-10" points="221.88 298.1 221.87 300.34 199.56 313.31 199.56 311.06 221.88 298.1"/><polygon class="cls-11" points="199.56 311.06 199.56 313.31 193.7 309.93 193.71 307.68 199.56 311.06"/><polygon class="cls-9" points="219.14 293.97 196.81 306.94 190.95 303.56 213.27 290.58 219.14 293.97"/><polygon class="cls-10" points="219.14 293.97 219.13 296.21 196.81 309.19 196.81 306.94 219.14 293.97"/><polygon class="cls-11" points="196.81 306.94 196.81 309.19 190.94 305.8 190.95 303.56 196.81 306.94"/><polygon class="cls-9" points="216.37 289.83 194.06 302.8 188.2 299.42 210.51 286.45 216.37 289.83"/><polygon class="cls-10" points="216.37 289.83 216.36 292.08 194.05 305.05 194.06 302.8 216.37 289.83"/><polygon class="cls-11" points="194.06 302.8 194.05 305.05 188.19 301.67 188.2 299.42 194.06 302.8"/><polygon class="cls-9" points="213.62 285.7 191.3 298.68 185.44 295.3 207.77 282.32 213.62 285.7"/><polygon class="cls-10" points="213.62 285.7 213.61 287.95 191.29 300.92 191.3 298.68 213.62 285.7"/><polygon class="cls-11" points="191.3 298.68 191.29 300.92 185.44 297.54 185.44 295.3 191.3 298.68"/><polygon class="cls-9" points="210.18 280.88 187.86 293.86 181.99 290.47 204.32 277.5 210.18 280.88"/><polygon class="cls-10" points="210.18 280.88 210.17 283.13 187.85 296.1 187.86 293.86 210.18 280.88"/><polygon class="cls-11" points="187.86 293.86 187.85 296.1 181.99 292.71 181.99 290.47 187.86 293.86"/><polygon class="cls-17" points="109.94 246.12 111.32 245.41 111.24 247.02 109.87 247.73 109.94 246.12"/><polygon class="cls-16" points="109.94 246.12 98.03 239.2 99.42 238.49 111.32 245.41 109.94 246.12"/><polygon class="cls-1" points="109.87 247.73 97.96 240.81 98.03 239.2 109.94 246.12 109.87 247.73"/><path class="cls-12" d="M115.58,240.4c-3.43,10.8-.13,17.27,0,17.61l-1.73,1c-3.46-6.81-.22-17.06-.05-17.6Z"/><path class="cls-1" d="M113.9,259l-3.4-2c-3.47-6.82-.22-17.07,0-17.61l3.4,2C113.68,241.94,110.44,252.19,113.9,259Z"/><g class="cls-22"><g class="cls-15"><path class="cls-1" d="M113.9,259l-3.4-2c-1.82-3.58-1.79-8.1-1.33-11.67l3.4,2c-.46,3.57-.49,8.09,1.33,11.66"/><path class="cls-1" d="M112.57,247.34l-3.4-2c.15-1.11.33-2.13.52-3l3.4,2c-.18.87-.37,1.9-.52,3"/><path class="cls-1" d="M113.09,244.33l-3.4-2c.19-.89.38-1.62.52-2.13l3.4,2c-.14.52-.33,1.25-.52,2.13"/><path class="cls-1" d="M113.61,242.2l-3.4-2c.12-.45.21-.73.24-.81l3.4,2-.24.8"/></g></g><polygon class="cls-16" points="113.85 241.4 110.45 239.42 112.17 238.42 115.58 240.4 113.85 241.4"/><polygon class="cls-17" points="125.77 258.55 125.91 260.04 124.54 260.98 124.4 259.5 125.77 258.55"/><polygon class="cls-1" points="124.54 260.98 112.63 254.06 112.49 252.57 124.4 259.5 124.54 260.98"/><polygon class="cls-16" points="124.4 259.5 112.49 252.57 113.86 251.63 125.77 258.55 124.4 259.5"/><polygon class="cls-17" points="124.51 254.51 125.88 253.81 125.81 255.42 124.43 256.12 124.51 254.51"/><polygon class="cls-16" points="124.51 254.51 112.6 247.59 113.97 246.89 125.88 253.81 124.51 254.51"/><polygon class="cls-1" points="124.43 256.12 112.52 249.2 112.6 247.59 124.51 254.51 124.43 256.12"/><path class="cls-12" d="M130.13,248.8c-3.41,10.79-.12,17.27.05,17.61l-1.71,1c-3.48-6.81-.22-17.07-.05-17.61Z"/><path class="cls-1" d="M128.47,267.4l-3.4-2c-3.48-6.81-.23-17.06,0-17.6l3.4,2C128.25,250.33,125,260.59,128.47,267.4Z"/><g class="cls-23"><g class="cls-15"><path class="cls-1" d="M128.47,267.4l-3.4-2c-1.82-3.57-1.8-8.08-1.34-11.65l3.41,2c-.47,3.57-.49,8.08,1.33,11.65"/><path class="cls-1" d="M127.14,255.75l-3.41-2c.15-1.11.33-2.13.52-3l3.4,2c-.18.87-.37,1.89-.51,3"/><path class="cls-1" d="M127.65,252.75l-3.4-2c.19-.88.38-1.61.52-2.13l3.4,2c-.14.51-.33,1.24-.52,2.13"/><path class="cls-1" d="M128.17,250.62l-3.4-2c.13-.46.22-.74.25-.82l3.4,2c0,.08-.12.37-.25.83"/></g></g><polygon class="cls-16" points="128.42 249.79 125.02 247.82 126.73 246.83 130.13 248.8 128.42 249.79"/><polygon class="cls-17" points="140.34 266.96 140.48 268.44 139.11 269.38 138.97 267.9 140.34 266.96"/><polygon class="cls-1" points="139.11 269.38 127.2 262.46 127.06 260.98 138.97 267.9 139.11 269.38"/><polygon class="cls-16" points="138.97 267.9 127.06 260.98 128.44 260.04 140.34 266.96 138.97 267.9"/><polygon class="cls-17" points="139.07 262.92 140.45 262.21 140.37 263.82 139 264.52 139.07 262.92"/><polygon class="cls-16" points="139.07 262.92 127.16 256 128.54 255.29 140.45 262.21 139.07 262.92"/><polygon class="cls-1" points="139 264.52 127.09 257.6 127.16 256 139.07 262.92 139 264.52"/><polygon class="cls-9" points="206.73 276.07 184.42 289.04 178.56 285.66 200.88 272.69 206.73 276.07"/><polygon class="cls-10" points="206.73 276.07 206.72 278.31 184.41 291.28 184.42 289.04 206.73 276.07"/><polygon class="cls-11" points="184.42 289.04 184.41 291.28 178.56 287.9 178.56 285.66 184.42 289.04"/><path class="cls-12" d="M144.7,257.21c-3.41,10.79-.12,17.26.05,17.6l-1.72,1c-3.47-6.82-.22-17.07-.05-17.61Z"/><path class="cls-1" d="M143,275.81l-3.4-2c-3.47-6.82-.22-17.07,0-17.61l3.4,2C142.81,258.74,139.56,269,143,275.81Z"/><g class="cls-24"><g class="cls-15"><path class="cls-1" d="M143,275.81l-3.4-2c-1.82-3.57-1.79-8.09-1.33-11.66l3.4,2c-.46,3.56-.49,8.08,1.33,11.66"/><path class="cls-1" d="M141.7,264.15l-3.4-2c.14-1.12.33-2.14.52-3l3.4,2c-.19.87-.37,1.89-.52,3"/><path class="cls-1" d="M142.22,261.14l-3.4-2c.19-.88.38-1.61.52-2.13l3.4,2c-.14.51-.33,1.24-.52,2.13"/><path class="cls-1" d="M142.74,259l-3.4-2c.12-.44.21-.73.24-.81l3.4,2c0,.08-.12.36-.24.81"/></g></g><polygon class="cls-16" points="142.98 258.2 139.58 256.22 141.3 255.23 144.7 257.21 142.98 258.2"/><polygon class="cls-9" points="203.3 271.25 180.98 284.22 175.12 280.83 197.43 267.87 203.3 271.25"/><polygon class="cls-10" points="203.3 271.25 203.29 273.5 180.98 286.46 180.98 284.22 203.3 271.25"/><polygon class="cls-11" points="180.98 284.22 180.98 286.46 175.11 283.08 175.12 280.83 180.98 284.22"/><polygon class="cls-9" points="200.48 267.37 177.93 279.86 172 276.6 194.56 264.11 200.48 267.37"/><polygon class="cls-10" points="200.55 267.12 200.54 269.36 178.22 282.33 178.22 280.09 200.55 267.12"/><polygon class="cls-11" points="178.22 280.09 178.22 282.33 172.35 278.95 172.36 276.7 178.22 280.09"/><polygon class="cls-9" points="197.79 262.99 175.47 275.96 169.61 272.57 191.93 259.6 197.79 262.99"/><polygon class="cls-10" points="197.79 262.99 197.79 265.23 175.46 278.2 175.47 275.96 197.79 262.99"/><polygon class="cls-11" points="175.47 275.96 175.46 278.2 169.6 274.82 169.61 272.57 175.47 275.96"/><path class="cls-25" d="M262.37,117.54s-21.27,44.23-44.58,69"/><path class="cls-26" d="M274.83,224.21c6.12-3.54,11.09-.7,11.11,6.32l.06,23.12-22.13,12.78-.07-23.12C263.78,236.29,268.72,227.73,274.83,224.21Z"/><path class="cls-27" d="M268.88,247.75c.94-.54,1.7-.1,1.7,1a3.7,3.7,0,0,1-1.69,2.94c-.94.55-1.71.11-1.71-1A3.77,3.77,0,0,1,268.88,247.75Z"/><polygon class="cls-4" points="311.95 139.21 115.13 24.83 124.29 27.48 321.11 141.85 311.95 139.21"/><path class="cls-25" d="M254,109.14s-21.27,44.23-44.58,69"/><path class="cls-28" d="M290.51,130.06,93.69,15.68a95.31,95.31,0,0,0,21.44,9.15L312,139.21A95.76,95.76,0,0,1,290.51,130.06Z"/><polygon class="cls-29" points="273.13 123.8 76.32 9.43 78.61 4.87 275.42 119.24 273.13 123.8"/><path class="cls-4" d="M239.14,181.23,42.32,66.86a482.91,482.91,0,0,0,34-57.43L273.13,123.8A481.25,481.25,0,0,1,239.14,181.23Z"/><g class="cls-30"><g class="cls-15"><path class="cls-4" d="M239.14,181.23,42.32,66.86q4.8-6.95,9.35-14.07L248.48,167.16q-4.54,7.13-9.34,14.07"/><path class="cls-4" d="M248.48,167.16,51.67,52.79q5.27-8.25,10.21-16.72L258.7,150.45q-4.95,8.46-10.22,16.71"/><path class="cls-4" d="M258.7,150.45,61.88,36.07q4.78-8.22,9.26-16.61L268,133.83q-4.45,8.4-9.25,16.62"/><path class="cls-4" d="M268,133.83,71.14,19.46q2.64-5,5.18-10L273.13,123.8q-2.52,5-5.18,10"/></g></g><path class="cls-12" d="M275.42,119.24l2.32,1.91A94.73,94.73,0,0,0,312,139.21l9.16,2.64L230,194.44l9.12-13.21a481.25,481.25,0,0,0,34-57.43Z"/><polygon class="cls-4" points="230.02 194.44 33.2 80.06 42.32 66.86 239.14 181.23 230.02 194.44"/><path class="cls-25" d="M243.17,104.34s-21.27,44.23-44.58,69"/><path class="cls-25" d="M233.57,99.54s-21.27,44.23-44.58,69"/><path class="cls-25" d="M224,94.74s-21.27,44.23-44.58,69"/><path class="cls-25" d="M214.37,87.54s-21.27,44.23-44.58,69"/><path class="cls-25" d="M204.77,79.14s-21.27,44.23-44.58,69"/><path class="cls-25" d="M194,75.54s-21.27,44.23-44.58,69"/><path class="cls-25" d="M185.57,69.54s-21.27,44.23-44.58,69"/><path class="cls-25" d="M176,63.54s-21.27,44.23-44.58,69"/><path class="cls-25" d="M165.17,58.74s-21.27,44.23-44.58,69"/><path class="cls-25" d="M156.77,52.74s-21.27,44.23-44.58,69"/><path class="cls-25" d="M147.17,47.94s-21.27,44.23-44.58,69"/><path class="cls-25" d="M137.57,43.14S116.3,87.37,93,112.14"/><path class="cls-25" d="M129.17,37.14s-21.27,44.23-44.58,69"/><path class="cls-25" d="M119.57,33.54S98.3,77.77,75,102.54"/><path class="cls-25" d="M101.57,23.94S80.3,68.17,57,92.94"/><path class="cls-25" d="M93.17,20.34s-21.27,44.23-44.58,69"/><g class="cls-15"><g class="cls-31"><g class="cls-15"><path class="cls-32" d="M28.74,81.27,26.2,79.79A10,10,0,0,0,28,78.31l2.54,1.48a10,10,0,0,1-1.79,1.48"/><path class="cls-33" d="M30.53,79.79,28,78.31c.55-.54,1.16-1.21,1.83-2l2.53,1.48c-.66.77-1.27,1.43-1.82,2"/><path class="cls-34" d="M32.35,77.81l-2.53-1.48c.95-1.1,2-2.42,3.18-3.92l2.54,1.48c-1.16,1.49-2.23,2.82-3.19,3.92"/><path class="cls-35" d="M35.54,73.89,33,72.41c2-2.64,4.37-5.84,6.85-9.38l2.54,1.48c-2.49,3.54-4.81,6.73-6.85,9.38"/><path class="cls-36" d="M42.39,64.51,39.85,63c6.66-9.5,14.47-21.46,21-31.75l2.53,1.47c-6.57,10.3-14.38,22.26-21,31.76"/><path class="cls-37" d="M63.43,32.75,60.9,31.28C68.41,19.52,74.32,9.94,75.09,8.69l2.53,1.48C76.86,11.41,71,21,63.43,32.75"/></g></g></g><path class="cls-25" d="M254,107.94s-21.27,44.23-44.58,69"/><path class="cls-1" d="M28.74,81.27c7.82-4.52,46.83-67.77,48.88-71.1L39,75.21l-9.22,7.56-2-2.52C28,80.37,28.32,81.5,28.74,81.27Z"/><path class="cls-25" d="M83.57,14.34S62.3,58.57,39,83.34"/><path class="cls-38" d="M25.28,102.11l-14.4,33.6s-12-6-10.8-12A39.42,39.42,0,0,0,25.28,102.11Z"/><polygon class="cls-39" points="217.7 169.89 233.27 184.11 163.47 224.41 178.92 192.28 217.7 169.89"/><polygon class="cls-38" points="163.47 224.41 9.35 134.85 24.8 102.72 178.92 192.28 163.47 224.41"/><polygon class="cls-38" points="178.92 192.28 24.8 102.72 63.59 80.33 217.7 169.89 178.92 192.28"/><path class="cls-40" d="M34.54,106.69S22.33,130.57,8.21,132.54"/><path class="cls-40" d="M42.94,111.49c-.25.48-8.77,23.4-26.33,25.85"/><path class="cls-40" d="M51.34,116.29c-.25.48-8.77,23.4-26.33,25.85"/><path class="cls-40" d="M59.74,121.09c-.25.48-8.77,23.4-26.33,25.85"/><path class="cls-40" d="M66.94,125.89c-.25.48-8.77,23.4-26.33,25.85"/><path class="cls-40" d="M75.34,130.69c-.25.48-8.77,23.4-26.33,25.85"/><path class="cls-40" d="M83.74,134.29c-.25.48-8.77,23.4-26.33,25.85"/><path class="cls-40" d="M90.94,139.09c-.25.48-8.77,23.4-26.33,25.85"/><path class="cls-40" d="M98.14,143.89c-.25.48-8.77,23.4-26.33,25.85"/><path class="cls-40" d="M106.54,148.69c-.25.48-8.77,23.4-26.33,25.85"/><path class="cls-40" d="M114.94,153.49c-.25.48-8.77,23.4-26.33,25.85"/><path class="cls-40" d="M123.34,158.29c-.25.48-8.77,23.4-26.33,25.85"/><path class="cls-40" d="M131.74,163.09c-.25.48-8.77,23.4-26.33,25.85"/><path class="cls-40" d="M140.14,167.89c-.25.48-8.77,23.4-26.33,25.85"/><path class="cls-40" d="M148.54,172.69c-.25.48-8.77,23.4-26.33,25.85"/><path class="cls-40" d="M155.74,177.49c-.25.48-8.77,23.4-26.33,25.85"/><path class="cls-40" d="M164.14,182.29c-.25.48-8.77,23.4-26.33,25.85"/><path class="cls-40" d="M172.54,187.09c-.25.48-8.77,23.4-26.33,25.85"/><polygon class="cls-6" points="97.6 100.12 44.49 69.25 63.99 80.14 117.11 111.01 97.6 100.12"/><polygon class="cls-6" points="97.6 100.12 117.11 111.01 78.21 133.46 97.6 100.12"/><rect class="cls-6" x="42.06" y="70.64" width="38.57" height="61.43" transform="translate(-57.11 103.47) rotate(-59.84)"/><polygon class="cls-6" points="149.2 130.12 96.08 99.25 115.59 110.14 168.7 141.01 149.2 130.12"/><polygon class="cls-6" points="149.2 130.12 168.7 141.01 129.81 163.46 149.2 130.12"/><rect class="cls-6" x="93.66" y="100.64" width="38.57" height="61.43" transform="translate(-57.38 163.01) rotate(-59.84)"/><path class="cls-3" d="M226.74,195.27l-2.54-1.48C232,189.27,271,126,273.09,122.69l2.53,1.48C273.57,127.5,234.56,190.75,226.74,195.27Z"/><g class="cls-41"><g class="cls-15"><path class="cls-3" d="M226.74,195.27l-2.54-1.48a10,10,0,0,0,1.79-1.48l2.54,1.48a10,10,0,0,1-1.79,1.48"/><path class="cls-3" d="M228.53,193.79,226,192.31c.55-.54,1.16-1.21,1.83-2l2.53,1.48c-.66.77-1.27,1.43-1.82,2"/><path class="cls-3" d="M230.35,191.81l-2.53-1.48c1-1.1,2-2.42,3.18-3.92l2.54,1.48c-1.16,1.49-2.23,2.82-3.19,3.92"/><path class="cls-3" d="M233.54,187.89,231,186.41c2-2.64,4.37-5.84,6.85-9.38l2.54,1.48c-2.49,3.54-4.81,6.73-6.85,9.38"/><path class="cls-3" d="M240.39,178.51,237.85,177c6.66-9.5,14.47-21.46,21-31.75l2.53,1.47c-6.57,10.3-14.38,22.26-21,31.76"/><path class="cls-3" d="M261.43,146.75l-2.53-1.47c7.51-11.76,13.42-21.34,14.19-22.59l2.53,1.48c-.76,1.24-6.67,10.82-14.19,22.58"/></g></g><path class="cls-1" d="M226.74,195.27c7.82-4.52,46.83-67.77,48.88-71.1l-38.58,65-9.22,7.56-2-1.32C226,195.57,226.32,195.5,226.74,195.27Z"/><polygon class="cls-42" points="227.82 196.77 225.28 195.29 223.25 193.97 225.79 195.45 227.82 196.77"/><g class="cls-15"><g class="cls-43"><g class="cls-15"><polyline class="cls-44" points="225.79 195.45 223.25 193.97 223.25 193.97 225.79 195.45 225.79 195.45"/><path class="cls-45" d="M225.79,195.45,223.25,194l.05,0,2.54,1.47-.05,0"/><path class="cls-46" d="M225.84,195.47,223.3,194h0l2.54,1.48,0,0"/><path class="cls-47" d="M225.89,195.49,223.35,194l.05,0,2.54,1.47h-.05"/><path class="cls-37" d="M225.94,195.5,223.4,194h.06l2.54,1.48h-.06"/><path class="cls-36" d="M226,195.51,223.46,194h.07l2.54,1.48H226"/><path class="cls-35" d="M226.07,195.51,223.53,194h.09l2.53,1.48h-.08"/><path class="cls-34" d="M226.15,195.5,223.62,194l.11,0,2.54,1.47-.12,0"/><path class="cls-33" d="M226.27,195.47,223.73,194l.18-.06,2.53,1.47-.17.06"/><path class="cls-32" d="M226.44,195.41l-2.53-1.47.29-.15,2.54,1.48a1.59,1.59,0,0,1-.3.14"/></g></g></g><path class="cls-26" d="M324,138.42l1.45-1.72A7.19,7.19,0,0,1,324,138.42Z"/><polygon class="cls-3" points="324.02 138.43 319.93 136.05 321.38 134.32 325.47 136.7 324.02 138.43"/><path class="cls-3" d="M291.37,130.54l-4.09-2.38c10.42,6.06,24.62,12.66,31.6,8.63a7.64,7.64,0,0,0,1.05-.74l4.09,2.37a6.87,6.87,0,0,1-1,.74C316,143.2,301.79,136.6,291.37,130.54Z"/><g class="cls-48"><g class="cls-15"><path class="cls-3" d="M291.37,130.54l-4.09-2.38c.54.32,1.1.64,1.66,1l4.09,2.38c-.56-.32-1.12-.63-1.66-1"/><path class="cls-3" d="M293,131.49l-4.09-2.38a106.71,106.71,0,0,0,11,5.46L304,137a106.71,106.71,0,0,1-11-5.46"/><path class="cls-3" d="M304,137l-4.09-2.38a56.31,56.31,0,0,0,6.1,2.2l4.08,2.38A59.2,59.2,0,0,1,304,137"/><path class="cls-3" d="M310.09,139.15,306,136.77a36.71,36.71,0,0,0,3.81.91l4.09,2.37a34.91,34.91,0,0,1-3.82-.9"/><path class="cls-3" d="M313.91,140.05l-4.09-2.37c.87.15,1.71.25,2.53.31l4.09,2.37a23.25,23.25,0,0,1-2.53-.31"/><path class="cls-3" d="M316.44,140.36,312.35,138a15.54,15.54,0,0,0,1.8,0l4.09,2.38q-.87,0-1.8,0"/><path class="cls-3" d="M318.24,140.39,314.15,138a13.47,13.47,0,0,0,1.45-.13l4.09,2.38a13.47,13.47,0,0,1-1.45.13"/><path class="cls-3" d="M319.69,140.26l-4.09-2.38a11.44,11.44,0,0,0,1.22-.25l4.09,2.37a11.44,11.44,0,0,1-1.22.26"/><path class="cls-3" d="M320.91,140l-4.09-2.37a9.67,9.67,0,0,0,1.25-.43l4.09,2.37a8.77,8.77,0,0,1-1.25.43"/><path class="cls-3" d="M322.16,139.57l-4.09-2.37c.28-.13.55-.26.81-.41a7.64,7.64,0,0,0,1.05-.74l4.09,2.37a6.87,6.87,0,0,1-1,.74,6.15,6.15,0,0,1-.81.41"/></g></g><g class="cls-15"><g class="cls-49"><g class="cls-15"><path class="cls-50" d="M293.8,135.6l-4.09-2.38a51.9,51.9,0,0,1-14.93-13.09l4.09,2.38A52.05,52.05,0,0,0,293.8,135.6"/></g></g></g><path class="cls-1" d="M278.87,122.51c1.63,1.16,32.61,23.29,44.1,16.65a6.87,6.87,0,0,0,1-.74l-3.68,4.38A52.91,52.91,0,0,1,278.87,122.51Z"/><polygon class="cls-4" points="198.4 158.91 145.28 128.05 164.79 138.94 217.91 169.8 198.4 158.91"/><path class="cls-25" d="M243.17,103.14s-21.27,44.23-44.58,69"/><polygon class="cls-12" points="198.4 158.91 217.91 169.8 179.02 192.26 198.4 158.91"/><path class="cls-25" d="M224,93.54s-21.27,44.23-44.58,69"/><path class="cls-25" d="M233.57,98.34s-21.27,44.23-44.58,69"/><path class="cls-25" d="M262.37,116.34s-19.8,40.88-41.49,63.77"/><rect class="cls-6" x="142.87" y="129.43" width="38.57" height="61.43" transform="translate(-57.79 219.88) rotate(-59.84)"/><polygon class="cls-51" points="278.81 119.16 278.82 123.85 274.74 126.21 274.72 121.52 278.81 119.16"/><polygon class="cls-12" points="274.74 126.21 71.76 8.25 71.74 3.56 274.72 121.52 274.74 126.21"/><polygon class="cls-52" points="274.72 121.52 71.74 3.56 75.83 1.2 278.81 119.16 274.72 121.52"/><polygon class="cls-29" points="273.13 122.6 76.32 8.22 78.61 3.67 275.42 118.04 273.13 122.6"/><path class="cls-25" d="M110,28.74S88.7,73,65.39,97.74"/><path class="cls-26" d="M324,137.22l1.45-1.72A7.19,7.19,0,0,1,324,137.22Z"/><polygon class="cls-3" points="325.22 137.22 321.13 134.85 322.58 133.12 326.67 135.5 325.22 137.22"/><polygon class="cls-12" points="274.74 125.01 71.76 7.05 71.74 2.36 274.72 120.32 274.74 125.01"/><polygon class="cls-52" points="274.72 120.32 71.74 2.36 75.83 0 278.81 117.96 274.72 120.32"/><g class="cls-15"><polygon class="cls-12" points="203.21 156.79 203.22 160.31 199.82 162.28 199.81 158.75 203.21 156.79"/><polygon class="cls-53" points="199.82 162.28 39.35 69.02 39.34 65.5 199.81 158.75 199.82 162.28"/><polygon class="cls-54" points="199.81 158.75 39.34 65.5 42.74 63.53 203.21 156.79 199.81 158.75"/></g><g class="cls-15"><polygon class="cls-12" points="185.21 189.19 185.22 192.71 181.82 194.68 181.81 191.16 185.21 189.19"/><polygon class="cls-53" points="181.82 194.68 21.35 101.42 21.34 97.9 181.81 191.16 181.82 194.68"/><polygon class="cls-54" points="181.81 191.16 21.34 97.9 24.74 95.94 185.21 189.19 181.81 191.16"/></g><path class="cls-38" d="M177.68,190.91l-15.6,32.4s14.67,11.48,19.94,3.34C182,226.65,170.48,220.91,177.68,190.91Z"/><path class="cls-40" d="M174.52,206s-14.44,8.41-14.84,14.89"/><path class="cls-12" d="M181.77,226.56c-2.22-1.3-8.66-7.05-5.49-28.79,0,0-9.06,28.09,5.38,29.11A.17.17,0,0,0,181.77,226.56Z"/><path class="cls-39" d="M217.88,169.91s16.2,10.28,21.6,7.84-17.12,12.66-17.12,12.66Z"/></g></g></svg>