<?xml version="1.0" standalone="no"?><!DOCTYPE svg PUBLIC "-//W3C//DTD SVG 1.1//EN" "http://www.w3.org/Graphics/SVG/1.1/DTD/svg11.dtd"><svg t="1557219868927" class="icon" style="" viewBox="0 0 1024 1024" version="1.1" xmlns="http://www.w3.org/2000/svg" p-id="14254" xmlns:xlink="http://www.w3.org/1999/xlink" width="48" height="48"><defs><style type="text/css"></style></defs><path d="M919.438335 397.711423c-3.32797 17.213845-8.766921 31.227719-16.253853 42.042622-7.487933 10.814903-13.822876 15.869857-19.005829 15.165863-5.247953-0.767993-9.919911-4.47996-14.014874-11.197899-4.094963-6.71994-7.294934-19.069828-9.534915-36.987667-3.710967-29.179738-13.245881-50.681544-28.539743-64.50442-15.294862-13.821876-38.971649-23.740786-71.09536-29.691733-33.595698-6.71994-63.224431-20.349817-89.0132-40.955632-25.724769-20.540815-47.226575-39.802642-64.376421-57.78448-16.381853-15.741858-29.052739-21.309808-38.011658-16.829849s-13.437879 12.733885-13.437879 24.699778v48.250566l-1.08799 493.443562v63.929425c0.767993 17.916839-2.047982 37.946659-8.382925 60.02346-6.334943 22.077801-18.301835 42.810615-35.835678 62.26444s-40.890632 36.091675-69.943371 49.914551c-29.116738 13.821876-65.336412 21.884803-108.595023 24.124783-44.026604 2.23998-83.765247-5.631949-119.216928-23.549788-35.451681-17.916839-62.904434-40.569635-82.294259-67.83139-19.389826-27.259755-28.92374-57.209485-28.539744-89.717193 0.382997-32.507708 14.333871-62.967434 41.978623-91.380178 27.644751-28.412744 57.464483-48.249566 89.589194-59.449465 32.059712-11.197899 63.031433-17.405843 92.916164-18.492834 29.884731-1.08799 56.505492 0.959991 80.05428 6.142945 23.484789 5.246953 40.826633 10.109909 52.025532 14.589869 0 0 0.383997-505.025458 1.15199-615.668463 0-21.692805 5.630949-39.419645 16.765849-53.30552C487.939216 11.1349 502.849082 3.071972 521.534914 0.831993c15.61386-2.367979 28.476744 0.767993 38.523654 9.406915 10.109909 8.574923 20.349817 20.541815 30.779723 35.899677 10.494906 15.293862 23.35679 32.699706 38.651652 52.153531 15.293862 19.453825 36.027676 38.522654 62.136441 57.209485 22.396799 17.212845 41.978622 29.499735 58.808471 36.986668a4986.732149 4986.732149 0 0 0 47.034577 20.733813c14.525869 6.334943 28.92374 14.013874 43.129613 22.972794 14.206872 8.959919 29.884731 23.549788 47.034576 43.706607 17.149846 19.453825 27.644751 39.611644 31.356718 60.536455 3.646967 20.989811 3.839965 40.05964 0.447996 57.273485z" p-id="14255" fill="#b9322c"></path></svg>