<?xml version="1.0" standalone="no"?><!DOCTYPE svg PUBLIC "-//W3C//DTD SVG 1.1//EN" "http://www.w3.org/Graphics/SVG/1.1/DTD/svg11.dtd"><svg t="1557219822088" class="icon" style="" viewBox="0 0 1024 1024" version="1.1" xmlns="http://www.w3.org/2000/svg" p-id="11508" xmlns:xlink="http://www.w3.org/1999/xlink" width="48" height="48"><defs><style type="text/css"></style></defs><path d="M844.744 64.641l-483.775 80.815c-1.568 0.25-3.031 0.71-4.454 1.254H339.04c-11.915 0-21.384 9.532-21.384 21.281v553.03c-18.876-10.913-40.826-17.14-64.216-17.14-70.928 0-128.433 57.359-128.433 128.139s57.505 128.137 128.433 128.137c70.926 0 128.433-57.36 128.433-128.14 0-5.184-0.314-10.285-0.9-15.259 0.586-1.965 0.9-4.013 0.9-6.188V360.805l449.514-79.267v311.3c-18.876-10.871-40.826-17.143-64.217-17.143-70.927 0-128.433 57.401-128.433 128.183 0 70.738 57.506 128.14 128.433 128.14 70.926 0 128.432-57.402 128.432-128.14 0-5.184-0.313-10.285-0.898-15.301 0.585-1.967 0.898-4.016 0.898-6.188V84.416c0-10.452-7.588-19.19-17.58-20.946-3.49-2.174-7.88-3.052-12.71-2.258l-11.37 1.923h-1.171c-2.843 0-5.561 0.544-8.027 1.506z" p-id="11509" fill="#b9322c"></path></svg>