<svg xmlns="http://www.w3.org/2000/svg" xmlns:xlink="http://www.w3.org/1999/xlink" viewBox="0 0 200.23 300.96"><defs><style>.cls-1,.cls-18,.cls-26{fill:none;}.cls-2{fill:#534741;}.cls-3{isolation:isolate;}.cls-4{clip-path:url(#clip-path);}.cls-5{fill:#777;}.cls-6{fill:#737373;}.cls-7{fill:#866765;}.cls-8{fill:#888;}.cls-9{fill:#ddd;}.cls-10{fill:#2f2f2f;}.cls-11{fill:#5d514b;}.cls-12{fill:#672922;}.cls-13{fill:#5c251e;}.cls-14{fill:#401a15;}.cls-15{fill:#3d3d3d;}.cls-16{fill:#3d433d;}.cls-17{fill:#662922;}.cls-18,.cls-26{stroke:#333;stroke-linecap:round;stroke-linejoin:round;}.cls-18{stroke-width:1.2px;}.cls-19{fill:#333;}.cls-20{clip-path:url(#clip-path-2);}.cls-21{fill:#a1a1a1;}.cls-22{clip-path:url(#clip-path-3);}.cls-23{clip-path:url(#clip-path-4);}.cls-24{clip-path:url(#clip-path-5);}.cls-25{fill:#6f6f6f;}.cls-26{stroke-width:1.26px;}.cls-27{clip-path:url(#clip-path-6);}.cls-28{fill:#adadad;}.cls-29{clip-path:url(#clip-path-7);}.cls-30{fill:#b5b5b5;}.cls-31{fill:#b1b1b1;}.cls-32{clip-path:url(#clip-path-8);}.cls-33{clip-path:url(#clip-path-9);}.cls-34{clip-path:url(#clip-path-10);}.cls-35{clip-path:url(#clip-path-11);}.cls-36{fill:#191919;}.cls-37{fill:#242424;}.cls-38{fill:#ababab;}</style><clipPath id="clip-path"><path class="cls-1" d="M99.53,135.13l-2.88,1.67a6.87,6.87,0,0,0,2.3-2.6l2.88-1.67A7,7,0,0,1,99.53,135.13Z"/></clipPath><clipPath id="clip-path-2"><path class="cls-2" d="M97.92,144l2.88-1.68c-.07,1.78-1.36,35.49,4.39,52.14l-2.88,1.67C96.56,179.43,97.85,145.72,97.92,144Z"/></clipPath><clipPath id="clip-path-3"><path class="cls-2" d="M148.38,112.91l2.88-1.67c1.8,1,36,20.77,49,20.09L197.35,133C184.37,133.68,150.18,114,148.38,112.91Z"/></clipPath><clipPath id="clip-path-4"><path class="cls-1" d="M6.05,140.85l-2.3-1.33a.58.58,0,0,1-.18-.17l2.3,1.34A.55.55,0,0,0,6.05,140.85Z"/></clipPath><clipPath id="clip-path-5"><path class="cls-2" d="M2.79,137.34.49,136c.46.26,2.3,1,6.66-1.55,5.07-2.92,13.44-10.28,26.6-28l2.3,1.34c-13.16,17.76-21.53,25.11-26.6,28C5.1,138.31,3.25,137.6,2.79,137.34Z"/></clipPath><clipPath id="clip-path-6"><path class="cls-2" d="M94,81.9l2.18-1.26c-.18,1.26-3.45,25.15,0,37.66L94,119.56C90.56,107.05,93.83,83.16,94,81.9Z"/></clipPath><clipPath id="clip-path-7"><path class="cls-1" d="M130.9,58.89l2.18-1.27,1.18.69-2.18,1.26Z"/></clipPath><clipPath id="clip-path-8"><path class="cls-2" d="M132.08,59.57l2.18-1.26C139.64,61.42,162,74,170.87,73.84l-2.17,1.27C159.86,75.29,137.47,62.68,132.08,59.57Z"/></clipPath><clipPath id="clip-path-9"><path class="cls-1" d="M169.17,75.68,167,76.94a5.24,5.24,0,0,0,1.71-1.83l2.17-1.27A5.18,5.18,0,0,1,169.17,75.68Z"/></clipPath><clipPath id="clip-path-10"><path class="cls-1" d="M24.46,80.53l-1.73-1a.35.35,0,0,1-.14-.13l1.74,1A.4.4,0,0,0,24.46,80.53Z"/></clipPath><clipPath id="clip-path-11"><path class="cls-2" d="M22,77.87l-1.73-1c.34.2,1.73.74,5-1.16,3.83-2.21,10.15-7.77,20.09-21.19l1.74,1C37.18,68.94,30.86,74.5,27,76.71,23.74,78.61,22.35,78.07,22,77.87Z"/></clipPath></defs><title>资源 1</title><g id="图层_2" data-name="图层 2"><g id="图层_1-2" data-name="图层 1"><g class="cls-3"><g class="cls-4"><g class="cls-3"><path class="cls-5" d="M99,134.2l2.88-1.67a6.08,6.08,0,0,1-.32.54l-2.87,1.68a5.45,5.45,0,0,0,.31-.55"/><path class="cls-6" d="M98.64,134.75l2.87-1.68a6.25,6.25,0,0,1-2,2.06l-2.88,1.67a6.47,6.47,0,0,0,2-2.05"/></g></g></g><polygon class="cls-7" points="20.21 164.27 98.87 118.56 178.04 164.27 99.39 209.98 20.21 164.27"/><polygon class="cls-8" points="99.39 209.98 99.13 300.95 19.96 255.24 20.21 164.27 99.39 209.98"/><polygon class="cls-9" points="99.39 209.98 178.04 164.27 177.79 255.25 99.13 300.95 99.39 209.98"/><polygon class="cls-10" points="170.03 161.22 170.01 167.09 98.76 125.95 98.78 120.08 170.03 161.22"/><polygon class="cls-2" points="98.78 120.08 98.76 125.95 27.97 167.09 27.99 161.22 98.78 120.08"/><path class="cls-11" d="M98.75,115.51l79.17,45.71L99.27,206.93,20.1,161.22Zm.49,86.84L170,161.22,98.78,120.08,28,161.22l71.25,41.13"/><polygon class="cls-2" points="177.92 161.22 177.9 167.09 99.25 212.8 99.27 206.93 177.92 161.22"/><polygon class="cls-10" points="99.27 206.93 99.25 212.8 20.08 167.09 20.1 161.22 99.27 206.93"/><polygon class="cls-12" points="30.32 142.97 25.25 145.92 20.14 142.97 25.21 140.02 30.32 142.97"/><polygon class="cls-2" points="30.32 142.97 30.27 162.54 25.19 165.49 25.25 145.92 30.32 142.97"/><polygon class="cls-10" points="25.25 145.92 25.19 165.49 20.08 162.54 20.14 142.97 25.25 145.92"/><g class="cls-3"><polygon class="cls-12" points="103.52 99.77 98.44 102.72 93.33 99.77 98.41 96.82 103.52 99.77"/><polygon class="cls-13" points="103.52 99.77 103.46 119.33 98.39 122.28 98.44 102.72 103.52 99.77"/><polygon class="cls-14" points="98.44 102.72 98.39 122.28 93.28 119.33 93.33 99.77 98.44 102.72"/></g><polygon class="cls-12" points="177.92 142.97 172.85 145.92 167.74 142.97 172.81 140.02 177.92 142.97"/><polygon class="cls-2" points="177.92 142.97 177.87 162.54 172.79 165.49 172.85 145.92 177.92 142.97"/><polygon class="cls-10" points="172.85 145.92 172.79 165.49 167.68 162.54 167.74 142.97 172.85 145.92"/><polygon class="cls-12" points="104.73 173.11 99.66 176.05 94.55 173.1 99.62 170.16 104.73 173.11"/><polygon class="cls-2" points="104.73 173.11 104.64 204.41 99.57 207.35 99.66 176.05 104.73 173.11"/><polygon class="cls-10" points="99.66 176.05 99.57 207.35 94.46 204.41 94.55 173.1 99.66 176.05"/><polygon class="cls-15" points="96.76 191.24 18.1 145.53 35.04 105.37 113.69 151.08 96.76 191.24"/><polygon class="cls-16" points="98.76 142.4 97.2 191.16 114 151.56 98.76 142.4"/><polygon class="cls-16" points="166.47 120.61 183.58 141.11 96.76 191.24 113.69 151.08 166.47 120.61"/><polygon class="cls-16" points="113.69 151.08 35.04 105.37 87.82 74.9 166.47 120.61 113.69 151.08"/><polygon class="cls-9" points="149.41 78.51 149.51 113.72 100.14 142.23 100.04 107.02 149.41 78.51"/><polygon class="cls-8" points="100.14 142.23 35.38 104.59 35.28 69.38 100.04 107.02 100.14 142.23"/><polygon class="cls-17" points="100.04 107.02 35.28 69.38 84.65 40.88 149.41 78.51 100.04 107.02"/><path class="cls-15" d="M96.3,143.18s3.3,51.57,8.1,52.77c0,0-8.4-3.6-9.6-6S96.3,143.18,96.3,143.18Z"/><polygon class="cls-15" points="92.97 118.58 33.57 84.06 46.36 53.73 105.77 88.25 92.97 118.58"/><line class="cls-18" x1="100.65" y1="150.11" x2="154.2" y2="118.55"/><line class="cls-18" x1="100.2" y1="160.55" x2="161.05" y2="123.14"/><path class="cls-16" d="M165.6,120.35l12.32,24,20.08-12S177.6,132.35,165.6,120.35Z"/><line class="cls-18" x1="102.6" y1="183.35" x2="185.53" y2="133.17"/><line class="cls-18" x1="172.2" y1="128.15" x2="100.29" y2="171.24"/><path class="cls-15" d="M34.8,106S13.2,145.55,0,136l36.73,20.4Z"/><path class="cls-19" d="M97.92,144c-.07,1.77-1.36,35.48,4.39,52.13-.22-.25-4.38-5.06-4.11-8.07s-4.5-23.57-2.5-44.65Z"/><path class="cls-2" d="M97.92,144l2.88-1.68c-.07,1.78-1.36,35.49,4.39,52.14l-2.88,1.67C96.56,179.43,97.85,145.72,97.92,144Z"/><g class="cls-20"><g class="cls-3"><path class="cls-2" d="M97.92,144l2.88-1.68c0,.52-.14,3.73-.17,8.45l-2.88,1.67c0-4.71.15-7.93.17-8.44"/><path class="cls-2" d="M97.75,152.39l2.88-1.67c0,3,0,6.52.13,10.37l-2.88,1.67c-.12-3.85-.14-7.41-.13-10.37"/><path class="cls-2" d="M97.88,162.76l2.88-1.67c.07,2.6.19,5.35.37,8.13l-2.88,1.67c-.17-2.78-.29-5.52-.37-8.13"/><path class="cls-2" d="M98.25,170.89l2.88-1.67c.13,2,.28,4,.47,6l-2.88,1.67c-.19-2-.34-4-.47-6"/><path class="cls-2" d="M98.72,176.89l2.88-1.67c.15,1.54.32,3.08.51,4.59l-2.88,1.67q-.28-2.26-.51-4.59"/><path class="cls-2" d="M99.23,181.48l2.88-1.67c.15,1.19.31,2.37.49,3.52L99.73,185c-.19-1.15-.35-2.33-.5-3.52"/><path class="cls-2" d="M99.73,185l2.87-1.67c.15,1,.32,1.9.49,2.82l-2.88,1.67q-.25-1.38-.48-2.82"/><path class="cls-2" d="M100.21,187.82l2.88-1.67c.14.76.29,1.5.45,2.23l-2.88,1.67c-.16-.73-.31-1.47-.45-2.23"/><path class="cls-2" d="M100.66,190.05l2.88-1.67c.13.61.27,1.21.41,1.79l-2.87,1.68q-.22-.89-.42-1.8"/><path class="cls-2" d="M101.08,191.85l2.87-1.68c.14.55.28,1.09.42,1.61l-2.87,1.67c-.15-.52-.29-1.06-.42-1.6"/><path class="cls-2" d="M101.5,193.45l2.87-1.67q.16.58.33,1.14l-2.87,1.67q-.18-.56-.33-1.14"/><path class="cls-2" d="M101.83,194.59l2.87-1.67c.12.38.23.74.35,1.1l-2.87,1.67c-.12-.36-.24-.72-.35-1.1"/><path class="cls-2" d="M102.18,195.69l2.87-1.67.14.39-2.88,1.67c0-.13-.09-.26-.13-.39"/></g></g><polygon class="cls-21" points="95.7 143.36 98.57 141.69 100.8 142.27 97.92 143.95 95.7 143.36"/><path class="cls-10" d="M197.35,133c-.11.22-2.24,4.36-5.32,2.58l-.16-.09-.14-.09c-1.58-.91-6-2-12.32-4.29a144.83,144.83,0,0,1-24-11.06q-3-1.76-6.24-3.81l-.78-3.33C150.18,114,184.37,133.68,197.35,133Z"/><path class="cls-2" d="M148.38,112.91l2.88-1.67c1.8,1,36,20.77,49,20.09L197.35,133C184.37,133.68,150.18,114,148.38,112.91Z"/><g class="cls-22"><g class="cls-3"><path class="cls-2" d="M148.38,112.91l2.88-1.67c.46.26,3,1.74,6.81,3.79l-2.88,1.68c-3.78-2-6.35-3.53-6.81-3.8"/><path class="cls-2" d="M155.19,116.71l2.88-1.68c2.9,1.58,6.52,3.48,10.45,5.42l-2.87,1.68c-3.94-1.95-7.56-3.85-10.46-5.42"/><path class="cls-2" d="M165.65,122.13l2.87-1.68c2.61,1.29,5.35,2.6,8.12,3.84L173.76,126c-2.76-1.24-5.51-2.54-8.11-3.83"/><path class="cls-2" d="M173.76,126l2.88-1.67c2,.9,4,1.76,6,2.56l-2.88,1.67c-2-.79-4-1.66-6-2.56"/><path class="cls-2" d="M179.77,128.52l2.88-1.67c1.53.61,3,1.19,4.51,1.71l-2.87,1.67q-2.22-.78-4.52-1.71"/><path class="cls-2" d="M184.29,130.23l2.87-1.67c1.16.4,2.29.78,3.39,1.11l-2.88,1.67c-1.1-.33-2.23-.7-3.38-1.11"/><path class="cls-2" d="M187.67,131.34l2.88-1.67c.91.27,1.79.52,2.64.73l-2.87,1.68c-.86-.22-1.74-.46-2.65-.74"/><path class="cls-2" d="M190.32,132.08l2.87-1.68c.71.18,1.4.34,2.06.47l-2.87,1.67c-.67-.13-1.36-.29-2.06-.46"/><path class="cls-2" d="M192.38,132.54l2.87-1.67c.58.11,1.15.21,1.69.28l-2.88,1.67c-.54-.07-1.1-.17-1.68-.28"/><path class="cls-2" d="M194.06,132.82l2.88-1.67c.5.07,1,.12,1.45.15L195.51,133c-.47,0-.95-.09-1.45-.16"/><path class="cls-2" d="M195.51,133l2.88-1.68c.4,0,.8,0,1.18,0L196.69,133c-.38,0-.77,0-1.18,0"/><path class="cls-2" d="M196.69,133l2.88-1.67.66,0L197.35,133l-.66,0"/></g></g><g class="cls-3"><g class="cls-23"><g class="cls-3"><path class="cls-6" d="M6.05,140.85l-2.3-1.33a.58.58,0,0,1-.18-.17l2.3,1.34a.55.55,0,0,0,.18.16"/></g></g></g><path class="cls-2" d="M2.79,137.34.49,136c.46.26,2.3,1,6.66-1.55,5.07-2.92,13.44-10.28,26.6-28l2.3,1.34c-13.16,17.76-21.53,25.11-26.6,28C5.1,138.31,3.25,137.6,2.79,137.34Z"/><g class="cls-24"><g class="cls-3"><path class="cls-2" d="M2.79,137.34.49,136h0l2.3,1.34h0"/><path class="cls-2" d="M2.81,137.35.51,136l.17.08L3,137.43l-.17-.08"/><path class="cls-2" d="M3,137.43l-2.3-1.34a1.35,1.35,0,0,0,.24.08l2.3,1.34a1.35,1.35,0,0,1-.24-.08"/><path class="cls-2" d="M3.22,137.51l-2.3-1.34a1.67,1.67,0,0,0,.3.07l2.3,1.34-.3-.07"/><path class="cls-2" d="M3.52,137.58l-2.3-1.34.37,0,2.3,1.33-.37,0"/><path class="cls-2" d="M3.89,137.62l-2.3-1.33a3.84,3.84,0,0,0,.48,0l2.3,1.34H3.89"/><path class="cls-2" d="M4.37,137.63l-2.3-1.34.62-.06L5,137.57l-.62.06"/><path class="cls-2" d="M5,137.57l-2.3-1.34a6.66,6.66,0,0,0,.85-.19l2.3,1.34a6.66,6.66,0,0,1-.85.19"/><path class="cls-2" d="M5.84,137.38,3.54,136a11.14,11.14,0,0,0,1.4-.48l2.3,1.34a11.14,11.14,0,0,1-1.4.48"/><path class="cls-2" d="M7.24,136.9l-2.3-1.34a17.53,17.53,0,0,0,2.21-1.11,48.37,48.37,0,0,0,9.46-7.65l2.3,1.34a48.76,48.76,0,0,1-9.46,7.65,17.53,17.53,0,0,1-2.21,1.11"/><path class="cls-2" d="M18.91,128.14l-2.3-1.34c1.89-1.86,4-4.08,6.27-6.72l2.3,1.33c-2.3,2.65-4.38,4.87-6.27,6.73"/><path class="cls-2" d="M25.18,121.41l-2.3-1.33c2.18-2.52,4.57-5.42,7.16-8.77l2.3,1.34c-2.59,3.34-5,6.25-7.16,8.76"/><path class="cls-2" d="M32.34,112.65,30,111.31q1.79-2.31,3.71-4.9l2.3,1.34q-1.92,2.59-3.71,4.9"/></g></g><path class="cls-19" d="M36.05,107.75l1.83,1.89c-1.14,1.33-22.73,26.57-30,30.75-1,.59-1.73.73-2,.3l-3.19-3.43c.09.07,1.79,1.41,6.77-1.47S22.89,125.51,36.05,107.75Z"/><polygon class="cls-25" points="5.87 140.69 3.57 139.35 0.38 135.92 2.68 137.26 5.87 140.69"/><polygon class="cls-16" points="94.49 81.7 93.31 118.52 106 88.61 94.49 81.7"/><polygon class="cls-16" points="145.63 65.23 158.56 80.72 92.97 118.58 105.77 88.25 145.63 65.23"/><polygon class="cls-16" points="105.77 88.25 46.36 53.73 86.22 30.71 145.63 65.23 105.77 88.25"/><path class="cls-15" d="M46.18,54.17S29.87,84.08,19.9,76.82L47.64,92.23Z"/><path class="cls-16" d="M145,65l9.31,18.15,15.16-9.08S154,74.11,145,65Z"/><path class="cls-19" d="M94,81.9c-.17,1.26-3.44,25.15,0,37.66-.16-.2-3.13-4.09-2.71-6.22s-2-17.3,1-32.1Z"/><line class="cls-26" x1="94.65" y1="87.8" x2="135.74" y2="64.08"/><line class="cls-26" x1="94.82" y1="95.25" x2="142.38" y2="67.78"/><line class="cls-26" x1="94.05" y1="103.55" x2="150" y2="70.7"/><line class="cls-26" x1="95.4" y1="112.55" x2="159.44" y2="74.92"/><path class="cls-2" d="M94,81.9l2.18-1.26c-.18,1.26-3.45,25.15,0,37.66L94,119.56C90.56,107.05,93.83,83.16,94,81.9Z"/><g class="cls-27"><g class="cls-3"><path class="cls-2" d="M94,81.9l2.18-1.26c0,.15-.09.63-.18,1.37l-2.18,1.27c.1-.75.16-1.23.18-1.38"/><path class="cls-2" d="M93.82,83.28,96,82c-.21,1.63-.54,4.52-.83,8.07L93,91.35c.29-3.56.62-6.45.82-8.07"/><path class="cls-2" d="M93,91.35l2.17-1.27c-.18,2.15-.34,4.53-.44,7l-2.17,1.26c.1-2.49.26-4.87.44-7"/><path class="cls-2" d="M92.56,98.36l2.17-1.26c-.07,1.69-.12,3.43-.13,5.18l-2.17,1.26c0-1.75,0-3.49.13-5.18"/><path class="cls-2" d="M92.43,103.54l2.17-1.26c0,1.26,0,2.52.05,3.77l-2.18,1.26c0-1.25,0-2.51,0-3.77"/><path class="cls-2" d="M92.47,107.31l2.18-1.26c0,1,.07,1.94.13,2.89l-2.18,1.27c-.06-1-.1-1.92-.13-2.9"/><path class="cls-2" d="M92.6,110.21l2.18-1.27c0,.76.1,1.51.17,2.25l-2.17,1.26c-.07-.74-.13-1.48-.18-2.24"/><path class="cls-2" d="M92.78,112.45c.06.61.12,1.2.2,1.79L95.15,113c-.07-.59-.14-1.19-.2-1.79l-2.17,1.26"/><path class="cls-2" d="M93,114.24,95.15,113q.09.75.21,1.5l-2.17,1.26q-.12-.73-.21-1.5"/><path class="cls-2" d="M93.19,115.74l2.17-1.26c.06.4.13.8.2,1.19l-2.17,1.26c-.07-.39-.14-.79-.2-1.19"/><path class="cls-2" d="M93.39,116.93l2.17-1.26.21,1L93.6,118l-.21-1"/><path class="cls-2" d="M93.6,118l2.17-1.26c.07.29.13.57.2.85l-2.17,1.26c-.07-.28-.14-.56-.2-.85"/><path class="cls-2" d="M93.8,118.82,96,117.56c.06.25.13.5.19.74L94,119.56c-.07-.24-.13-.49-.19-.74"/></g></g><polygon class="cls-28" points="92.29 81.24 94.46 79.97 96.18 80.64 94 81.9 92.29 81.24"/><g class="cls-3"><g class="cls-29"><g class="cls-3"><path class="cls-30" d="M130.9,58.89l2.18-1.27.13.08L131,59l-.13-.07"/><path class="cls-31" d="M131,59l2.18-1.26,1,.61-2.18,1.26L131,59"/></g></g></g><path class="cls-10" d="M132.08,59.57c5.39,3.11,27.78,15.72,36.62,15.54-.09.16-1.77,3.19-4.12,1.83l-.16-.1-.13-.08c-1.22-.7-4.48-1.63-9.17-3.38a115.85,115.85,0,0,1-17.67-8.3q-2.91-1.66-6-3.69l-.57-2.5Z"/><line class="cls-26" x1="44.3" y1="59.24" x2="91.4" y2="86.83"/><line class="cls-26" x1="38.89" y1="65.86" x2="91.8" y2="95.75"/><line class="cls-26" x1="33.4" y1="72.25" x2="91.5" y2="105.55"/><line class="cls-26" x1="28.67" y1="78.05" x2="91.8" y2="114.35"/><path class="cls-2" d="M132.08,59.57l2.18-1.26C139.64,61.42,162,74,170.87,73.84l-2.17,1.27C159.86,75.29,137.47,62.68,132.08,59.57Z"/><g class="cls-32"><g class="cls-3"><path class="cls-2" d="M132.08,59.57l2.18-1.26c1.29.75,3.58,2,6.43,3.59l-2.17,1.27c-2.85-1.55-5.14-2.85-6.44-3.6"/><path class="cls-2" d="M138.52,63.17l2.17-1.27c2.38,1.29,5.15,2.75,8.07,4.19l-2.18,1.26c-2.91-1.44-5.68-2.9-8.06-4.18"/><path class="cls-2" d="M146.58,67.35l2.18-1.26c1.94,1,3.94,1.91,5.93,2.81l-2.17,1.26c-2-.89-4-1.85-5.94-2.81"/><path class="cls-2" d="M152.52,70.16l2.17-1.26c1.45.64,2.88,1.26,4.28,1.82L156.8,72c-1.4-.56-2.84-1.18-4.28-1.82"/><path class="cls-2" d="M156.8,72,159,70.72c1.09.43,2.15.84,3.18,1.2L160,73.18c-1-.36-2.1-.76-3.18-1.2"/><path class="cls-2" d="M160,73.18l2.17-1.26c.8.28,1.58.54,2.34.77L162.31,74c-.75-.23-1.53-.48-2.33-.77"/><path class="cls-2" d="M162.31,74l2.18-1.26c.63.19,1.24.36,1.82.51l-2.17,1.26q-.88-.22-1.83-.51"/><path class="cls-2" d="M164.14,74.46l2.17-1.26c.5.12,1,.23,1.46.32l-2.18,1.26c-.47-.09-1-.2-1.45-.32"/><path class="cls-2" d="M165.59,74.78l2.18-1.26c.39.08.77.14,1.14.19L166.73,75c-.36,0-.75-.12-1.14-.2"/><path class="cls-2" d="M166.73,75l2.18-1.27c.33.05.66.08,1,.11l-2.18,1.26c-.31,0-.63-.06-1-.1"/><path class="cls-2" d="M167.7,75.08l2.18-1.26.82,0-2.17,1.26-.83,0"/><path class="cls-2" d="M168.53,75.11l2.17-1.26h.17l-2.17,1.27h-.17"/></g></g><g class="cls-3"><g class="cls-33"><g class="cls-3"><path class="cls-5" d="M168.7,75.11l2.17-1.27a1.55,1.55,0,0,1-.14.24l-2.17,1.27.14-.24"/><path class="cls-6" d="M168.56,75.35l2.17-1.27a5,5,0,0,1-1.56,1.6L167,76.94a4.94,4.94,0,0,0,1.57-1.59"/></g></g></g><g class="cls-3"><g class="cls-34"><g class="cls-3"><path class="cls-6" d="M24.46,80.53l-1.73-1a.35.35,0,0,1-.14-.13l1.74,1a.4.4,0,0,0,.13.13"/></g></g></g><path class="cls-2" d="M22,77.87l-1.73-1c.34.2,1.73.74,5-1.16,3.83-2.21,10.15-7.77,20.09-21.19l1.74,1C37.18,68.94,30.86,74.5,27,76.71,23.74,78.61,22.35,78.07,22,77.87Z"/><g class="cls-35"><g class="cls-3"><polyline class="cls-2" points="22 77.87 20.27 76.86 20.28 76.87 22.02 77.88 22 77.87"/><path class="cls-2" d="M22,77.88l-1.74-1,.13.06,1.74,1L22,77.88"/><path class="cls-2" d="M22.15,77.94l-1.74-1,.18.06,1.73,1-.17-.06"/><path class="cls-2" d="M22.32,78l-1.73-1,.22.06,1.74,1L22.32,78"/><path class="cls-2" d="M22.55,78.06l-1.74-1,.29,0,1.73,1-.28,0"/><path class="cls-2" d="M22.83,78.09l-1.73-1a2,2,0,0,0,.35,0l1.74,1h-.36"/><path class="cls-2" d="M23.19,78.09l-1.74-1a2.69,2.69,0,0,0,.47,0l1.74,1a2.79,2.79,0,0,1-.47,0"/><path class="cls-2" d="M23.66,78l-1.74-1c.2,0,.41-.07.65-.13l1.73,1c-.23.06-.45.1-.64.13"/><path class="cls-2" d="M24.3,77.91l-1.73-1a10.44,10.44,0,0,0,1.05-.37l1.74,1a9.74,9.74,0,0,1-1.06.37"/><path class="cls-2" d="M25.36,77.54l-1.74-1a14.27,14.27,0,0,0,1.67-.83,37,37,0,0,0,7.14-5.78l1.74,1A37.35,37.35,0,0,1,27,76.71a15.09,15.09,0,0,1-1.67.83"/><path class="cls-2" d="M34.17,70.93l-1.74-1c1.42-1.41,3-3.08,4.73-5.07l1.73,1c-1.73,2-3.3,3.66-4.72,5.07"/><path class="cls-2" d="M38.89,65.86l-1.73-1c1.65-1.9,3.45-4.09,5.4-6.62l1.74,1c-2,2.53-3.75,4.72-5.41,6.62"/><path class="cls-2" d="M44.3,59.24l-1.74-1q1.36-1.75,2.82-3.72l1.74,1q-1.45,2-2.82,3.72"/></g></g><path class="cls-19" d="M47.12,55.52,48.51,57C47.65,58,31.33,77,25.86,80.18c-.77.44-1.31.55-1.53.22l-2.41-2.58c.07.05,1.35,1.06,5.11-1.11S37.18,68.94,47.12,55.52Z"/><polygon class="cls-25" points="24.33 80.4 22.59 79.39 20.18 76.81 21.92 77.82 24.33 80.4"/><polygon class="cls-14" points="102.34 140.13 102.33 144.04 98.92 142.07 98.93 138.16 102.34 140.13"/><polygon class="cls-2" points="102.34 140.13 153.09 110.64 153.07 114.55 102.33 144.04 102.34 140.13"/><polygon class="cls-11" points="98.93 138.16 149.68 108.67 153.09 110.64 102.34 140.13 98.93 138.16"/><polygon class="cls-2" points="102.73 139.48 102.74 143.39 99.34 145.35 99.33 141.44 102.73 139.48"/><polygon class="cls-10" points="99.34 145.35 31.68 106.03 31.66 102.12 99.33 141.44 99.34 145.35"/><polygon class="cls-11" points="99.33 141.44 31.66 102.12 35.07 100.16 102.73 139.48 99.33 141.44"/><polygon class="cls-15" points="49.2 51.95 94.8 81.95 103.2 14.76 85.2 5.16 49.2 51.95"/><polygon class="cls-16" points="93.29 81.7 102 14.76 132.8 58.35 93.29 81.7"/><polygon class="cls-14" points="97.45 80.29 97.44 83.22 94.89 81.75 94.9 78.81 97.45 80.29"/><polygon class="cls-2" points="97.45 80.29 135.51 58.17 135.5 61.1 97.44 83.22 97.45 80.29"/><polygon class="cls-11" points="94.9 78.81 132.96 56.7 135.51 58.17 97.45 80.29 94.9 78.81"/><polygon class="cls-2" points="97.45 80.09 97.45 83.03 94.9 84.51 94.9 81.57 97.45 80.09"/><polygon class="cls-10" points="94.9 84.51 44.16 55.02 44.15 52.08 94.9 81.57 94.9 84.51"/><polygon class="cls-11" points="94.9 81.57 44.15 52.08 46.7 50.6 97.45 80.09 94.9 81.57"/><path class="cls-11" d="M106.44,11.31l-4.89,2.84L82,2.84,86.86,0a39.94,39.94,0,0,0,8.85,6.62A53.22,53.22,0,0,0,106.44,11.31Z"/><polygon class="cls-2" points="106.44 11.31 106.43 14.87 101.54 17.71 101.55 14.15 106.44 11.31"/><polygon class="cls-10" points="101.55 14.15 101.54 17.71 81.96 6.41 81.97 2.84 101.55 14.15"/><line class="cls-26" x1="35.07" y1="112.89" x2="95.7" y2="148.25"/><line class="cls-26" x1="27.47" y1="121.44" x2="95.35" y2="160.44"/><line class="cls-26" x1="19.74" y1="128.78" x2="96.13" y2="172.46"/><line class="cls-26" x1="12.5" y1="136.81" x2="98.02" y2="185.5"/><path class="cls-36" d="M47.92,95.12a6.39,6.39,0,0,1,2.91,5l0,6.92L45,103.71l0-6.93C45,94.93,46.31,94.19,47.92,95.12Z"/><path class="cls-36" d="M81.53,114.32a6.43,6.43,0,0,1,2.9,5l0,6.92-5.83-3.37,0-6.91C78.6,114.14,79.92,113.39,81.53,114.32Z"/><path class="cls-37" d="M108.88,117.86c1.77-1,3.2-.2,3.21,1.83v6.12l-6.38,3.68,0-6.12A7,7,0,0,1,108.88,117.86Z"/><path class="cls-37" d="M141.28,99.86c1.77-1,3.2-.2,3.21,1.83v6.12l-6.38,3.68,0-6.12A7,7,0,0,1,141.28,99.86Z"/><path class="cls-37" d="M144.56,244.88c5.41-3.12,9.8-.62,9.82,5.6l.05,18.1-19.58,11.3,0-18.1C134.78,255.57,139.15,248,144.56,244.88Z"/><polygon class="cls-38" points="134.78 261.86 154.41 268.65 134.83 279.96 134.78 261.86"/></g></g></svg>