<svg xmlns="http://www.w3.org/2000/svg" xmlns:xlink="http://www.w3.org/1999/xlink" viewBox="0 0 33.48 40.26"><defs><style>.cls-1{fill:none;}.cls-2{fill:#534741;}.cls-3{isolation:isolate;}.cls-4{clip-path:url(#clip-path);}.cls-5{fill:#302926;}.cls-6{fill:#322b27;}.cls-7{fill:#332c28;}.cls-8{fill:#352d2a;}.cls-9{fill:#372f2b;}.cls-10{fill:#38302c;}.cls-11{fill:#3a322d;}.cls-12{fill:#3c332f;}.cls-13{fill:#2e2824;}.cls-14{fill:#2d2623;}.cls-15{fill:#2b2522;}.cls-16{fill:#483d38;}.cls-17{fill:#ddd;}.cls-18{fill:#888;}.cls-19{fill:#931700;}.cls-20{fill:#2f2f2f;}.cls-21{fill:#755cab;}.cls-22{fill:#fff0cd;}</style><clipPath id="clip-path"><path class="cls-1" d="M1.74,2,21.68,37.9a.24.24,0,0,1,0,.25.79.79,0,0,1-.62.35.27.27,0,0,1-.23-.11L.86,2.45c0,.07.11.11.23.11a.78.78,0,0,0,.62-.35A.26.26,0,0,0,1.74,2Z"/></clipPath></defs><title>资源 7</title><g id="图层_2" data-name="图层 2"><g id="图层_1-2" data-name="图层 1"><polygon class="cls-2" points="4 4.36 3.67 5.36 2.63 5.12 2.97 4.12 4 4.36"/><g class="cls-3"><g class="cls-3"><g class="cls-4"><g class="cls-3"><polyline class="cls-5" points="1.74 1.96 21.68 37.9 21.68 37.9 1.74 1.96 1.74 1.96"/><path class="cls-6" d="M1.74,2,21.68,37.9a0,0,0,0,1,0,0L1.75,2s0,0,0,0"/><path class="cls-7" d="M1.75,2,21.69,37.93a0,0,0,0,1,0,0L1.76,2s0,0,0,0"/><path class="cls-8" d="M1.76,2,21.7,38v0L1.76,2.05V2"/><path class="cls-9" d="M1.76,2.05,21.7,38v0L1.76,2.09v0"/><path class="cls-10" d="M1.76,2.09,21.7,38v0L1.74,2.13s0,0,0,0"/><path class="cls-11" d="M1.74,2.13l20,35.94,0,.08L1.71,2.21a.13.13,0,0,0,0-.08"/><path class="cls-12" d="M1.71,2.21,21.65,38.15h0a.36.36,0,0,1-.07.1L1.64,2.31a.86.86,0,0,0,.07-.1h0"/><path class="cls-11" d="M1.64,2.31,21.58,38.25l-.07.07L1.56,2.38l.08-.07"/><path class="cls-10" d="M1.56,2.38l20,35.94-.05,0L1.51,2.42l.05,0"/><path class="cls-9" d="M1.51,2.42l20,35.93s0,0-.05,0L1.47,2.45l0,0"/><path class="cls-8" d="M1.47,2.45,21.41,38.38l0,0L1.42,2.47l.05,0"/><path class="cls-7" d="M1.42,2.47l20,35.94-.05,0L1.38,2.49l0,0"/><path class="cls-6" d="M1.38,2.49,21.32,38.43l0,0L1.33,2.51l0,0"/><path class="cls-5" d="M1.33,2.51l20,35.94-.05,0L1.29,2.53l0,0"/><path class="cls-13" d="M1.29,2.53,21.23,38.47h-.05L1.23,2.54h.06"/><path class="cls-14" d="M1.23,2.54l20,35.94h-.06L1.17,2.55h.06"/><path class="cls-15" d="M1.17,2.55l20,35.94H21a.27.27,0,0,1-.23-.11L.86,2.45c0,.07.11.11.23.11h.08"/></g></g></g><path class="cls-16" d="M1.51,1.85c.23,0,.31.17.2.36a.78.78,0,0,1-.62.35A.22.22,0,0,1,.88,2.2.83.83,0,0,1,1.51,1.85Z"/></g><polygon class="cls-17" points="3.69 6.6 1.24 6.53 0 0 3.69 6.6"/><polyline class="cls-18" points="3.69 6.6 4.91 4.48 0 0"/><path class="cls-19" d="M3.08,9.83s-2.22-7.42,3.67-2L4.53,7a.71.71,0,0,0-1,.54Z"/><path class="cls-20" d="M21.65,38.15S16,38.26,18,39.26a10,10,0,0,0,4,1S24.3,38,21.65,38.15Z"/><path class="cls-20" d="M27.07,37.66S22,40.17,24.24,40.22a10,10,0,0,0,4-.8S29.42,36.42,27.07,37.66Z"/><path class="cls-21" d="M26.59,18.29s4.41,9,5.41,16-15,4-15,4,1-9,2-11-5-3-5-3v-3Z"/><ellipse class="cls-22" cx="23.72" cy="14.03" rx="4.71" ry="5.38"/><ellipse class="cls-22" cx="14.24" cy="23.17" rx="1.5" ry="1.63"/><path class="cls-20" d="M24,8.26s12,4,9,8-9-2-9-2S17,9.26,24,8.26Z"/></g></g></svg>