<svg xmlns="http://www.w3.org/2000/svg" viewBox="0 0 31 34.08"><defs><style>.cls-1{fill:#2f2f2f;}.cls-2{fill:#d6e042;}.cls-3{fill:#3870b7;}.cls-4{fill:#ffefcc;}</style></defs><title>资源 19</title><g id="图层_2" data-name="图层 2"><g id="图层_1-2" data-name="图层 1"><path class="cls-1" d="M7.66,31.17s-1.36,2.38,0,2.38,4.11,1.19,5.48,0-1.37-2.38-1.37-2.38Z"/><path class="cls-1" d="M17.41,30.28s-1.37,2.39,0,2.39,4.1,1.19,5.47,0-1.37-2.39-1.37-2.39Z"/><path class="cls-2" d="M7.09,21.58s-2.66,9.75-.89,9.75h7.09L15.06,20.7Z"/><path class="cls-2" d="M14.17,19.81s0,11.52,1.77,11.52a42.73,42.73,0,0,0,6.2-1l-1.77-8.37Z"/><path class="cls-3" d="M11.78,9.82S-.89,14.5.89,16.27s0,2.66,1.77,1.77,6.2-2.66,6.2-2.66l-1.77,6.2,14.17.89V15.38h7.08V12.73Z"/><circle class="cls-4" cx="15.06" cy="5.64" r="5.31"/><path class="cls-1" d="M18.7,1.78s-9.84,6.52-9,3.86S10.83-3,18.7,1.78Z"/><circle class="cls-4" cx="2.21" cy="16.71" r="2.21"/><circle class="cls-4" cx="28.79" cy="14.06" r="2.21"/></g></g></svg>