<svg xmlns="http://www.w3.org/2000/svg" viewBox="0 0 20.18 33.05"><defs><style>.cls-1{fill:#86c6ff;}.cls-2{fill:#ba221b;}.cls-3{fill:#fff0cd;}.cls-4{fill:#2f2f2f;}</style></defs><title>资源 5</title><g id="图层_2" data-name="图层 2"><g id="图层_1-2" data-name="图层 1"><path class="cls-1" d="M7.62,23.78S10,31,11,31a22.69,22.69,0,0,0,4-1l-2-8Z"/><path class="cls-1" d="M2.69,22.24s-1.34,8.07,0,8.07h4l.89-6.53Z"/><path class="cls-2" d="M4,11.47S0,19.55,2.69,22.24s10.76,1.34,10.76,0a58.35,58.35,0,0,0-1.34-6.73l6.72-2.69s0-2.69-1.34-2.69S4,11.47,4,11.47Z"/><ellipse class="cls-3" cx="6.73" cy="6.77" rx="4.71" ry="5.38"/><path class="cls-4" d="M8.64,1.85,4.31,11.38S0,12.82,0,8.78,6.51-3.74,8.64,1.85Z"/><circle class="cls-3" cx="18.83" cy="11.47" r="1.35"/><path class="cls-4" d="M2.66,30.31s-1.27,2.2,0,2.2,3.79,1.1,5.06,0-1.27-2.2-1.27-2.2Z"/><path class="cls-4" d="M11.34,30.93s-.42,2.5.77,2.06,3.94-.29,4.74-1.76-2-1.62-2-1.62Z"/><circle class="cls-3" cx="16.07" cy="12.58" r="1.35"/></g></g></svg>