<svg xmlns="http://www.w3.org/2000/svg" viewBox="0 0 23 32.98"><defs><style>.cls-1{fill:#2f2f2f;}.cls-2{fill:#ef8fb9;}.cls-3{fill:#ffefcc;}</style></defs><title>资源 18</title><g id="图层_2" data-name="图层 2"><g id="图层_1-2" data-name="图层 1"><path class="cls-1" d="M5.66,30s-1.36,2.38,0,2.38,4.11,1.19,5.48,0S9.77,30,9.77,30Z"/><path class="cls-1" d="M6.52,30.47s-1,2.06,0,2.06,3.14,1,4.19,0-1.05-2.06-1.05-2.06Z"/><path class="cls-1" d="M13.52,30s-1,2.06,0,2.06,3.14,1,4.19,0S16.66,30,16.66,30Z"/><path class="cls-2" d="M11,9.21a4.12,4.12,0,0,0-4,2.41C5.31,16.07,2.3,25.27,4.09,29c1.55,3.21,7,2.71,10.79,1.94,2.09-.42,3.41-2.12,3.06-3.88l-3-15a3.94,3.94,0,0,0-4-2.86Z"/><circle class="cls-3" cx="11" cy="5" r="5"/><path class="cls-1" d="M11,0S8,14,5,12,4,0,11,0Z"/><polygon class="cls-2" points="12.57 10.28 21 18 20 21 13.42 15.43 12.57 10.28"/><polygon class="cls-2" points="13.23 12.41 3.18 17.85 0.67 15.92 8.09 11.53 13.23 12.41"/><circle class="cls-3" cx="21" cy="20" r="2"/><circle class="cls-3" cx="2" cy="17" r="2"/></g></g></svg>