<svg xmlns="http://www.w3.org/2000/svg" viewBox="0 0 18.96 31"><defs><style>.cls-1{fill:#2f2f2f;}.cls-2{fill:#00430c;}.cls-3{fill:#ffd00d;}.cls-4{fill:#fff0cd;}.cls-5{fill:#ffc50d;}</style></defs><title>资源 6</title><g id="图层_2" data-name="图层 2"><g id="图层_1-2" data-name="图层 1"><path class="cls-1" d="M2.49,28.47s-1.18,2.07,0,2.07,3.57,1,4.76,0-1.19-2.07-1.19-2.07Z"/><path class="cls-2" d="M2.53,20.89s-1.27,7.58,0,7.58H6.32l.84-6.13Z"/><path class="cls-3" d="M3.79,10.78S0,18.36,2.53,20.89s10.11,1.26,10.11,0a54.7,54.7,0,0,0-1.27-6.32L17.69,12s0-2.52-1.26-2.52S3.79,10.78,3.79,10.78Z"/><ellipse class="cls-4" cx="6.32" cy="6.36" rx="4.42" ry="5.06"/><path class="cls-1" d="M8.11,1.74l-4.06,9S0,12,0,8.25,6.11-3.51,8.11,1.74Z"/><circle class="cls-4" cx="17.69" cy="10.78" r="1.26"/><path class="cls-2" d="M7.16,22.34s6.74-2.71,8-1.45,1.26,5.05,1.26,5.05-1.26,2.53-2.53,1.27l-1.26-1.27H6.32Z"/><path class="cls-1" d="M13.9,27.21S19,23.42,19,25.94c0,1.47-1.28,2.09-2.35,2.34a2.46,2.46,0,0,1-2.3-.66Z"/><path class="cls-5" d="M5.06,17.1s-1.27,2.53,2.52,5c0,0-7.23,1.68-5.83-5.16"/><circle class="cls-4" cx="7.58" cy="22.15" r="1.26"/></g></g></svg>