<svg xmlns="http://www.w3.org/2000/svg" xmlns:xlink="http://www.w3.org/1999/xlink" viewBox="0 0 54.59 63.5"><defs><style>.cls-1{fill:none;}.cls-2{fill:#1c3c28;}.cls-3{fill:#5d514b;}.cls-4{fill:#2f2f2f;}.cls-5{fill:#534741;}.cls-6{isolation:isolate;}.cls-7{clip-path:url(#clip-path);}.cls-8{fill:#302926;}.cls-9{fill:#322b27;}.cls-10{fill:#332c28;}.cls-11{fill:#352d2a;}.cls-12{fill:#372f2b;}.cls-13{fill:#38302c;}.cls-14{fill:#3a322d;}.cls-15{fill:#3c332f;}.cls-16{fill:#2e2824;}.cls-17{fill:#2d2623;}.cls-18{fill:#2b2522;}.cls-19{fill:#483d38;}.cls-20{fill:#ddd;}.cls-21{fill:#888;}.cls-22{fill:#931700;}.cls-23{clip-path:url(#clip-path-2);}.cls-24{clip-path:url(#clip-path-3);}</style><clipPath id="clip-path"><path class="cls-1" d="M24,6.05,23.82,55a.29.29,0,0,1-.17.24.89.89,0,0,1-.84,0,.31.31,0,0,1-.18-.25L22.77,6a.31.31,0,0,0,.18.25.89.89,0,0,0,.84,0A.28.28,0,0,0,24,6.05Z"/></clipPath><clipPath id="clip-path-2"><path class="cls-1" d="M35,3,34.83,52a.31.31,0,0,1-.18.25.91.91,0,0,1-.85,0,.31.31,0,0,1-.18-.25L33.76,3a.31.31,0,0,0,.18.25.91.91,0,0,0,.85,0A.31.31,0,0,0,35,3Z"/></clipPath><clipPath id="clip-path-3"><path class="cls-1" d="M14,9,13.82,58a.31.31,0,0,1-.17.25.94.94,0,0,1-.85,0,.29.29,0,0,1-.17-.25L12.76,9a.31.31,0,0,0,.18.25.94.94,0,0,0,.85,0A.31.31,0,0,0,14,9Z"/></clipPath></defs><title>资源 4</title><g id="图层_2" data-name="图层 2"><g id="图层_1-2" data-name="图层 1"><polygon class="cls-2" points="2.73 57.87 2.73 59.5 2.02 59.09 2.02 57.46 2.73 57.87"/><polygon class="cls-2" points="1.73 49.87 1.73 51.5 1.02 51.09 1.02 49.46 1.73 49.87"/><polygon class="cls-3" points="54.59 16.31 52.47 17.54 51.06 16.72 53.17 15.49 54.59 16.31"/><polygon class="cls-4" points="54.59 16.31 54.53 36.28 52.42 37.5 52.47 17.54 54.59 16.31"/><polygon class="cls-5" points="52.47 17.54 52.42 37.5 51 36.69 51.06 16.72 52.47 17.54"/><polygon class="cls-5" points="14.92 12.85 13.99 13.7 13.06 12.85 13.99 12 14.92 12.85"/><polygon class="cls-4" points="2.73 57.87 52.57 28.91 52.56 30.54 2.73 59.5 2.73 57.87"/><polygon class="cls-3" points="2.02 57.46 51.86 28.5 52.57 28.91 2.73 57.87 2.02 57.46"/><polygon class="cls-5" points="24.92 9.85 23.99 10.7 23.06 9.85 23.99 9 24.92 9.85"/><g class="cls-6"><g class="cls-6"><g class="cls-7"><g class="cls-6"><polyline class="cls-8" points="23.96 6.05 23.82 54.96 23.82 54.96 23.96 6.05 23.96 6.05"/><path class="cls-9" d="M24,6.05,23.82,55v0L24,6.09v0"/><path class="cls-10" d="M24,6.09,23.82,55v0L24,6.12v0"/><path class="cls-11" d="M24,6.12,23.81,55l0,0,.14-48.91,0,0"/><path class="cls-12" d="M23.93,6.16l-.14,48.91,0,0,.14-48.91,0,0"/><path class="cls-13" d="M23.91,6.19,23.77,55.1l0,0,.14-48.91,0,0"/><path class="cls-14" d="M23.87,6.23l-.14,48.91a.18.18,0,0,1-.07,0L23.8,6.28a.18.18,0,0,0,.07,0"/><path class="cls-15" d="M23.8,6.28l-.14,48.91h0l-.13.06.14-48.91.13-.06h0"/><path class="cls-14" d="M23.66,6.35l-.14,48.91-.11,0,.13-48.91.12,0"/><path class="cls-13" d="M23.54,6.38l-.13,48.91h-.08l.14-48.91h.07"/><path class="cls-12" d="M23.47,6.39,23.33,55.3h-.07L23.4,6.39h.07"/><path class="cls-11" d="M23.4,6.39,23.26,55.3H23.2l.14-48.91h.06"/><path class="cls-10" d="M23.34,6.39,23.2,55.3h-.06l.14-48.91h.06"/><path class="cls-9" d="M23.28,6.39,23.14,55.3h-.06l.14-48.91h.06"/><path class="cls-8" d="M23.22,6.38l-.14,48.91H23l.14-48.91h.06"/><path class="cls-16" d="M23.16,6.37,23,55.28H23L23.1,6.36h.06"/><path class="cls-17" d="M23.1,6.36,23,55.27l-.07,0L23,6.33l.07,0"/><path class="cls-18" d="M23,6.33l-.14,48.91-.08,0a.31.31,0,0,1-.18-.25L22.77,6a.31.31,0,0,0,.18.25l.08,0"/></g></g></g><path class="cls-19" d="M23.79,5.8c.23.14.23.36,0,.49a.89.89,0,0,1-.84,0c-.24-.13-.24-.35,0-.49A1,1,0,0,1,23.79,5.8Z"/></g><polygon class="cls-20" points="23.3 12 20.8 10.5 23.3 3 23.3 12"/><polyline class="cls-21" points="23.3 12 25.8 10.5 23.3 3"/><path class="cls-22" d="M20.8,15s2-9,5,0L24,12.87a.85.85,0,0,0-1.33,0Z"/><polygon class="cls-5" points="35.92 6.85 34.99 7.7 34.06 6.85 34.99 6 35.92 6.85"/><g class="cls-6"><g class="cls-6"><g class="cls-23"><g class="cls-6"><polyline class="cls-8" points="34.97 3.04 34.83 51.95 34.83 51.96 34.97 3.05 34.97 3.04"/><path class="cls-9" d="M35,3.05,34.83,52s0,0,0,0L35,3.08v0"/><path class="cls-10" d="M35,3.08,34.82,52a0,0,0,0,1,0,0L35,3.12a.08.08,0,0,0,0,0"/><path class="cls-11" d="M35,3.12,34.81,52s0,0,0,0l.14-48.91v0"/><path class="cls-12" d="M34.94,3.15,34.8,52.06l0,0,.14-48.91,0,0"/><path class="cls-13" d="M34.91,3.19,34.77,52.1l0,0,.14-48.91,0,0"/><path class="cls-14" d="M34.87,3.23l-.14,48.91a.18.18,0,0,1-.07,0l.13-48.91.08,0"/><path class="cls-15" d="M34.79,3.28l-.13,48.91h0l-.14.06.14-48.91.14-.06h0"/><path class="cls-14" d="M34.65,3.35l-.14,48.91-.11,0,.14-48.91.11,0"/><path class="cls-13" d="M34.54,3.38,34.4,52.29h-.08l.14-48.91h.08"/><path class="cls-12" d="M34.46,3.39,34.32,52.3h-.07l.14-48.91h.07"/><path class="cls-11" d="M34.39,3.39,34.25,52.3h-.06l.14-48.91h.06"/><path class="cls-10" d="M34.33,3.39,34.19,52.3h0l.13-48.91h.06"/><path class="cls-9" d="M34.27,3.39,34.14,52.3h-.06l.14-48.91h.05"/><path class="cls-8" d="M34.22,3.38l-.14,48.91H34l.14-48.91h.06"/><path class="cls-16" d="M34.16,3.37,34,52.28H34L34.1,3.36h.06"/><path class="cls-17" d="M34.1,3.36,34,52.27l-.07,0L34,3.33l.07,0"/><path class="cls-18" d="M34,3.33l-.14,48.91-.09,0a.31.31,0,0,1-.18-.25L33.76,3a.31.31,0,0,0,.18.25l.09,0"/></g></g></g><path class="cls-19" d="M34.79,2.8c.24.14.23.35,0,.49a.91.91,0,0,1-.85,0c-.24-.13-.24-.35,0-.49A.91.91,0,0,1,34.79,2.8Z"/></g><polygon class="cls-20" points="34.3 9 31.8 7.5 34.3 0 34.3 9"/><polyline class="cls-21" points="34.3 9 36.8 7.5 34.3 0"/><path class="cls-22" d="M31.8,12s2-9,5,0L35,9.87a.85.85,0,0,0-1.33,0Z"/><g class="cls-6"><g class="cls-6"><g class="cls-24"><g class="cls-6"><polyline class="cls-8" points="13.96 9.04 13.82 57.95 13.82 57.96 13.96 9.05 13.96 9.04"/><path class="cls-9" d="M14,9.05,13.82,58v0L14,9.08v0"/><path class="cls-10" d="M14,9.08,13.82,58s0,0,0,0L14,9.12s0,0,0,0"/><path class="cls-11" d="M14,9.12,13.81,58l0,0,.14-48.91,0,0"/><path class="cls-12" d="M13.93,9.15l-.14,48.91a.08.08,0,0,1,0,0l.14-48.91,0,0"/><path class="cls-13" d="M13.91,9.19,13.77,58.1l0,0,.14-48.91,0,0"/><path class="cls-14" d="M13.87,9.23l-.14,48.91-.07,0,.13-48.9.08-.06"/><path class="cls-15" d="M13.79,9.29l-.13,48.9h0l-.13.06.14-48.91.13-.06h0"/><path class="cls-14" d="M13.66,9.35l-.14,48.91-.11,0,.13-48.91.12,0"/><path class="cls-13" d="M13.54,9.37l-.13,48.91h-.08l.14-48.9.07,0"/><path class="cls-12" d="M13.47,9.39l-.14,48.9h-.06L13.4,9.39h.07"/><path class="cls-11" d="M13.4,9.39,13.27,58.3h-.06l.13-48.91h.06"/><path class="cls-10" d="M13.34,9.39,13.21,58.3h-.06l.14-48.91h.05"/><path class="cls-9" d="M13.29,9.39,13.15,58.3h-.06l.14-48.91h.06"/><path class="cls-8" d="M13.23,9.38l-.14,48.91H13l.14-48.91h.06"/><path class="cls-16" d="M13.17,9.37,13,58.28l-.06,0L13.1,9.35l.07,0"/><path class="cls-17" d="M13.1,9.35,13,58.26l-.08,0L13,9.33l.07,0"/><path class="cls-18" d="M13,9.33l-.14,48.91-.09,0a.29.29,0,0,1-.17-.25L12.76,9a.31.31,0,0,0,.18.25l.09,0"/></g></g></g><path class="cls-19" d="M13.78,8.8c.24.13.24.35,0,.49a.94.94,0,0,1-.85,0c-.23-.14-.24-.35,0-.49A.89.89,0,0,1,13.78,8.8Z"/></g><polygon class="cls-4" points="2.73 50.87 52.57 21.91 52.56 23.54 2.73 52.5 2.73 50.87"/><polygon class="cls-3" points="2.02 50.46 51.86 21.5 52.57 21.91 2.73 50.87 2.02 50.46"/><polygon class="cls-3" points="3.59 42.31 1.47 43.54 0.06 42.72 2.17 41.49 3.59 42.31"/><polygon class="cls-4" points="3.59 42.31 3.53 62.28 1.42 63.5 1.47 43.54 3.59 42.31"/><polygon class="cls-5" points="1.47 43.54 1.42 63.5 0 62.69 0.06 42.72 1.47 43.54"/><polygon class="cls-20" points="13.29 15 10.79 13.5 13.29 6 13.29 15"/><polyline class="cls-21" points="13.29 15 15.79 13.5 13.29 6"/><path class="cls-22" d="M10.8,18s2-9,5,0L14,15.87a.85.85,0,0,0-1.33,0Z"/></g></g></svg>