<svg xmlns="http://www.w3.org/2000/svg" xmlns:xlink="http://www.w3.org/1999/xlink" viewBox="0 0 470.5 374"><defs><style>.cls-1{fill:#534741;}.cls-2{fill:#ddd;}.cls-3{fill:#6bbdb7;}.cls-4{fill:#5d514b;}.cls-5{fill:#34564a;}.cls-6{fill:#346953;}.cls-7{fill:#96392b;}.cls-8{fill:#ddd4dd;}.cls-9{fill:#866765;}.cls-10{fill:#966;}.cls-11{fill:#888;}.cls-12,.cls-41{fill:none;}.cls-12{stroke:#534741;stroke-miterlimit:10;stroke-width:1.2px;}.cls-13{fill:#672922;}.cls-14{fill:#2f2f2f;}.cls-15{fill:#401a15;}.cls-16{isolation:isolate;}.cls-17{clip-path:url(#clip-path);}.cls-18{clip-path:url(#clip-path-2);}.cls-19{clip-path:url(#clip-path-3);}.cls-20{clip-path:url(#clip-path-4);}.cls-21{clip-path:url(#clip-path-5);}.cls-22{clip-path:url(#clip-path-6);}.cls-23{clip-path:url(#clip-path-7);}.cls-24{clip-path:url(#clip-path-8);}.cls-25{clip-path:url(#clip-path-9);}.cls-26{clip-path:url(#clip-path-10);}.cls-27{clip-path:url(#clip-path-11);}.cls-28{clip-path:url(#clip-path-12);}.cls-29{clip-path:url(#clip-path-13);}.cls-30{clip-path:url(#clip-path-14);}.cls-31{clip-path:url(#clip-path-15);}.cls-32{clip-path:url(#clip-path-16);}.cls-33{clip-path:url(#clip-path-17);}.cls-34{clip-path:url(#clip-path-18);}.cls-35{clip-path:url(#clip-path-19);}.cls-36{clip-path:url(#clip-path-20);}.cls-37{clip-path:url(#clip-path-21);}.cls-38{clip-path:url(#clip-path-22);}.cls-39{fill:#3d433d;}.cls-40{fill:#3d3d3d;}.cls-41{stroke:#333;stroke-linecap:round;stroke-linejoin:round;stroke-width:2.4px;}.cls-42{fill:#333;}.cls-43{fill:#212121;}.cls-44{fill:#353535;}</style><clipPath id="clip-path"><path class="cls-1" d="M312.35,108.57l2.54-1.47c2.77,10.32.54,17.49.43,17.87l-2.54,1.48C312.9,126.07,315.13,118.89,312.35,108.57Z"/></clipPath><clipPath id="clip-path-2"><path class="cls-1" d="M301.75,114.9l2.53-1.47c2.77,10.32.55,17.5.43,17.87l-2.54,1.48C302.29,132.4,304.51,125.22,301.75,114.9Z"/></clipPath><clipPath id="clip-path-3"><path class="cls-1" d="M291.14,121.23l2.54-1.47c2.76,10.33.54,17.5.42,17.87l-2.53,1.48C291.68,138.73,293.91,131.56,291.14,121.23Z"/></clipPath><clipPath id="clip-path-4"><path class="cls-1" d="M280.53,127.58l2.54-1.48c2.77,10.32.54,17.5.43,17.87L281,145.45C281.08,145.07,283.3,137.89,280.53,127.58Z"/></clipPath><clipPath id="clip-path-5"><path class="cls-1" d="M269.92,133.9l2.54-1.47c2.77,10.32.55,17.5.43,17.87l-2.54,1.48C270.47,151.4,272.69,144.22,269.92,133.9Z"/></clipPath><clipPath id="clip-path-6"><path class="cls-1" d="M259.31,140.24l2.54-1.47c2.77,10.31.54,17.49.43,17.87l-2.54,1.47C259.86,157.74,262.08,150.56,259.31,140.24Z"/></clipPath><clipPath id="clip-path-7"><path class="cls-1" d="M248.71,146.57l2.54-1.47c2.76,10.31.54,17.49.42,17.87l-2.54,1.47C249.25,164.07,251.47,156.89,248.71,146.57Z"/></clipPath><clipPath id="clip-path-8"><path class="cls-1" d="M238.1,152.91l2.54-1.47c2.76,10.31.54,17.49.43,17.87l-2.54,1.47C238.65,170.4,240.87,163.23,238.1,152.91Z"/></clipPath><clipPath id="clip-path-9"><path class="cls-1" d="M227.49,159.24l2.54-1.48c2.77,10.32.55,17.5.43,17.88l-2.54,1.47C228,176.74,230.26,169.56,227.49,159.24Z"/></clipPath><clipPath id="clip-path-10"><path class="cls-1" d="M216.88,165.57l2.54-1.48c2.77,10.33.55,17.5.43,17.88l-2.53,1.47C217.43,183.07,219.65,175.9,216.88,165.57Z"/></clipPath><clipPath id="clip-path-11"><path class="cls-1" d="M206.24,170.71l2.54-1.47c2.76,10.31.54,17.49.42,17.87l-2.53,1.47C206.78,188.21,209,181,206.24,170.71Z"/></clipPath><clipPath id="clip-path-12"><path class="cls-1" d="M180.35,185.37l2.54-1.47c2.77,10.32.54,17.49.43,17.87l-2.54,1.48C180.9,202.87,183.13,195.69,180.35,185.37Z"/></clipPath><clipPath id="clip-path-13"><path class="cls-1" d="M169.75,191.7l2.53-1.47c2.77,10.32.55,17.5.43,17.87l-2.54,1.48C170.29,209.2,172.51,202,169.75,191.7Z"/></clipPath><clipPath id="clip-path-14"><path class="cls-1" d="M159.14,198l2.54-1.47c2.76,10.33.54,17.5.42,17.87l-2.53,1.48C159.68,215.53,161.91,208.36,159.14,198Z"/></clipPath><clipPath id="clip-path-15"><path class="cls-1" d="M148.53,204.38l2.54-1.48c2.77,10.32.54,17.5.43,17.87L149,222.25C149.08,221.87,151.3,214.69,148.53,204.38Z"/></clipPath><clipPath id="clip-path-16"><path class="cls-1" d="M137.92,210.7l2.54-1.47c2.77,10.32.55,17.5.43,17.87l-2.54,1.48C138.47,228.2,140.69,221,137.92,210.7Z"/></clipPath><clipPath id="clip-path-17"><path class="cls-1" d="M127.31,217l2.54-1.47c2.77,10.31.54,17.49.43,17.87l-2.54,1.47C127.86,234.54,130.08,227.36,127.31,217Z"/></clipPath><clipPath id="clip-path-18"><path class="cls-1" d="M116.71,223.37l2.54-1.47c2.76,10.31.54,17.49.42,17.87l-2.54,1.47C117.25,240.87,119.47,233.69,116.71,223.37Z"/></clipPath><clipPath id="clip-path-19"><path class="cls-1" d="M106.1,229.71l2.54-1.47c2.76,10.31.54,17.49.43,17.87l-2.54,1.47C106.65,247.2,108.87,240,106.1,229.71Z"/></clipPath><clipPath id="clip-path-20"><path class="cls-1" d="M95.49,236,98,234.56c2.77,10.32.55,17.5.43,17.88l-2.54,1.47C96,253.54,98.26,246.36,95.49,236Z"/></clipPath><clipPath id="clip-path-21"><path class="cls-1" d="M84.88,242.37l2.54-1.48c2.77,10.33.55,17.5.43,17.88l-2.53,1.47C85.43,259.87,87.65,252.7,84.88,242.37Z"/></clipPath><clipPath id="clip-path-22"><path class="cls-1" d="M74.24,247.51,76.78,246c2.76,10.31.54,17.49.42,17.87l-2.53,1.47C74.78,265,77,257.83,74.24,247.51Z"/></clipPath></defs><title>资源 8</title><g id="图层_2" data-name="图层 2"><g id="图层_1-2" data-name="图层 1"><path class="cls-2" d="M432.31,115.26c13.52,9.45,20.6,25.17,16.23,50.17-12.45,71.18,34.76,97.81-44.29,124.67-68.82,23.38-256.66,106.47-336.09,51a77.61,77.61,0,0,1-27.47-34.55C39.05,302.43,8,225,132.5,193.59S266,118.4,323.28,108.33C360.45,101.8,407.35,97.82,432.31,115.26Z"/><path class="cls-3" d="M421.64,121.83c12.75,8.91,19.43,23.75,15.31,47.33-11.75,67.15,32.79,92.27-41.78,117.61C330.24,308.83,153,387.22,78.1,334.85a73.28,73.28,0,0,1-25.92-32.6c-1.54-3.84-30.86-76.88,86.61-106.52s125.92-70.94,180-80.44C353.84,109.13,398.09,105.38,421.64,121.83Z"/><path class="cls-4" d="M443.49,120.14s-4.55,24.32-2.33,22.12,8.83-.85,8.83-.85-3.93-15.55-3.7-21.54Z"/><path class="cls-5" d="M463.26,114.55a10.06,10.06,0,0,0,5.74-4.42,10.16,10.16,0,0,0-12.11-14.86A10.16,10.16,0,0,0,438.06,90a10.35,10.35,0,0,0-.85,1.74,10.16,10.16,0,0,0-8.31,18.38,10.78,10.78,0,0,0,1,.54,9,9,0,0,0-.65.93,10.17,10.17,0,0,0,16,12.32,10.16,10.16,0,0,0,18-9.32Z"/><path class="cls-6" d="M445.29,123.87a10.16,10.16,0,0,0,18-9.32,10.06,10.06,0,0,0,5.74-4.42,10.16,10.16,0,0,0-12.11-14.86A10.15,10.15,0,0,0,452,86.59s-11.86,14.21-3.73,20.63S445.29,123.87,445.29,123.87Z"/><path class="cls-4" d="M378.69,76.94s-4.55,24.32-2.33,22.12,8.83-.85,8.83-.85-3.93-15.55-3.7-21.54Z"/><path class="cls-5" d="M398.46,71.35a10.06,10.06,0,0,0,5.74-4.42,10.16,10.16,0,0,0-12.11-14.86,10.16,10.16,0,0,0-18.83-5.31,10.35,10.35,0,0,0-.85,1.74,10.16,10.16,0,0,0-8.31,18.38,10.78,10.78,0,0,0,1,.54,9,9,0,0,0-.65.93,10.17,10.17,0,0,0,16,12.32,10.16,10.16,0,0,0,18-9.32Z"/><path class="cls-6" d="M380.49,80.67a10.16,10.16,0,0,0,18-9.32,10.06,10.06,0,0,0,5.74-4.42,10.16,10.16,0,0,0-12.11-14.86,10.15,10.15,0,0,0-4.86-8.68s-9.65,16.46-3.83,21.16S380.49,80.67,380.49,80.67Z"/><path class="cls-4" d="M439.89,252.14s-4.55,24.32-2.33,22.12,8.83-.85,8.83-.85-3.93-15.55-3.7-21.54Z"/><path class="cls-5" d="M459.66,246.55a10.06,10.06,0,0,0,5.74-4.42,10.16,10.16,0,0,0-12.11-14.86A10.16,10.16,0,0,0,434.46,222a10.35,10.35,0,0,0-.85,1.74,10.16,10.16,0,0,0-8.31,18.38,10.78,10.78,0,0,0,1,.54,9,9,0,0,0-.65.93,10.17,10.17,0,0,0,16,12.32,10.16,10.16,0,0,0,18-9.32Z"/><path class="cls-6" d="M441.69,255.87a10.16,10.16,0,0,0,18-9.32,10.06,10.06,0,0,0,5.74-4.42,10.16,10.16,0,0,0-12.11-14.86,10.15,10.15,0,0,0-4.86-8.68s-9.65,16.46-3.83,21.16S441.69,255.87,441.69,255.87Z"/><path class="cls-4" d="M323.49,318.14s-4.55,24.32-2.33,22.12,8.83-.85,8.83-.85-3.93-15.55-3.7-21.54Z"/><path class="cls-4" d="M148.29,351.74s-4.55,24.32-2.33,22.12,8.83-.85,8.83-.85-3.93-15.55-3.7-21.54Z"/><path class="cls-5" d="M343.26,312.55a10.06,10.06,0,0,0,5.74-4.42,10.16,10.16,0,0,0-12.11-14.86A10.16,10.16,0,0,0,318.06,288a10.35,10.35,0,0,0-.85,1.74,10.16,10.16,0,0,0-8.31,18.38,10.78,10.78,0,0,0,1,.54,9,9,0,0,0-.65.93,10.17,10.17,0,0,0,16,12.32,10.16,10.16,0,0,0,18-9.32Z"/><path class="cls-6" d="M325.29,321.87a10.16,10.16,0,0,0,18-9.32,10.06,10.06,0,0,0,5.74-4.42,10.16,10.16,0,0,0-12.11-14.86,10.15,10.15,0,0,0-4.86-8.68s-9.65,16.46-3.83,21.16S325.29,321.87,325.29,321.87Z"/><path class="cls-5" d="M166.86,346.15a10.06,10.06,0,0,0,5.74-4.42,10.16,10.16,0,0,0-12.11-14.86,10.16,10.16,0,0,0-18.83-5.31,10.35,10.35,0,0,0-.85,1.74,10.16,10.16,0,0,0-8.31,18.38,10.78,10.78,0,0,0,1,.54,9,9,0,0,0-.65.93,10.17,10.17,0,0,0,16,12.32,10.16,10.16,0,0,0,18-9.32Z"/><path class="cls-6" d="M148.89,355.47a10.16,10.16,0,0,0,18-9.32,10.06,10.06,0,0,0,5.74-4.42,10.16,10.16,0,0,0-12.11-14.86,10.15,10.15,0,0,0-4.86-8.68s-9,11.75-3.51,19.4S148.89,355.47,148.89,355.47Z"/><polygon class="cls-7" points="297.2 55.49 297.29 87.77 170.46 161 170.37 128.72 297.2 55.49"/><polygon class="cls-8" points="352.79 108.42 51.7 283.39 11.69 260.29 312.78 85.32 352.79 108.42"/><polygon class="cls-9" points="352.79 108.42 352.76 118.21 51.67 293.18 51.7 283.39 352.79 108.42"/><polygon class="cls-10" points="51.7 283.39 51.67 293.18 11.67 270.08 11.69 260.29 51.7 283.39"/><polygon class="cls-11" points="14.72 207.32 14.72 262.45 316.03 87.25 316.03 40.45 14.72 207.32"/><polygon class="cls-2" points="291.91 53.65 292.03 93.95 170.03 162.71 169.91 122.4 291.91 53.65"/><polygon class="cls-12" points="285.82 54.3 285.92 90.58 176.12 152.46 176.02 116.18 285.82 54.3"/><polygon class="cls-13" points="332.02 44.56 326.95 47.51 321.85 44.57 326.92 41.62 332.02 44.56"/><polygon class="cls-14" points="332.02 44.56 331.82 117.93 326.74 120.88 326.95 47.51 332.02 44.56"/><polygon class="cls-1" points="326.95 47.51 326.74 120.88 321.64 117.93 321.85 44.57 326.95 47.51"/><polygon class="cls-15" points="315.37 115.2 315.41 117.19 313.71 116.27 313.66 114.28 315.37 115.2"/><polygon class="cls-1" points="315.37 115.2 323.82 110.29 323.87 112.28 315.41 117.19 315.37 115.2"/><polygon class="cls-4" points="313.66 114.28 322.12 109.36 323.82 110.29 315.37 115.2 313.66 114.28"/><path class="cls-14" d="M312.35,108.57c2.78,10.32.55,17.5.43,17.88l-2.55-1.39c1.56-5-.33-17.23-.43-17.87Z"/><g class="cls-16"><path class="cls-1" d="M312.35,108.57l2.54-1.47c2.77,10.32.54,17.49.43,17.87l-2.54,1.48C312.9,126.07,315.13,118.89,312.35,108.57Z"/><g class="cls-17"><g class="cls-16"><path class="cls-1" d="M312.35,108.57l2.54-1.47.21.8-2.54,1.48q-.09-.41-.21-.81"/><path class="cls-1" d="M312.56,109.38l2.54-1.48c.1.39.19.78.27,1.16l-2.54,1.47c-.08-.38-.17-.76-.27-1.15"/><path class="cls-1" d="M312.83,110.53l2.54-1.47c.08.39.16.77.23,1.16l-2.53,1.47c-.08-.38-.15-.77-.24-1.16"/><path class="cls-1" d="M313.07,111.69l2.53-1.47c.08.39.14.78.21,1.17l-2.54,1.47c-.06-.38-.13-.77-.2-1.17"/><path class="cls-1" d="M313.27,112.86l2.54-1.47c.06.4.11.79.16,1.18L313.44,114c-.05-.38-.11-.78-.17-1.18"/><path class="cls-1" d="M313.44,114l2.53-1.47c0,.41.1.8.14,1.2l-2.54,1.47c0-.39-.08-.79-.13-1.2"/><path class="cls-1" d="M313.57,115.24l2.54-1.47c0,.41.07.81.09,1.21l-2.53,1.47c0-.39-.06-.8-.1-1.21"/><path class="cls-1" d="M313.67,116.45,316.2,115c0,.42.05.84.06,1.24l-2.54,1.47c0-.4,0-.81-.05-1.24"/><path class="cls-1" d="M313.72,117.69l2.54-1.47c0,.43,0,.85,0,1.26L313.74,119c0-.41,0-.83,0-1.26"/><path class="cls-1" d="M313.74,119l2.54-1.47c0,.44,0,.87,0,1.28l-2.54,1.48c0-.42,0-.84,0-1.29"/><path class="cls-1" d="M313.71,120.24l2.54-1.48c0,.47-.05.91-.09,1.33l-2.53,1.47c0-.42.06-.86.08-1.32"/><path class="cls-1" d="M313.63,121.56l2.53-1.47c0,.47-.08.91-.13,1.32l-2.54,1.47c.05-.41.1-.85.14-1.32"/><path class="cls-1" d="M313.49,122.88l2.54-1.47c-.06.48-.13.92-.2,1.31l-2.54,1.48c.07-.39.14-.83.2-1.32"/><path class="cls-1" d="M313.29,124.2l2.54-1.48c-.08.47-.16.88-.24,1.2l-2.54,1.48q.12-.5.24-1.2"/><path class="cls-1" d="M313.05,125.4l2.54-1.48c-.1.43-.18.74-.23.91l-2.54,1.47c.05-.17.14-.47.23-.9"/><path class="cls-1" d="M312.82,126.3l2.54-1.47a1.19,1.19,0,0,0,0,.14l-2.54,1.48,0-.15"/></g></g></g><polygon class="cls-4" points="309.8 107.19 312.34 105.71 314.89 107.1 312.36 108.57 309.8 107.19"/><polygon class="cls-15" points="304.57 121.2 304.61 123.19 302.91 122.27 302.86 120.28 304.57 121.2"/><polygon class="cls-1" points="304.57 121.2 313.02 116.29 313.07 118.28 304.61 123.19 304.57 121.2"/><polygon class="cls-4" points="302.86 120.28 311.31 115.36 313.02 116.29 304.57 121.2 302.86 120.28"/><path class="cls-14" d="M301.75,114.9c2.76,10.32.54,17.5.42,17.88l-2.55-1.39c1.56-5-.32-17.23-.42-17.87Z"/><g class="cls-16"><path class="cls-1" d="M301.75,114.9l2.53-1.47c2.77,10.32.55,17.5.43,17.87l-2.54,1.48C302.29,132.4,304.51,125.22,301.75,114.9Z"/><g class="cls-18"><g class="cls-16"><path class="cls-1" d="M301.75,114.9l2.53-1.47c.08.26.14.52.21.78L302,115.69c-.06-.26-.13-.52-.2-.79"/><path class="cls-1" d="M302,115.69l2.54-1.48.27,1.16-2.54,1.47c-.08-.38-.17-.76-.27-1.15"/><path class="cls-1" d="M302.22,116.84l2.54-1.47c.08.39.16.78.23,1.16L302.45,118c-.07-.38-.15-.77-.23-1.16"/><path class="cls-1" d="M302.45,118l2.54-1.47c.08.4.14.79.2,1.17l-2.53,1.48c-.06-.39-.13-.78-.21-1.18"/><path class="cls-1" d="M302.66,119.18l2.53-1.48c.07.4.12.8.17,1.19l-2.54,1.47c0-.39-.1-.78-.16-1.18"/><path class="cls-1" d="M302.82,120.36l2.54-1.47c.05.4.1.81.13,1.2L303,121.56c0-.39-.08-.79-.14-1.2"/><path class="cls-1" d="M303,121.56l2.53-1.47c0,.41.08.82.1,1.21l-2.54,1.48c0-.4-.05-.8-.09-1.22"/><path class="cls-1" d="M303.05,122.78l2.54-1.48c0,.43.05.84.06,1.24L303.11,124c0-.4,0-.82-.06-1.24"/><path class="cls-1" d="M303.11,124l2.54-1.48c0,.44,0,.86,0,1.27l-2.53,1.47c0-.4,0-.83,0-1.26"/><path class="cls-1" d="M303.13,125.28l2.53-1.47c0,.45,0,.87,0,1.29l-2.53,1.47c0-.41,0-.84,0-1.29"/><path class="cls-1" d="M303.1,126.57l2.53-1.47c0,.46,0,.91-.08,1.33L303,127.9c0-.42.06-.86.08-1.33"/><path class="cls-1" d="M303,127.9l2.53-1.47c0,.47-.08.91-.13,1.32l-2.54,1.48c.05-.41.1-.86.14-1.33"/><path class="cls-1" d="M302.88,129.23l2.54-1.48c-.07.49-.13.93-.2,1.32l-2.54,1.47c.07-.39.14-.83.2-1.31"/><path class="cls-1" d="M302.68,130.54l2.54-1.47q-.12.7-.24,1.2l-2.54,1.48c.08-.33.16-.74.24-1.21"/><path class="cls-1" d="M302.44,131.75l2.54-1.48c-.1.43-.18.73-.23.9l-2.54,1.47c.05-.16.14-.47.23-.89"/><path class="cls-1" d="M302.21,132.64l2.54-1.47a1.11,1.11,0,0,1,0,.13l-2.54,1.48s0-.07,0-.14"/></g></g></g><polygon class="cls-4" points="299.2 113.52 301.73 112.05 304.29 113.43 301.75 114.9 299.2 113.52"/><polygon class="cls-15" points="293.95 127.53 294 129.53 292.3 128.6 292.25 126.61 293.95 127.53"/><polygon class="cls-1" points="293.95 127.53 302.41 122.62 302.46 124.61 294 129.53 293.95 127.53"/><polygon class="cls-4" points="292.25 126.61 300.71 121.7 302.41 122.62 293.95 127.53 292.25 126.61"/><path class="cls-14" d="M291.14,121.23c2.77,10.33.54,17.5.43,17.88L289,137.73c1.55-5-.33-17.23-.43-17.87Z"/><g class="cls-16"><path class="cls-1" d="M291.14,121.23l2.54-1.47c2.76,10.33.54,17.5.42,17.87l-2.53,1.48C291.68,138.73,293.91,131.56,291.14,121.23Z"/><g class="cls-19"><g class="cls-16"><path class="cls-1" d="M291.14,121.23l2.54-1.47c.07.26.14.52.2.78L291.34,122c-.06-.26-.13-.52-.2-.78"/><path class="cls-1" d="M291.34,122l2.54-1.47c.1.39.19.77.27,1.15l-2.54,1.48c-.08-.38-.17-.77-.27-1.16"/><path class="cls-1" d="M291.61,123.17l2.54-1.48c.08.39.16.78.23,1.17l-2.53,1.47c-.07-.38-.15-.77-.24-1.16"/><path class="cls-1" d="M291.85,124.33l2.53-1.47c.08.39.15.79.21,1.17l-2.54,1.48c-.06-.39-.13-.78-.2-1.18"/><path class="cls-1" d="M292.05,125.51l2.54-1.48c.06.4.12.8.17,1.19l-2.54,1.47c-.05-.39-.11-.78-.17-1.18"/><path class="cls-1" d="M292.22,126.69l2.54-1.47c.05.41.09.81.13,1.2l-2.54,1.47c0-.39-.08-.79-.13-1.2"/><path class="cls-1" d="M292.35,127.89l2.54-1.47c0,.42.07.82.1,1.22l-2.54,1.47c0-.39-.06-.8-.1-1.22"/><path class="cls-1" d="M292.45,129.11l2.54-1.47c0,.42,0,.84.05,1.24l-2.53,1.47c0-.4,0-.81-.06-1.24"/><path class="cls-1" d="M292.51,130.35l2.53-1.47c0,.43,0,.85,0,1.26l-2.54,1.48c0-.41,0-.83,0-1.27"/><path class="cls-1" d="M292.52,131.62l2.54-1.48q0,.68,0,1.29l-2.54,1.47c0-.41,0-.84,0-1.28"/><path class="cls-1" d="M292.49,132.9l2.54-1.47c0,.47,0,.91-.08,1.33l-2.54,1.47c0-.42.06-.86.08-1.33"/><path class="cls-1" d="M292.41,134.23l2.54-1.47c0,.47-.09.91-.14,1.32l-2.54,1.48c.05-.41.1-.85.14-1.33"/><path class="cls-1" d="M292.27,135.56l2.54-1.48c-.06.49-.13.93-.2,1.32l-2.53,1.47c.07-.39.13-.83.19-1.31"/><path class="cls-1" d="M292.08,136.87l2.53-1.47c-.08.47-.16.87-.23,1.2l-2.54,1.47c.07-.33.16-.73.24-1.2"/><path class="cls-1" d="M291.84,138.07l2.54-1.47c-.1.43-.19.73-.23.9L291.61,139c.05-.17.13-.47.23-.9"/><path class="cls-1" d="M291.61,139l2.54-1.47,0,.13-2.53,1.48a.82.82,0,0,1,0-.14"/></g></g></g><polygon class="cls-4" points="288.59 119.86 291.13 118.38 293.68 119.76 291.14 121.23 288.59 119.86"/><polygon class="cls-15" points="283.35 133.87 283.39 135.86 281.69 134.94 281.64 132.95 283.35 133.87"/><polygon class="cls-1" points="283.35 133.87 291.8 128.96 291.85 130.94 283.39 135.86 283.35 133.87"/><polygon class="cls-4" points="281.64 132.95 290.1 128.04 291.8 128.96 283.35 133.87 281.64 132.95"/><path class="cls-14" d="M280.53,127.58c2.77,10.31.55,17.49.43,17.87l-2.55-1.39c1.56-5-.33-17.23-.43-17.87Z"/><g class="cls-16"><path class="cls-1" d="M280.53,127.58l2.54-1.48c2.77,10.32.54,17.5.43,17.87L281,145.45C281.08,145.07,283.3,137.89,280.53,127.58Z"/><g class="cls-20"><g class="cls-16"><path class="cls-1" d="M280.53,127.58l2.54-1.48c.07.26.14.52.2.78l-2.53,1.48c-.07-.26-.13-.52-.21-.78"/><path class="cls-1" d="M280.74,128.36l2.53-1.48c.1.39.19.78.27,1.16L281,129.51l-.27-1.15"/><path class="cls-1" d="M281,129.51l2.53-1.47c.09.39.17.78.24,1.16l-2.54,1.47c-.07-.38-.15-.77-.23-1.16"/><path class="cls-1" d="M281.24,130.67l2.54-1.47c.07.4.14.79.2,1.17l-2.54,1.48c-.06-.39-.12-.78-.2-1.18"/><path class="cls-1" d="M281.44,131.85l2.54-1.48c.06.41.12.8.17,1.19L281.61,133c-.05-.39-.1-.78-.17-1.18"/><path class="cls-1" d="M281.61,133l2.54-1.47c.05.41.09.81.13,1.2l-2.54,1.47c0-.39-.08-.79-.13-1.2"/><path class="cls-1" d="M281.74,134.23l2.54-1.47c0,.41.07.82.1,1.22l-2.54,1.47c0-.4-.06-.8-.1-1.22"/><path class="cls-1" d="M281.84,135.45l2.54-1.47c0,.42,0,.83.06,1.23l-2.54,1.48c0-.4,0-.82-.06-1.24"/><path class="cls-1" d="M281.9,136.69l2.54-1.48c0,.44,0,.86,0,1.27L281.91,138c0-.4,0-.83,0-1.26"/><path class="cls-1" d="M281.91,138l2.54-1.47q0,.68,0,1.29l-2.54,1.47q0-.62,0-1.29"/><path class="cls-1" d="M281.88,139.24l2.54-1.47c0,.46-.05.91-.08,1.33l-2.54,1.47c0-.42.06-.86.08-1.33"/><path class="cls-1" d="M281.8,140.57l2.54-1.47c0,.47-.09.91-.14,1.32l-2.53,1.48c.05-.41.09-.86.13-1.33"/><path class="cls-1" d="M281.67,141.9l2.53-1.48c-.06.49-.12.93-.19,1.32l-2.54,1.47c.07-.39.13-.83.2-1.31"/><path class="cls-1" d="M281.47,143.21l2.54-1.47c-.08.47-.17.87-.24,1.2l-2.54,1.48c.08-.33.16-.74.24-1.21"/><path class="cls-1" d="M281.23,144.42l2.54-1.48c-.1.43-.18.73-.23.9L281,145.31c.05-.16.13-.47.23-.89"/><path class="cls-1" d="M281,145.31l2.54-1.47a1.28,1.28,0,0,0,0,.13L281,145.45s0-.07,0-.14"/></g></g></g><polygon class="cls-4" points="277.98 126.19 280.51 124.71 283.07 126.1 280.54 127.58 277.98 126.19"/><polygon class="cls-15" points="272.74 140.2 272.79 142.19 271.09 141.26 271.04 139.28 272.74 140.2"/><polygon class="cls-1" points="272.74 140.2 281.2 135.28 281.25 137.27 272.79 142.19 272.74 140.2"/><polygon class="cls-4" points="271.04 139.28 279.5 134.36 281.2 135.28 272.74 140.2 271.04 139.28"/><path class="cls-14" d="M269.92,133.9c2.77,10.32.55,17.5.43,17.88l-2.55-1.38c1.56-5-.33-17.23-.43-17.88Z"/><g class="cls-16"><path class="cls-1" d="M269.92,133.9l2.54-1.47c2.77,10.32.55,17.5.43,17.87l-2.54,1.48C270.47,151.4,272.69,144.22,269.92,133.9Z"/><g class="cls-21"><g class="cls-16"><path class="cls-1" d="M269.92,133.9l2.54-1.47.21.8-2.54,1.48-.21-.81"/><path class="cls-1" d="M270.13,134.71l2.54-1.48.27,1.16-2.54,1.47c-.08-.38-.17-.76-.27-1.15"/><path class="cls-1" d="M270.4,135.86l2.54-1.47c.08.39.16.78.23,1.16L270.63,137c-.07-.38-.15-.77-.23-1.16"/><path class="cls-1" d="M270.63,137l2.54-1.47c.08.39.14.79.2,1.17l-2.53,1.48c-.06-.39-.13-.78-.21-1.18"/><path class="cls-1" d="M270.84,138.2l2.53-1.48c.07.4.12.8.17,1.18L271,139.38c0-.39-.1-.78-.16-1.18"/><path class="cls-1" d="M271,139.38l2.54-1.48c0,.41.1.81.13,1.2l-2.53,1.48c0-.39-.08-.79-.14-1.2"/><path class="cls-1" d="M271.14,140.58l2.53-1.48c0,.42.08.82.1,1.22l-2.54,1.48c0-.4-.05-.81-.09-1.22"/><path class="cls-1" d="M271.23,141.8l2.54-1.48c0,.42.05.84.06,1.24L271.29,143q0-.6-.06-1.23"/><path class="cls-1" d="M271.29,143l2.54-1.47c0,.43,0,.85,0,1.26l-2.53,1.48c0-.41,0-.83,0-1.27"/><path class="cls-1" d="M271.31,144.3l2.53-1.48q0,.68,0,1.29l-2.53,1.47c0-.41,0-.84,0-1.28"/><path class="cls-1" d="M271.28,145.58l2.53-1.47c0,.46,0,.91-.08,1.33l-2.53,1.47c0-.42.06-.86.08-1.33"/><path class="cls-1" d="M271.2,146.91l2.53-1.47c0,.47-.08.91-.13,1.32l-2.54,1.48c.05-.41.1-.86.14-1.33"/><path class="cls-1" d="M271.06,148.24l2.54-1.48c-.06.48-.13.92-.2,1.31l-2.54,1.48c.07-.39.14-.83.2-1.31"/><path class="cls-1" d="M270.86,149.55l2.54-1.48c-.08.47-.16.88-.24,1.2l-2.54,1.48q.12-.5.24-1.2"/><path class="cls-1" d="M270.62,150.75l2.54-1.48c-.1.43-.18.73-.23.9l-2.54,1.47c.05-.16.14-.46.23-.89"/><path class="cls-1" d="M270.39,151.64l2.54-1.47a1.11,1.11,0,0,1,0,.13l-2.54,1.48a.49.49,0,0,0,0-.14"/></g></g></g><polygon class="cls-4" points="267.37 132.52 269.91 131.05 272.46 132.43 269.92 133.9 267.37 132.52"/><polygon class="cls-15" points="262.13 146.54 262.18 148.53 260.48 147.6 260.43 145.62 262.13 146.54"/><polygon class="cls-1" points="262.13 146.54 270.59 141.62 270.64 143.61 262.18 148.53 262.13 146.54"/><polygon class="cls-4" points="260.43 145.62 268.89 140.7 270.59 141.62 262.13 146.54 260.43 145.62"/><path class="cls-14" d="M259.31,140.24c2.77,10.32.55,17.5.43,17.87l-2.55-1.38c1.56-5-.33-17.23-.43-17.87Z"/><g class="cls-16"><path class="cls-1" d="M259.31,140.24l2.54-1.47c2.77,10.31.54,17.49.43,17.87l-2.54,1.47C259.86,157.74,262.08,150.56,259.31,140.24Z"/><g class="cls-22"><g class="cls-16"><path class="cls-1" d="M259.31,140.24l2.54-1.47c.07.26.14.52.2.78L259.52,141l-.21-.78"/><path class="cls-1" d="M259.52,141l2.53-1.47c.1.39.19.77.27,1.15l-2.54,1.48c-.08-.38-.17-.77-.26-1.16"/><path class="cls-1" d="M259.78,142.18l2.54-1.48c.09.4.17.78.24,1.16L260,143.34c-.07-.38-.15-.77-.24-1.16"/><path class="cls-1" d="M260,143.34l2.54-1.48c.07.4.14.79.2,1.18l-2.54,1.47c-.06-.38-.13-.77-.2-1.17"/><path class="cls-1" d="M260.22,144.51l2.54-1.47c.06.4.12.8.17,1.18l-2.54,1.48c-.05-.39-.1-.78-.17-1.19"/><path class="cls-1" d="M260.39,145.7l2.54-1.48c.05.41.09.81.13,1.2l-2.54,1.48c0-.39-.08-.79-.13-1.2"/><path class="cls-1" d="M260.52,146.9l2.54-1.48c0,.42.07.83.1,1.22l-2.54,1.48c0-.4-.06-.81-.1-1.22"/><path class="cls-1" d="M260.62,148.12l2.54-1.48c0,.43,0,.84.06,1.24l-2.54,1.48c0-.41,0-.82-.06-1.24"/><path class="cls-1" d="M260.68,149.36l2.54-1.48c0,.44,0,.86,0,1.27l-2.54,1.47c0-.41,0-.83,0-1.26"/><path class="cls-1" d="M260.69,150.62l2.54-1.47c0,.44,0,.87,0,1.28l-2.54,1.48q0-.61,0-1.29"/><path class="cls-1" d="M260.66,151.91l2.54-1.48c0,.47-.05.91-.08,1.33l-2.54,1.48c0-.42.06-.87.08-1.33"/><path class="cls-1" d="M260.58,153.24l2.54-1.48c0,.48-.09.92-.14,1.33l-2.54,1.47c.06-.41.1-.85.14-1.32"/><path class="cls-1" d="M260.44,154.56l2.54-1.47c-.06.48-.13.92-.19,1.32l-2.54,1.47c.07-.39.13-.83.19-1.32"/><path class="cls-1" d="M260.25,155.88l2.54-1.47c-.08.47-.17.87-.24,1.2L260,157.08c.07-.33.16-.73.24-1.2"/><path class="cls-1" d="M260,157.08l2.54-1.47c-.1.43-.18.73-.23.9L259.78,158c.05-.17.13-.47.23-.9"/><path class="cls-1" d="M259.78,158l2.54-1.47a.79.79,0,0,0,0,.13l-2.54,1.47a1.11,1.11,0,0,0,0-.13"/></g></g></g><polygon class="cls-4" points="256.76 138.86 259.3 137.38 261.85 138.77 259.31 140.24 256.76 138.86"/><polygon class="cls-15" points="251.53 152.87 251.57 154.85 249.87 153.93 249.82 151.95 251.53 152.87"/><polygon class="cls-1" points="251.53 152.87 259.98 147.96 260.02 149.94 251.57 154.85 251.53 152.87"/><polygon class="cls-4" points="249.82 151.95 258.27 147.03 259.98 147.96 251.53 152.87 249.82 151.95"/><path class="cls-14" d="M248.71,146.57c2.76,10.32.54,17.5.42,17.87l-2.55-1.37c1.56-5-.32-17.23-.42-17.88Z"/><g class="cls-16"><path class="cls-1" d="M248.71,146.57l2.54-1.47c2.76,10.31.54,17.49.42,17.87l-2.54,1.47C249.25,164.07,251.47,156.89,248.71,146.57Z"/><g class="cls-23"><g class="cls-16"><path class="cls-1" d="M248.71,146.57l2.54-1.47c.07.26.13.52.2.78l-2.54,1.47c-.06-.26-.13-.52-.2-.78"/><path class="cls-1" d="M248.91,147.35l2.54-1.47.27,1.15-2.54,1.48c-.08-.38-.17-.77-.27-1.16"/><path class="cls-1" d="M249.18,148.51l2.54-1.48c.08.4.16.78.23,1.16l-2.54,1.48c-.07-.38-.15-.77-.23-1.16"/><path class="cls-1" d="M249.41,149.67l2.54-1.48c.08.4.14.79.2,1.18l-2.53,1.47q-.09-.57-.21-1.17"/><path class="cls-1" d="M249.62,150.84l2.53-1.47c.07.4.12.8.17,1.18L249.79,152c0-.39-.11-.78-.17-1.19"/><path class="cls-1" d="M249.79,152l2.53-1.48c.05.41.1.81.14,1.2l-2.54,1.48c0-.39-.08-.79-.13-1.2"/><path class="cls-1" d="M249.92,153.23l2.54-1.48c0,.42.07.82.09,1.22L250,154.45c0-.4-.06-.81-.1-1.22"/><path class="cls-1" d="M250,154.45l2.53-1.48c0,.43,0,.84.06,1.24l-2.54,1.48c0-.41,0-.82,0-1.24"/><path class="cls-1" d="M250.07,155.69l2.54-1.48c0,.44,0,.86,0,1.27L250.09,157c0-.41,0-.83,0-1.26"/><path class="cls-1" d="M250.09,157l2.54-1.47c0,.44,0,.87,0,1.28l-2.54,1.48q0-.62,0-1.29"/><path class="cls-1" d="M250.06,158.24l2.54-1.48c0,.47,0,.91-.09,1.33L250,159.57c0-.42.06-.87.08-1.33"/><path class="cls-1" d="M250,159.57l2.53-1.48c0,.48-.08.92-.13,1.33l-2.54,1.47c0-.41.1-.85.14-1.32"/><path class="cls-1" d="M249.84,160.89l2.54-1.47c-.06.48-.13.92-.2,1.32l-2.54,1.47c.07-.39.14-.83.2-1.32"/><path class="cls-1" d="M249.64,162.21l2.54-1.47q-.12.7-.24,1.2l-2.54,1.47q.12-.49.24-1.2"/><path class="cls-1" d="M249.4,163.41l2.54-1.47c-.1.43-.18.73-.23.9l-2.54,1.47c.05-.17.14-.47.23-.9"/><path class="cls-1" d="M249.17,164.31l2.54-1.47c0,.06,0,.11,0,.13l-2.54,1.47a1.11,1.11,0,0,0,0-.13"/></g></g></g><polygon class="cls-4" points="246.16 145.19 248.69 143.72 251.25 145.1 248.71 146.57 246.16 145.19"/><polygon class="cls-15" points="240.91 159.21 240.96 161.19 239.26 160.27 239.21 158.28 240.91 159.21"/><polygon class="cls-1" points="240.91 159.21 249.37 154.29 249.42 156.28 240.96 161.19 240.91 159.21"/><polygon class="cls-4" points="239.21 158.28 247.67 153.36 249.37 154.29 240.91 159.21 239.21 158.28"/><path class="cls-14" d="M238.1,152.91c2.77,10.32.55,17.49.43,17.87L236,169.4c1.55-5-.33-17.23-.43-17.88Z"/><g class="cls-16"><path class="cls-1" d="M238.1,152.91l2.54-1.47c2.76,10.31.54,17.49.43,17.87l-2.54,1.47C238.65,170.4,240.87,163.23,238.1,152.91Z"/><g class="cls-24"><g class="cls-16"><path class="cls-1" d="M238.1,152.91l2.54-1.47c.07.26.14.52.2.78l-2.54,1.47c-.06-.26-.13-.52-.2-.78"/><path class="cls-1" d="M238.3,153.69l2.54-1.47c.1.39.19.77.27,1.15l-2.54,1.48c-.08-.38-.17-.77-.27-1.16"/><path class="cls-1" d="M238.57,154.85l2.54-1.48c.09.39.16.78.24,1.16L238.81,156c-.07-.38-.15-.77-.24-1.16"/><path class="cls-1" d="M238.81,156l2.54-1.48c.07.4.14.79.2,1.18L239,157.18c-.06-.38-.13-.77-.2-1.17"/><path class="cls-1" d="M239,157.18l2.54-1.47c.06.4.12.79.17,1.18l-2.54,1.48c-.05-.39-.1-.79-.17-1.19"/><path class="cls-1" d="M239.18,158.37l2.54-1.48c.05.41.09.81.13,1.2l-2.54,1.48c0-.4-.08-.8-.13-1.2"/><path class="cls-1" d="M239.31,159.57l2.54-1.48c0,.42.07.82.1,1.22l-2.54,1.47c0-.39-.06-.8-.1-1.21"/><path class="cls-1" d="M239.41,160.78l2.54-1.47c0,.42,0,.84.05,1.24L239.47,162c0-.4,0-.81-.06-1.24"/><path class="cls-1" d="M239.47,162l2.53-1.47c0,.43,0,.86,0,1.26l-2.54,1.48c0-.41,0-.83,0-1.27"/><path class="cls-1" d="M239.48,163.29l2.54-1.48q0,.67,0,1.29l-2.54,1.48q0-.63,0-1.29"/><path class="cls-1" d="M239.45,164.58,242,163.1c0,.47-.05.91-.08,1.33l-2.54,1.48c0-.42.06-.87.08-1.33"/><path class="cls-1" d="M239.37,165.91l2.54-1.48c0,.47-.09.92-.14,1.33l-2.54,1.47c.06-.41.1-.85.14-1.32"/><path class="cls-1" d="M239.23,167.23l2.54-1.47c-.06.48-.13.92-.19,1.31L239,168.55c.07-.39.13-.83.19-1.32"/><path class="cls-1" d="M239,168.55l2.54-1.48c-.09.47-.17.88-.24,1.21l-2.54,1.47c.07-.33.16-.73.24-1.2"/><path class="cls-1" d="M238.8,169.75l2.54-1.47c-.1.42-.19.73-.23.89l-2.54,1.48c.05-.17.13-.47.23-.9"/><path class="cls-1" d="M238.57,170.65l2.54-1.48a1.19,1.19,0,0,0,0,.14l-2.54,1.47a1.11,1.11,0,0,0,0-.13"/></g></g></g><polygon class="cls-4" points="235.55 151.53 238.09 150.05 240.64 151.44 238.1 152.91 235.55 151.53"/><polygon class="cls-15" points="230.31 165.54 230.35 167.52 228.65 166.6 228.61 164.62 230.31 165.54"/><polygon class="cls-1" points="230.31 165.54 238.76 160.62 238.81 162.61 230.35 167.52 230.31 165.54"/><polygon class="cls-4" points="228.61 164.62 237.06 159.7 238.76 160.62 230.31 165.54 228.61 164.62"/><path class="cls-14" d="M227.49,159.24c2.77,10.32.55,17.5.43,17.87l-2.55-1.38c1.56-5-.33-17.24-.43-17.88Z"/><g class="cls-16"><path class="cls-1" d="M227.49,159.24l2.54-1.48c2.77,10.32.55,17.5.43,17.88l-2.54,1.47C228,176.74,230.26,169.56,227.49,159.24Z"/><g class="cls-25"><g class="cls-16"><path class="cls-1" d="M227.49,159.24l2.54-1.48c.07.27.14.54.2.81L227.7,160l-.21-.8"/><path class="cls-1" d="M227.7,160l2.53-1.47c.1.39.19.77.27,1.15L228,161.2,227.7,160"/><path class="cls-1" d="M228,161.2l2.53-1.48c.09.39.17.78.24,1.16l-2.54,1.48c-.07-.38-.15-.77-.23-1.16"/><path class="cls-1" d="M228.2,162.36l2.54-1.48c.07.4.14.79.2,1.18l-2.54,1.47c-.06-.38-.12-.77-.2-1.17"/><path class="cls-1" d="M228.4,163.53l2.54-1.47c.06.4.12.79.17,1.18l-2.54,1.47c0-.38-.1-.78-.17-1.18"/><path class="cls-1" d="M228.57,164.71l2.54-1.47c0,.41.09.81.13,1.2l-2.54,1.47c0-.39-.08-.79-.13-1.2"/><path class="cls-1" d="M228.7,165.91l2.54-1.47c0,.41.07.82.1,1.22l-2.54,1.47c0-.4-.06-.8-.1-1.22"/><path class="cls-1" d="M228.8,167.13l2.54-1.47q0,.63.06,1.23l-2.54,1.48c0-.4,0-.82-.06-1.24"/><path class="cls-1" d="M228.86,168.37l2.54-1.48c0,.44,0,.86,0,1.27l-2.54,1.47c0-.41,0-.83,0-1.26"/><path class="cls-1" d="M228.87,169.63l2.54-1.47c0,.44,0,.87,0,1.28l-2.54,1.48q0-.61,0-1.29"/><path class="cls-1" d="M228.84,170.92l2.54-1.48c0,.47,0,.91-.08,1.33l-2.54,1.48c0-.42.06-.87.08-1.33"/><path class="cls-1" d="M228.76,172.25l2.54-1.48c0,.47-.09.92-.14,1.33l-2.53,1.47c.05-.41.09-.85.13-1.32"/><path class="cls-1" d="M228.63,173.57l2.53-1.47c-.06.48-.12.92-.19,1.31l-2.54,1.47c.07-.39.13-.83.2-1.31"/><path class="cls-1" d="M228.43,174.88l2.54-1.47c-.08.47-.17.87-.24,1.2l-2.54,1.47c.08-.32.16-.73.24-1.2"/><path class="cls-1" d="M228.19,176.08l2.54-1.47c-.1.43-.18.73-.23.9L228,177c0-.17.13-.47.23-.9"/><path class="cls-1" d="M228,177l2.54-1.47c0,.06,0,.11,0,.13l-2.54,1.47a1.11,1.11,0,0,0,0-.13"/></g></g></g><polygon class="cls-4" points="224.94 157.85 227.47 156.38 230.03 157.76 227.49 159.24 224.94 157.85"/><polygon class="cls-15" points="219.7 171.87 219.75 173.85 218.05 172.93 218 170.94 219.7 171.87"/><polygon class="cls-1" points="219.7 171.87 228.16 166.95 228.21 168.94 219.75 173.85 219.7 171.87"/><polygon class="cls-4" points="218 170.94 226.46 166.03 228.16 166.95 219.7 171.87 218 170.94"/><path class="cls-14" d="M216.88,165.57c2.77,10.33.55,17.5.44,17.87l-2.56-1.38c1.56-5-.33-17.23-.43-17.87Z"/><g class="cls-16"><path class="cls-1" d="M216.88,165.57l2.54-1.48c2.77,10.33.55,17.5.43,17.88l-2.53,1.47C217.43,183.07,219.65,175.9,216.88,165.57Z"/><g class="cls-26"><g class="cls-16"><path class="cls-1" d="M216.88,165.57l2.54-1.48.21.8-2.54,1.48-.21-.8"/><path class="cls-1" d="M217.09,166.37l2.54-1.48.27,1.16-2.54,1.47c-.08-.38-.17-.76-.27-1.15"/><path class="cls-1" d="M217.36,167.52l2.54-1.47c.08.39.16.78.23,1.16l-2.54,1.48c-.07-.39-.15-.77-.23-1.17"/><path class="cls-1" d="M217.59,168.69l2.54-1.48c.08.4.14.79.2,1.18l-2.53,1.47c-.06-.38-.13-.78-.21-1.17"/><path class="cls-1" d="M217.8,169.86l2.53-1.47c.07.4.12.79.17,1.18L218,171.05c-.05-.39-.11-.79-.17-1.19"/><path class="cls-1" d="M218,171.05l2.53-1.48c.05.41.1.81.14,1.2l-2.54,1.48c0-.4-.08-.8-.13-1.2"/><path class="cls-1" d="M218.1,172.25l2.54-1.48c0,.42.07.82.09,1.22l-2.53,1.47c0-.39-.06-.8-.1-1.21"/><path class="cls-1" d="M218.2,173.46l2.53-1.47c0,.42.05.84.06,1.24l-2.54,1.47c0-.4,0-.81-.05-1.24"/><path class="cls-1" d="M218.25,174.7l2.54-1.47c0,.43,0,.85,0,1.26L218.27,176c0-.41,0-.83,0-1.27"/><path class="cls-1" d="M218.27,176l2.54-1.48q0,.67,0,1.29l-2.54,1.47c0-.41,0-.84,0-1.28"/><path class="cls-1" d="M218.24,177.25l2.54-1.47c0,.46-.05.91-.09,1.32l-2.53,1.48c0-.42.06-.86.08-1.33"/><path class="cls-1" d="M218.16,178.58l2.53-1.48c0,.48-.08.92-.13,1.33L218,179.9c0-.41.1-.85.14-1.32"/><path class="cls-1" d="M218,179.9l2.54-1.47c-.06.48-.13.92-.2,1.31l-2.54,1.47c.07-.39.14-.83.2-1.31"/><path class="cls-1" d="M217.82,181.21l2.54-1.47q-.12.7-.24,1.2l-2.53,1.47c.07-.33.15-.73.23-1.2"/><path class="cls-1" d="M217.59,182.41l2.53-1.47c-.09.42-.18.73-.23.89l-2.53,1.48c0-.17.13-.47.23-.9"/><path class="cls-1" d="M217.36,183.31l2.53-1.48c0,.07,0,.12,0,.14l-2.53,1.47a1.28,1.28,0,0,1,0-.13"/></g></g></g><polygon class="cls-4" points="214.33 164.19 216.87 162.72 219.42 164.09 216.88 165.57 214.33 164.19"/><polygon class="cls-15" points="209.09 178.21 209.14 180.19 207.43 179.27 207.38 177.28 209.09 178.21"/><polygon class="cls-1" points="209.09 178.21 217.55 173.29 217.6 175.28 209.14 180.19 209.09 178.21"/><polygon class="cls-4" points="207.38 177.28 215.84 172.37 217.55 173.29 209.09 178.21 207.38 177.28"/><path class="cls-14" d="M206.24,170.71c2.77,10.32.54,17.5.43,17.87l-2.55-1.38c1.55-5-.34-17.24-.44-17.88Z"/><g class="cls-16"><path class="cls-1" d="M206.24,170.71l2.54-1.47c2.76,10.31.54,17.49.42,17.87l-2.53,1.47C206.78,188.21,209,181,206.24,170.71Z"/><g class="cls-27"><g class="cls-16"><path class="cls-1" d="M206.24,170.71l2.54-1.47c.07.26.14.52.2.78l-2.54,1.47c-.06-.26-.13-.52-.2-.78"/><path class="cls-1" d="M206.44,171.49,209,170c.1.39.19.77.27,1.15l-2.54,1.48c-.08-.38-.17-.77-.27-1.16"/><path class="cls-1" d="M206.71,172.65l2.54-1.48c.08.39.16.78.23,1.16L207,173.81c-.07-.38-.15-.77-.24-1.16"/><path class="cls-1" d="M207,173.81l2.53-1.48c.08.4.15.79.21,1.18L207.15,175c-.06-.38-.13-.77-.2-1.17"/><path class="cls-1" d="M207.15,175l2.54-1.47c.06.4.12.8.17,1.18l-2.54,1.48c0-.39-.11-.79-.17-1.19"/><path class="cls-1" d="M207.32,176.17l2.54-1.48c0,.41.09.81.13,1.2l-2.54,1.48c0-.39-.08-.79-.13-1.2"/><path class="cls-1" d="M207.45,177.37l2.54-1.48c0,.42.07.82.1,1.22l-2.54,1.48c0-.4-.06-.81-.1-1.22"/><path class="cls-1" d="M207.55,178.59l2.54-1.48c0,.43,0,.84,0,1.24l-2.53,1.47q0-.6-.06-1.23"/><path class="cls-1" d="M207.61,179.82l2.53-1.47c0,.44,0,.86,0,1.26l-2.54,1.48c0-.41,0-.83,0-1.27"/><path class="cls-1" d="M207.62,181.09l2.54-1.48q0,.67,0,1.29l-2.54,1.48q0-.62,0-1.29"/><path class="cls-1" d="M207.59,182.38l2.54-1.48c0,.47,0,.91-.08,1.33l-2.54,1.48c0-.42.06-.87.08-1.33"/><path class="cls-1" d="M207.51,183.71l2.54-1.48c0,.48-.09.92-.14,1.33L207.37,185c0-.41.1-.85.14-1.32"/><path class="cls-1" d="M207.37,185l2.54-1.47c-.06.48-.13.92-.2,1.31l-2.53,1.48c.06-.39.13-.83.19-1.32"/><path class="cls-1" d="M207.18,186.35l2.53-1.48c-.08.48-.16.88-.24,1.21l-2.53,1.47c.07-.33.16-.73.24-1.2"/><path class="cls-1" d="M206.94,187.55l2.53-1.47c-.09.43-.18.73-.23.89l-2.53,1.48c0-.17.13-.47.23-.9"/><path class="cls-1" d="M206.71,188.45l2.53-1.48c0,.07,0,.12,0,.14l-2.53,1.47a1.28,1.28,0,0,1,0-.13"/></g></g></g><polygon class="cls-4" points="203.68 169.32 206.22 167.85 208.78 169.24 206.24 170.71 203.68 169.32"/><polygon class="cls-15" points="198.48 184.53 198.53 186.52 196.83 185.6 196.78 183.61 198.48 184.53"/><polygon class="cls-1" points="198.48 184.53 206.94 179.62 206.99 181.6 198.53 186.52 198.48 184.53"/><polygon class="cls-4" points="196.78 183.61 205.24 178.7 206.94 179.62 198.48 184.53 196.78 183.61"/><polygon class="cls-13" points="198.82 122.56 193.75 125.51 188.65 122.57 193.72 119.61 198.82 122.56"/><polygon class="cls-14" points="198.82 122.56 198.62 195.93 193.54 198.88 193.75 125.51 198.82 122.56"/><polygon class="cls-1" points="193.75 125.51 193.54 198.88 188.44 195.93 188.65 122.57 193.75 125.51"/><polygon class="cls-15" points="183.37 192 183.41 193.99 181.71 193.06 181.66 191.08 183.37 192"/><polygon class="cls-1" points="183.37 192 191.82 187.09 191.87 189.07 183.41 193.99 183.37 192"/><polygon class="cls-4" points="181.66 191.08 190.12 186.16 191.82 187.09 183.37 192 181.66 191.08"/><polygon class="cls-2" points="6.43 202.45 14.72 207.32 14.83 272.05 6.43 267.25 6.43 202.45"/><path class="cls-14" d="M180.35,185.37c2.78,10.32.55,17.5.43,17.88l-2.55-1.39c1.56-5-.33-17.23-.43-17.87Z"/><path class="cls-1" d="M180.35,185.37l2.54-1.47c2.77,10.32.54,17.49.43,17.87l-2.54,1.48C180.9,202.87,183.13,195.69,180.35,185.37Z"/><g class="cls-28"><g class="cls-16"><path class="cls-1" d="M180.35,185.37l2.54-1.47.21.8-2.54,1.48q-.09-.41-.21-.81"/><path class="cls-1" d="M180.56,186.18l2.54-1.48c.1.39.19.78.27,1.16l-2.54,1.47c-.08-.38-.17-.76-.27-1.15"/><path class="cls-1" d="M180.83,187.33l2.54-1.47c.08.39.16.77.23,1.16l-2.53,1.47c-.08-.38-.15-.77-.24-1.16"/><path class="cls-1" d="M181.07,188.49,183.6,187c.08.39.14.78.21,1.17l-2.54,1.47c-.06-.38-.13-.77-.2-1.17"/><path class="cls-1" d="M181.27,189.66l2.54-1.47c.06.4.11.79.16,1.18l-2.53,1.47c-.05-.38-.11-.78-.17-1.18"/><path class="cls-1" d="M181.44,190.84l2.53-1.47c.05.41.1.8.14,1.2L181.57,192c0-.39-.08-.79-.13-1.2"/><path class="cls-1" d="M181.57,192l2.54-1.47c0,.41.07.81.09,1.21l-2.53,1.47c0-.39-.06-.8-.1-1.21"/><path class="cls-1" d="M181.67,193.25l2.53-1.47c0,.42.05.84.06,1.24l-2.54,1.47c0-.4,0-.81-.05-1.24"/><path class="cls-1" d="M181.72,194.49l2.54-1.47c0,.43,0,.85,0,1.26l-2.54,1.47c0-.41,0-.83,0-1.26"/><path class="cls-1" d="M181.74,195.75l2.54-1.47c0,.44,0,.87,0,1.28L181.71,197c0-.42,0-.84,0-1.29"/><path class="cls-1" d="M181.71,197l2.54-1.48c0,.47-.05.91-.09,1.33l-2.53,1.47c0-.42.06-.86.08-1.32"/><path class="cls-1" d="M181.63,198.36l2.53-1.47c0,.47-.08.91-.13,1.32l-2.54,1.47c0-.41.1-.85.14-1.32"/><path class="cls-1" d="M181.49,199.68l2.54-1.47c-.06.48-.13.92-.2,1.31L181.29,201c.07-.39.14-.83.2-1.32"/><path class="cls-1" d="M181.29,201l2.54-1.48c-.08.47-.16.88-.24,1.2l-2.54,1.48q.12-.49.24-1.2"/><path class="cls-1" d="M181.05,202.2l2.54-1.48c-.1.43-.18.74-.23.91l-2.54,1.47c.05-.17.14-.47.23-.9"/><path class="cls-1" d="M180.82,203.1l2.54-1.47a1.19,1.19,0,0,0,0,.14l-2.54,1.48,0-.15"/></g></g><polygon class="cls-4" points="177.8 183.99 180.34 182.51 182.89 183.9 180.35 185.37 177.8 183.99"/><polygon class="cls-15" points="172.57 198 172.61 199.99 170.91 199.06 170.86 197.08 172.57 198"/><polygon class="cls-1" points="172.57 198 181.02 193.09 181.07 195.07 172.61 199.99 172.57 198"/><polygon class="cls-4" points="170.86 197.08 179.31 192.16 181.02 193.09 172.57 198 170.86 197.08"/><path class="cls-14" d="M169.75,191.7c2.76,10.32.54,17.5.42,17.88l-2.55-1.39c1.56-5-.32-17.23-.42-17.87Z"/><path class="cls-1" d="M169.75,191.7l2.53-1.47c2.77,10.32.55,17.5.43,17.87l-2.54,1.48C170.29,209.2,172.51,202,169.75,191.7Z"/><g class="cls-29"><g class="cls-16"><path class="cls-1" d="M169.75,191.7l2.53-1.47c.08.26.14.52.21.78L170,192.49c-.06-.26-.13-.52-.2-.79"/><path class="cls-1" d="M170,192.49l2.54-1.48.27,1.16-2.54,1.47c-.08-.38-.17-.76-.27-1.15"/><path class="cls-1" d="M170.22,193.64l2.54-1.47c.08.39.16.78.23,1.16l-2.54,1.47c-.07-.38-.15-.77-.23-1.16"/><path class="cls-1" d="M170.45,194.8l2.54-1.47c.08.4.14.79.2,1.17L170.66,196c-.06-.39-.13-.78-.21-1.18"/><path class="cls-1" d="M170.66,196l2.53-1.48c.07.4.12.8.17,1.19l-2.54,1.47c0-.39-.1-.78-.16-1.18"/><path class="cls-1" d="M170.82,197.16l2.54-1.47c0,.4.1.81.13,1.2L171,198.36c0-.39-.08-.79-.14-1.2"/><path class="cls-1" d="M171,198.36l2.53-1.47c0,.41.08.82.1,1.21l-2.54,1.48c0-.4-.05-.8-.09-1.22"/><path class="cls-1" d="M171.05,199.58l2.54-1.48c0,.43,0,.84.06,1.24l-2.54,1.48c0-.4,0-.82-.06-1.24"/><path class="cls-1" d="M171.11,200.82l2.54-1.48c0,.44,0,.86,0,1.27l-2.53,1.47c0-.4,0-.83,0-1.26"/><path class="cls-1" d="M171.13,202.08l2.53-1.47c0,.45,0,.87,0,1.29l-2.53,1.47c0-.41,0-.84,0-1.29"/><path class="cls-1" d="M171.1,203.37l2.53-1.47c0,.46,0,.91-.08,1.33L171,204.7c0-.42.06-.86.08-1.33"/><path class="cls-1" d="M171,204.7l2.53-1.47c0,.47-.08.91-.13,1.32L170.88,206c.05-.41.1-.86.14-1.33"/><path class="cls-1" d="M170.88,206l2.54-1.48c-.07.49-.13.93-.2,1.32l-2.54,1.47c.07-.39.14-.83.2-1.31"/><path class="cls-1" d="M170.68,207.34l2.54-1.47q-.12.7-.24,1.2l-2.54,1.48c.08-.33.16-.74.24-1.21"/><path class="cls-1" d="M170.44,208.55l2.54-1.48c-.1.43-.18.73-.23.9l-2.54,1.47c0-.16.14-.47.23-.89"/><path class="cls-1" d="M170.21,209.44l2.54-1.47a1.11,1.11,0,0,1,0,.13l-2.54,1.48s0-.07,0-.14"/></g></g><polygon class="cls-4" points="167.2 190.32 169.73 188.84 172.28 190.23 169.75 191.7 167.2 190.32"/><polygon class="cls-15" points="161.95 204.33 162 206.32 160.3 205.4 160.25 203.41 161.95 204.33"/><polygon class="cls-1" points="161.95 204.33 170.41 199.42 170.46 201.41 162 206.32 161.95 204.33"/><polygon class="cls-4" points="160.25 203.41 168.71 198.5 170.41 199.42 161.95 204.33 160.25 203.41"/><path class="cls-14" d="M159.14,198c2.77,10.33.54,17.5.43,17.88L157,214.53c1.55-5-.33-17.23-.43-17.87Z"/><path class="cls-1" d="M159.14,198l2.54-1.47c2.76,10.33.54,17.5.42,17.87l-2.53,1.48C159.68,215.53,161.91,208.36,159.14,198Z"/><g class="cls-30"><g class="cls-16"><path class="cls-1" d="M159.14,198l2.54-1.47c.07.26.14.52.2.78l-2.54,1.47c-.06-.26-.13-.52-.2-.78"/><path class="cls-1" d="M159.34,198.81l2.54-1.47c.1.39.19.77.27,1.15L159.61,200c-.08-.38-.17-.77-.27-1.16"/><path class="cls-1" d="M159.61,200l2.54-1.48c.08.39.16.78.23,1.17l-2.53,1.47c-.07-.38-.15-.77-.24-1.16"/><path class="cls-1" d="M159.85,201.13l2.53-1.47c.08.39.15.79.21,1.17l-2.54,1.48c-.06-.39-.13-.78-.2-1.18"/><path class="cls-1" d="M160.05,202.31l2.54-1.48c.06.4.12.8.17,1.19l-2.54,1.47c-.05-.39-.11-.78-.17-1.18"/><path class="cls-1" d="M160.22,203.49l2.54-1.47c.05.41.09.81.13,1.2l-2.54,1.47c0-.39-.08-.79-.13-1.2"/><path class="cls-1" d="M160.35,204.69l2.54-1.47c0,.42.07.82.1,1.22l-2.54,1.47c0-.39-.06-.8-.1-1.22"/><path class="cls-1" d="M160.45,205.91l2.54-1.47c0,.42,0,.84,0,1.24l-2.53,1.47c0-.4,0-.81-.06-1.24"/><path class="cls-1" d="M160.51,207.15l2.53-1.47c0,.43,0,.85,0,1.26l-2.54,1.48c0-.41,0-.83,0-1.27"/><path class="cls-1" d="M160.52,208.42l2.54-1.48q0,.67,0,1.29l-2.54,1.47c0-.41,0-.84,0-1.28"/><path class="cls-1" d="M160.49,209.7l2.54-1.47c0,.47-.05.91-.08,1.33L160.41,211c0-.42.06-.86.08-1.33"/><path class="cls-1" d="M160.41,211l2.54-1.47c0,.47-.09.91-.14,1.32l-2.54,1.48c0-.41.1-.85.14-1.33"/><path class="cls-1" d="M160.27,212.36l2.54-1.48c-.06.49-.13.93-.2,1.32l-2.53,1.47c.07-.39.13-.83.19-1.31"/><path class="cls-1" d="M160.08,213.67l2.53-1.47c-.08.47-.16.87-.23,1.2l-2.54,1.47c.07-.33.16-.73.24-1.2"/><path class="cls-1" d="M159.84,214.87l2.54-1.47c-.1.43-.19.73-.23.9l-2.54,1.47c0-.17.13-.47.23-.9"/><path class="cls-1" d="M159.61,215.77l2.54-1.47-.05.13-2.53,1.48a.82.82,0,0,1,0-.14"/></g></g><polygon class="cls-4" points="156.59 196.66 159.13 195.18 161.68 196.56 159.14 198.03 156.59 196.66"/><polygon class="cls-15" points="151.35 210.67 151.39 212.66 149.69 211.74 149.65 209.75 151.35 210.67"/><polygon class="cls-1" points="151.35 210.67 159.8 205.76 159.85 207.74 151.39 212.66 151.35 210.67"/><polygon class="cls-4" points="149.65 209.75 158.1 204.84 159.8 205.76 151.35 210.67 149.65 209.75"/><path class="cls-14" d="M148.53,204.38c2.77,10.31.55,17.49.43,17.87l-2.55-1.39c1.56-5-.33-17.23-.43-17.87Z"/><path class="cls-1" d="M148.53,204.38l2.54-1.48c2.77,10.32.54,17.5.43,17.87L149,222.25C149.08,221.87,151.3,214.69,148.53,204.38Z"/><g class="cls-31"><g class="cls-16"><path class="cls-1" d="M148.53,204.38l2.54-1.48c.07.26.14.52.2.78l-2.53,1.48c-.07-.26-.13-.52-.21-.78"/><path class="cls-1" d="M148.74,205.16l2.53-1.48c.1.39.19.78.27,1.16L149,206.31l-.27-1.15"/><path class="cls-1" d="M149,206.31l2.53-1.47c.09.39.17.78.24,1.16l-2.54,1.47c-.07-.38-.15-.77-.23-1.16"/><path class="cls-1" d="M149.24,207.47l2.54-1.47c.07.4.14.79.2,1.17l-2.54,1.48c-.06-.39-.12-.78-.2-1.18"/><path class="cls-1" d="M149.44,208.65l2.54-1.48c.06.41.12.8.17,1.19l-2.54,1.47c-.05-.39-.1-.78-.17-1.18"/><path class="cls-1" d="M149.61,209.83l2.54-1.47c0,.41.09.81.13,1.2L149.74,211c0-.39-.08-.79-.13-1.2"/><path class="cls-1" d="M149.74,211l2.54-1.47c0,.41.07.82.1,1.22l-2.54,1.47c0-.4-.06-.8-.1-1.22"/><path class="cls-1" d="M149.84,212.25l2.54-1.47c0,.42,0,.83.06,1.23l-2.54,1.48c0-.4,0-.82-.06-1.24"/><path class="cls-1" d="M149.9,213.49l2.54-1.48c0,.44,0,.86,0,1.27l-2.54,1.47c0-.4,0-.83,0-1.26"/><path class="cls-1" d="M149.91,214.75l2.54-1.47q0,.67,0,1.29L149.88,216q0-.61,0-1.29"/><path class="cls-1" d="M149.88,216l2.54-1.47c0,.46,0,.91-.08,1.33l-2.54,1.47c0-.42.06-.86.08-1.33"/><path class="cls-1" d="M149.8,217.37l2.54-1.47c0,.47-.09.91-.14,1.32l-2.53,1.48c.05-.41.09-.86.13-1.33"/><path class="cls-1" d="M149.67,218.7l2.53-1.48c-.06.49-.12.93-.19,1.32L149.47,220c.07-.39.13-.83.2-1.31"/><path class="cls-1" d="M149.47,220l2.54-1.47c-.08.47-.17.87-.24,1.2l-2.54,1.48c.08-.33.16-.74.24-1.21"/><path class="cls-1" d="M149.23,221.22l2.54-1.48c-.1.43-.18.73-.23.9L149,222.11c.05-.16.13-.47.23-.89"/><path class="cls-1" d="M149,222.11l2.54-1.47a1.28,1.28,0,0,0,0,.13L149,222.25s0-.07,0-.14"/></g></g><polygon class="cls-4" points="145.98 202.99 148.51 201.51 151.07 202.9 148.53 204.38 145.98 202.99"/><polygon class="cls-15" points="140.74 217 140.79 218.99 139.09 218.06 139.04 216.08 140.74 217"/><polygon class="cls-1" points="140.74 217 149.2 212.09 149.25 214.07 140.79 218.99 140.74 217"/><polygon class="cls-4" points="139.04 216.08 147.5 211.16 149.2 212.09 140.74 217 139.04 216.08"/><path class="cls-14" d="M137.92,210.7c2.77,10.32.55,17.5.43,17.88l-2.55-1.38c1.56-5-.33-17.23-.43-17.88Z"/><path class="cls-1" d="M137.92,210.7l2.54-1.47c2.77,10.32.55,17.5.43,17.87l-2.54,1.48C138.47,228.2,140.69,221,137.92,210.7Z"/><g class="cls-32"><g class="cls-16"><path class="cls-1" d="M137.92,210.7l2.54-1.47.21.8-2.54,1.48-.21-.81"/><path class="cls-1" d="M138.13,211.51l2.54-1.48.27,1.16-2.54,1.47c-.08-.38-.17-.76-.27-1.15"/><path class="cls-1" d="M138.4,212.66l2.54-1.47c.08.39.16.78.23,1.16l-2.54,1.47c-.07-.38-.15-.77-.23-1.16"/><path class="cls-1" d="M138.63,213.82l2.54-1.47c.08.39.14.79.2,1.17L138.84,215c-.06-.39-.13-.78-.21-1.18"/><path class="cls-1" d="M138.84,215l2.53-1.48c.07.4.12.8.17,1.18L139,216.18c0-.39-.1-.78-.16-1.18"/><path class="cls-1" d="M139,216.18l2.54-1.48c.05.41.1.81.13,1.2l-2.53,1.48c0-.39-.08-.79-.14-1.2"/><path class="cls-1" d="M139.14,217.38l2.53-1.48c0,.42.08.82.1,1.22l-2.54,1.48c0-.4,0-.81-.09-1.22"/><path class="cls-1" d="M139.23,218.6l2.54-1.48c0,.42,0,.84.06,1.24l-2.54,1.47q0-.6-.06-1.23"/><path class="cls-1" d="M139.29,219.83l2.54-1.47c0,.43,0,.85,0,1.26l-2.53,1.48c0-.41,0-.83,0-1.27"/><path class="cls-1" d="M139.31,221.1l2.53-1.48q0,.67,0,1.29l-2.53,1.47c0-.41,0-.84,0-1.28"/><path class="cls-1" d="M139.28,222.38l2.53-1.47c0,.46,0,.91-.08,1.33l-2.53,1.47c0-.42.06-.86.08-1.33"/><path class="cls-1" d="M139.2,223.71l2.53-1.47c0,.47-.08.91-.13,1.32L139.06,225c.05-.41.1-.86.14-1.33"/><path class="cls-1" d="M139.06,225l2.54-1.48c-.06.48-.13.92-.2,1.31l-2.54,1.48c.07-.39.14-.83.2-1.31"/><path class="cls-1" d="M138.86,226.35l2.54-1.48c-.08.47-.16.88-.24,1.2l-2.54,1.48q.12-.5.24-1.2"/><path class="cls-1" d="M138.62,227.55l2.54-1.48c-.1.43-.18.73-.23.9l-2.54,1.47c.05-.16.14-.46.23-.89"/><path class="cls-1" d="M138.39,228.44l2.54-1.47a1.11,1.11,0,0,1,0,.13l-2.54,1.48a.49.49,0,0,0,0-.14"/></g></g><polygon class="cls-4" points="135.37 209.32 137.91 207.85 140.46 209.23 137.92 210.7 135.37 209.32"/><polygon class="cls-15" points="130.13 223.34 130.18 225.32 128.48 224.4 128.43 222.42 130.13 223.34"/><polygon class="cls-1" points="130.13 223.34 138.59 218.42 138.64 220.41 130.18 225.32 130.13 223.34"/><polygon class="cls-4" points="128.43 222.42 136.89 217.5 138.59 218.42 130.13 223.34 128.43 222.42"/><path class="cls-14" d="M127.31,217c2.77,10.32.55,17.5.43,17.87l-2.55-1.38c1.56-5-.33-17.23-.43-17.87Z"/><path class="cls-1" d="M127.31,217l2.54-1.47c2.77,10.31.54,17.49.43,17.87l-2.54,1.47C127.86,234.54,130.08,227.36,127.31,217Z"/><g class="cls-33"><g class="cls-16"><path class="cls-1" d="M127.31,217l2.54-1.47c.07.26.14.52.2.78l-2.53,1.47-.21-.78"/><path class="cls-1" d="M127.52,217.82l2.53-1.47c.1.39.19.77.27,1.15L127.78,219c-.08-.38-.17-.77-.26-1.16"/><path class="cls-1" d="M127.78,219l2.54-1.48c.09.4.17.78.24,1.16L128,220.14c-.07-.38-.15-.77-.24-1.16"/><path class="cls-1" d="M128,220.14l2.54-1.48c.07.4.14.79.2,1.18l-2.54,1.47c-.06-.38-.13-.77-.2-1.17"/><path class="cls-1" d="M128.22,221.31l2.54-1.47c.06.4.12.8.17,1.18l-2.54,1.48c0-.39-.1-.78-.17-1.19"/><path class="cls-1" d="M128.39,222.5l2.54-1.48c0,.41.09.81.13,1.2l-2.54,1.48c0-.39-.08-.79-.13-1.2"/><path class="cls-1" d="M128.52,223.7l2.54-1.48c0,.42.07.83.1,1.22l-2.54,1.48c0-.4-.06-.81-.1-1.22"/><path class="cls-1" d="M128.62,224.92l2.54-1.48c0,.43,0,.84.06,1.24l-2.54,1.48c0-.41,0-.82-.06-1.24"/><path class="cls-1" d="M128.68,226.16l2.54-1.48c0,.44,0,.86,0,1.27l-2.54,1.47c0-.41,0-.83,0-1.26"/><path class="cls-1" d="M128.69,227.42l2.54-1.47c0,.44,0,.87,0,1.28l-2.54,1.48q0-.61,0-1.29"/><path class="cls-1" d="M128.66,228.71l2.54-1.48c0,.47,0,.91-.08,1.33L128.58,230c0-.42.06-.87.08-1.33"/><path class="cls-1" d="M128.58,230l2.54-1.48c0,.48-.09.92-.14,1.33l-2.54,1.47c.06-.41.1-.85.14-1.32"/><path class="cls-1" d="M128.44,231.36l2.54-1.47c-.06.48-.13.92-.19,1.32l-2.54,1.47c.07-.39.13-.83.19-1.32"/><path class="cls-1" d="M128.25,232.68l2.54-1.47c-.08.47-.17.87-.24,1.2L128,233.88c.07-.33.16-.73.24-1.2"/><path class="cls-1" d="M128,233.88l2.54-1.47c-.1.43-.18.73-.23.9l-2.54,1.47c0-.17.13-.47.23-.9"/><path class="cls-1" d="M127.78,234.78l2.54-1.47a.79.79,0,0,0,0,.13l-2.54,1.47a1.11,1.11,0,0,0,0-.13"/></g></g><polygon class="cls-4" points="124.76 215.66 127.3 214.18 129.85 215.57 127.31 217.04 124.76 215.66"/><polygon class="cls-15" points="119.53 229.67 119.57 231.65 117.86 230.73 117.82 228.75 119.53 229.67"/><polygon class="cls-1" points="119.53 229.67 127.98 224.76 128.02 226.74 119.57 231.65 119.53 229.67"/><polygon class="cls-4" points="117.82 228.75 126.28 223.83 127.98 224.76 119.53 229.67 117.82 228.75"/><path class="cls-14" d="M116.71,223.37c2.76,10.32.54,17.5.42,17.87l-2.55-1.37c1.56-5.05-.32-17.23-.42-17.88Z"/><path class="cls-1" d="M116.71,223.37l2.54-1.47c2.76,10.31.54,17.49.42,17.87l-2.54,1.47C117.25,240.87,119.47,233.69,116.71,223.37Z"/><g class="cls-34"><g class="cls-16"><path class="cls-1" d="M116.71,223.37l2.54-1.47c.07.26.13.52.2.78l-2.54,1.47c-.06-.26-.13-.52-.2-.78"/><path class="cls-1" d="M116.91,224.15l2.54-1.47.27,1.15-2.54,1.48c-.08-.38-.17-.77-.27-1.16"/><path class="cls-1" d="M117.18,225.31l2.54-1.48c.08.4.16.78.23,1.16l-2.54,1.48c-.07-.38-.15-.77-.23-1.16"/><path class="cls-1" d="M117.41,226.47,120,225c.08.4.14.79.2,1.18l-2.53,1.47q-.09-.57-.21-1.17"/><path class="cls-1" d="M117.62,227.64l2.53-1.47c.07.4.12.8.17,1.18l-2.53,1.48c-.05-.39-.11-.78-.17-1.19"/><path class="cls-1" d="M117.79,228.83l2.53-1.48c.05.41.1.81.14,1.2L117.92,230c0-.39-.08-.79-.13-1.2"/><path class="cls-1" d="M117.92,230l2.54-1.48c0,.42.07.82.09,1.22L118,231.25c0-.4-.06-.81-.1-1.22"/><path class="cls-1" d="M118,231.25l2.53-1.48c0,.43,0,.84.06,1.24l-2.54,1.48c0-.41,0-.82,0-1.24"/><path class="cls-1" d="M118.07,232.49l2.54-1.48c0,.44,0,.86,0,1.27l-2.54,1.47c0-.41,0-.83,0-1.26"/><path class="cls-1" d="M118.09,233.75l2.54-1.47c0,.44,0,.87,0,1.28L118.06,235q0-.61,0-1.29"/><path class="cls-1" d="M118.06,235l2.54-1.48c0,.47,0,.91-.09,1.33L118,236.37c0-.42.06-.87.08-1.33"/><path class="cls-1" d="M118,236.37l2.53-1.48c0,.48-.08.92-.13,1.33l-2.54,1.47c0-.41.1-.85.14-1.32"/><path class="cls-1" d="M117.84,237.69l2.54-1.47c-.06.48-.13.92-.2,1.32L117.64,239c.07-.39.14-.83.2-1.32"/><path class="cls-1" d="M117.64,239l2.54-1.47q-.12.71-.24,1.2l-2.54,1.47q.12-.5.24-1.2"/><path class="cls-1" d="M117.4,240.21l2.54-1.47c-.1.43-.18.73-.23.9l-2.54,1.47c0-.17.14-.47.23-.9"/><path class="cls-1" d="M117.17,241.11l2.54-1.47c0,.06,0,.11,0,.13l-2.54,1.47a1.11,1.11,0,0,0,0-.13"/></g></g><polygon class="cls-4" points="114.16 222 116.69 220.52 119.25 221.9 116.71 223.37 114.16 222"/><polygon class="cls-15" points="108.91 236.01 108.96 237.99 107.26 237.07 107.21 235.08 108.91 236.01"/><polygon class="cls-1" points="108.91 236.01 117.37 231.09 117.42 233.08 108.96 237.99 108.91 236.01"/><polygon class="cls-4" points="107.21 235.08 115.67 230.16 117.37 231.09 108.91 236.01 107.21 235.08"/><path class="cls-14" d="M106.1,229.71c2.77,10.32.55,17.49.43,17.87L104,246.2c1.55-5-.33-17.23-.43-17.88Z"/><path class="cls-1" d="M106.1,229.71l2.54-1.47c2.76,10.31.54,17.49.43,17.87l-2.54,1.47C106.65,247.2,108.87,240,106.1,229.71Z"/><g class="cls-35"><g class="cls-16"><path class="cls-1" d="M106.1,229.71l2.54-1.47c.07.26.14.52.2.78l-2.54,1.47c-.06-.26-.13-.52-.2-.78"/><path class="cls-1" d="M106.3,230.49l2.54-1.47c.1.39.19.77.27,1.15l-2.54,1.48c-.08-.38-.17-.77-.27-1.16"/><path class="cls-1" d="M106.57,231.65l2.54-1.48c.09.39.16.78.24,1.16l-2.54,1.48c-.07-.38-.15-.77-.24-1.16"/><path class="cls-1" d="M106.81,232.81l2.54-1.48c.07.4.14.79.2,1.18L107,234c-.06-.38-.13-.77-.2-1.17"/><path class="cls-1" d="M107,234l2.54-1.47c.06.4.12.79.17,1.18l-2.54,1.48c-.05-.39-.1-.79-.17-1.19"/><path class="cls-1" d="M107.18,235.17l2.54-1.48c0,.41.09.81.13,1.2l-2.54,1.48c0-.4-.08-.8-.13-1.2"/><path class="cls-1" d="M107.31,236.37l2.54-1.48c0,.42.07.82.1,1.22l-2.54,1.47c0-.39-.06-.8-.1-1.21"/><path class="cls-1" d="M107.41,237.58l2.54-1.47c0,.42,0,.84,0,1.24l-2.53,1.47c0-.4,0-.81-.06-1.24"/><path class="cls-1" d="M107.47,238.82l2.53-1.47c0,.43,0,.86,0,1.26l-2.54,1.48c0-.41,0-.83,0-1.27"/><path class="cls-1" d="M107.48,240.09l2.54-1.48q0,.67,0,1.29l-2.54,1.48q0-.63,0-1.29"/><path class="cls-1" d="M107.45,241.38,110,239.9c0,.47,0,.91-.08,1.33l-2.54,1.48c0-.42.06-.87.08-1.33"/><path class="cls-1" d="M107.37,242.71l2.54-1.48c0,.47-.09.92-.14,1.33L107.23,244c.06-.41.1-.85.14-1.32"/><path class="cls-1" d="M107.23,244l2.54-1.47c-.06.48-.13.92-.19,1.31L107,245.35c.07-.39.13-.83.19-1.32"/><path class="cls-1" d="M107,245.35l2.54-1.48c-.09.47-.17.88-.24,1.21l-2.54,1.47c.07-.33.16-.73.24-1.2"/><path class="cls-1" d="M106.8,246.55l2.54-1.47c-.1.42-.19.73-.23.89l-2.54,1.48c.05-.17.13-.47.23-.9"/><path class="cls-1" d="M106.57,247.45l2.54-1.48a1.19,1.19,0,0,0,0,.14l-2.54,1.47a1.11,1.11,0,0,0,0-.13"/></g></g><polygon class="cls-4" points="103.55 228.32 106.09 226.85 108.64 228.24 106.1 229.71 103.55 228.32"/><polygon class="cls-15" points="98.31 242.34 98.36 244.32 96.65 243.4 96.61 241.42 98.31 242.34"/><polygon class="cls-1" points="98.31 242.34 106.76 237.42 106.81 239.41 98.36 244.32 98.31 242.34"/><polygon class="cls-4" points="96.61 241.42 105.06 236.5 106.76 237.42 98.31 242.34 96.61 241.42"/><path class="cls-14" d="M95.49,236c2.77,10.32.55,17.5.43,17.87l-2.55-1.38c1.56-5-.33-17.24-.43-17.88Z"/><path class="cls-1" d="M95.49,236,98,234.56c2.77,10.32.55,17.5.43,17.88l-2.54,1.47C96,253.54,98.26,246.36,95.49,236Z"/><g class="cls-36"><g class="cls-16"><path class="cls-1" d="M95.49,236,98,234.56c.07.27.14.54.2.81l-2.53,1.47-.21-.8"/><path class="cls-1" d="M95.7,236.84l2.53-1.47c.1.39.19.77.27,1.15L96,238l-.27-1.16"/><path class="cls-1" d="M96,238l2.53-1.48c.09.39.17.78.24,1.16l-2.54,1.48c-.07-.38-.15-.77-.23-1.16"/><path class="cls-1" d="M96.2,239.16l2.54-1.48c.07.4.14.79.2,1.18l-2.54,1.47c-.06-.38-.12-.77-.2-1.17"/><path class="cls-1" d="M96.4,240.33l2.54-1.47c.06.4.12.79.17,1.18l-2.54,1.47c0-.38-.1-.78-.17-1.18"/><path class="cls-1" d="M96.57,241.51,99.11,240c0,.41.09.81.13,1.2l-2.54,1.47c0-.39-.08-.79-.13-1.2"/><path class="cls-1" d="M96.7,242.71l2.54-1.47c0,.41.07.82.1,1.22l-2.54,1.47c0-.4-.06-.8-.1-1.22"/><path class="cls-1" d="M96.8,243.93l2.54-1.47q0,.63.06,1.23l-2.54,1.48c0-.4,0-.82-.06-1.24"/><path class="cls-1" d="M96.86,245.17l2.54-1.48c0,.44,0,.86,0,1.27l-2.54,1.47c0-.41,0-.83,0-1.26"/><path class="cls-1" d="M96.87,246.43,99.41,245c0,.44,0,.87,0,1.28l-2.54,1.48q0-.61,0-1.29"/><path class="cls-1" d="M96.84,247.72l2.54-1.48c0,.47,0,.91-.08,1.33l-2.54,1.48c0-.42.06-.87.08-1.33"/><path class="cls-1" d="M96.76,249.05l2.54-1.48c0,.47-.09.92-.14,1.33l-2.53,1.47c.05-.41.09-.85.13-1.32"/><path class="cls-1" d="M96.63,250.37l2.53-1.47c-.06.48-.12.92-.19,1.31l-2.54,1.47c.07-.39.13-.83.2-1.31"/><path class="cls-1" d="M96.43,251.68,99,250.21c-.08.47-.17.87-.24,1.2l-2.54,1.47c.08-.32.16-.73.24-1.2"/><path class="cls-1" d="M96.19,252.88l2.54-1.47c-.1.43-.18.73-.23.9L96,253.78c.05-.17.13-.47.23-.9"/><path class="cls-1" d="M96,253.78l2.54-1.47c0,.06,0,.11,0,.13l-2.54,1.47a1.11,1.11,0,0,0,0-.13"/></g></g><polygon class="cls-4" points="92.94 234.65 95.47 233.18 98.03 234.56 95.49 236.04 92.94 234.65"/><polygon class="cls-15" points="87.7 248.66 87.75 250.65 86.05 249.73 86 247.75 87.7 248.66"/><polygon class="cls-1" points="87.7 248.66 96.16 243.75 96.21 245.74 87.75 250.65 87.7 248.66"/><polygon class="cls-4" points="86 247.75 94.46 242.83 96.16 243.75 87.7 248.66 86 247.75"/><path class="cls-14" d="M84.88,242.37c2.77,10.33.55,17.5.44,17.87l-2.56-1.38c1.56-5-.33-17.23-.43-17.87Z"/><path class="cls-1" d="M84.88,242.37l2.54-1.48c2.77,10.33.55,17.5.43,17.88l-2.53,1.47C85.43,259.87,87.65,252.7,84.88,242.37Z"/><g class="cls-37"><g class="cls-16"><path class="cls-1" d="M84.88,242.37l2.54-1.48.21.8-2.54,1.48-.21-.8"/><path class="cls-1" d="M85.09,243.17l2.54-1.48.27,1.16-2.54,1.47c-.08-.38-.17-.76-.27-1.15"/><path class="cls-1" d="M85.36,244.32l2.54-1.47c.08.39.16.78.23,1.16l-2.54,1.48c-.07-.39-.15-.77-.23-1.17"/><path class="cls-1" d="M85.59,245.49,88.13,244c.08.4.14.79.2,1.18l-2.53,1.47c-.06-.38-.13-.78-.21-1.17"/><path class="cls-1" d="M85.8,246.66l2.53-1.47c.07.4.12.79.17,1.18L86,247.85c0-.39-.11-.79-.17-1.19"/><path class="cls-1" d="M86,247.85l2.53-1.48c0,.41.1.81.14,1.2l-2.54,1.48c0-.4-.08-.8-.13-1.2"/><path class="cls-1" d="M86.1,249.05l2.54-1.48c0,.42.07.82.09,1.22l-2.53,1.47c0-.39-.06-.8-.1-1.21"/><path class="cls-1" d="M86.2,250.26l2.53-1.47c0,.42,0,.84.06,1.24l-2.54,1.47c0-.4,0-.81,0-1.24"/><path class="cls-1" d="M86.25,251.5,88.79,250c0,.43,0,.85,0,1.26l-2.54,1.48c0-.41,0-.83,0-1.27"/><path class="cls-1" d="M86.27,252.77l2.54-1.48q0,.68,0,1.29l-2.54,1.47c0-.41,0-.84,0-1.28"/><path class="cls-1" d="M86.24,254.05l2.54-1.47c0,.46,0,.91-.09,1.32l-2.53,1.48c0-.42.06-.86.08-1.33"/><path class="cls-1" d="M86.16,255.38l2.53-1.48c0,.48-.08.92-.13,1.33L86,256.7c0-.41.1-.85.14-1.32"/><path class="cls-1" d="M86,256.7l2.54-1.47c-.06.48-.13.92-.2,1.31L85.82,258c.07-.39.14-.83.2-1.31"/><path class="cls-1" d="M85.82,258l2.54-1.47q-.12.7-.24,1.2l-2.53,1.47c.07-.33.15-.73.23-1.2"/><path class="cls-1" d="M85.59,259.21l2.53-1.47c-.09.42-.18.73-.23.89l-2.53,1.48c0-.17.13-.47.23-.9"/><path class="cls-1" d="M85.36,260.11l2.53-1.48c0,.07,0,.12,0,.14l-2.53,1.47a1.28,1.28,0,0,1,0-.13"/></g></g><polygon class="cls-4" points="82.33 240.99 84.87 239.51 87.42 240.89 84.88 242.37 82.33 240.99"/><polygon class="cls-15" points="77.09 255.01 77.14 256.99 75.43 256.07 75.39 254.08 77.09 255.01"/><polygon class="cls-1" points="77.09 255.01 85.55 250.09 85.6 252.08 77.14 256.99 77.09 255.01"/><polygon class="cls-4" points="75.39 254.08 83.84 249.17 85.55 250.09 77.09 255.01 75.39 254.08"/><polygon class="cls-2" points="138.06 147.38 138.15 179.66 42.8 234.71 42.71 202.43 138.06 147.38"/><polygon class="cls-12" points="133.3 146.95 133.38 176 47.57 225.54 47.48 196.5 133.3 146.95"/><path class="cls-14" d="M74.24,247.51c2.77,10.32.54,17.5.43,17.87L72.12,264c1.55-5-.34-17.24-.44-17.88Z"/><path class="cls-1" d="M74.24,247.51,76.78,246c2.76,10.31.54,17.49.42,17.87l-2.53,1.47C74.78,265,77,257.83,74.24,247.51Z"/><g class="cls-38"><g class="cls-16"><path class="cls-1" d="M74.24,247.51,76.78,246c.07.26.14.52.2.78l-2.54,1.47c-.06-.26-.13-.52-.2-.78"/><path class="cls-1" d="M74.44,248.29,77,246.82c.1.39.19.77.27,1.15l-2.54,1.48c-.08-.38-.17-.77-.27-1.16"/><path class="cls-1" d="M74.71,249.45,77.25,248c.08.39.16.78.23,1.16L75,250.61c-.07-.38-.15-.77-.24-1.16"/><path class="cls-1" d="M75,250.61l2.53-1.48c.08.4.15.79.21,1.18l-2.54,1.47c-.06-.38-.13-.77-.2-1.17"/><path class="cls-1" d="M75.15,251.78l2.54-1.47c.06.4.12.8.17,1.18L75.32,253c0-.39-.11-.79-.17-1.19"/><path class="cls-1" d="M75.32,253l2.54-1.48c0,.41.09.81.13,1.2l-2.54,1.48c0-.39-.08-.79-.13-1.2"/><path class="cls-1" d="M75.45,254.17,78,252.69c0,.42.07.82.1,1.22l-2.54,1.48c0-.4-.06-.81-.1-1.22"/><path class="cls-1" d="M75.55,255.39l2.54-1.48c0,.43,0,.84,0,1.24l-2.53,1.47q0-.6-.06-1.23"/><path class="cls-1" d="M75.61,256.62l2.53-1.47c0,.44,0,.86,0,1.26l-2.54,1.48c0-.41,0-.83,0-1.27"/><path class="cls-1" d="M75.62,257.89l2.54-1.48q0,.68,0,1.29l-2.54,1.48q0-.62,0-1.29"/><path class="cls-1" d="M75.59,259.18l2.54-1.48c0,.47,0,.91-.08,1.33l-2.54,1.48c0-.42.06-.87.08-1.33"/><path class="cls-1" d="M75.51,260.51,78.05,259c0,.48-.09.92-.14,1.33l-2.54,1.47c0-.41.1-.85.14-1.32"/><path class="cls-1" d="M75.37,261.83l2.54-1.47c-.06.48-.13.92-.2,1.31l-2.53,1.48c.06-.39.13-.83.19-1.32"/><path class="cls-1" d="M75.18,263.15l2.53-1.48c-.08.48-.16.88-.24,1.21l-2.53,1.47c.07-.33.16-.73.24-1.2"/><path class="cls-1" d="M74.94,264.35l2.53-1.47c-.09.43-.18.73-.23.89l-2.53,1.48c.05-.17.13-.47.23-.9"/><path class="cls-1" d="M74.71,265.25l2.53-1.48c0,.07,0,.12,0,.14l-2.53,1.47a1.28,1.28,0,0,1,0-.13"/></g></g><polygon class="cls-4" points="71.68 246.12 74.22 244.65 76.78 246.04 74.24 247.51 71.68 246.12"/><polygon class="cls-15" points="66.48 261.33 66.53 263.32 64.83 262.4 64.78 260.41 66.48 261.33"/><polygon class="cls-1" points="66.48 261.33 74.94 256.42 74.98 258.4 66.53 263.32 66.48 261.33"/><polygon class="cls-4" points="64.78 260.41 73.24 255.5 74.94 256.42 66.48 261.33 64.78 260.41"/><polygon class="cls-14" points="66.83 199.36 61.75 202.31 56.65 199.37 61.72 196.41 66.83 199.36"/><polygon class="cls-14" points="66.83 199.36 66.62 272.73 61.54 275.68 61.75 202.31 66.83 199.36"/><polygon class="cls-1" points="61.75 202.31 61.54 275.68 56.44 272.73 56.65 199.37 61.75 202.31"/><path class="cls-39" d="M34,153.25s10.8,44.4,0,64.8l309.6-180s-44.4-14.4-56.4-31.2Z"/><polygon class="cls-10" points="30.21 302.44 30.2 306.36 6.37 292.6 6.38 288.68 30.21 302.44"/><polygon class="cls-9" points="30.21 302.44 35.29 299.49 35.28 303.41 30.2 306.36 30.21 302.44"/><polygon class="cls-8" points="6.38 288.68 11.45 285.73 35.29 299.49 30.21 302.44 6.38 288.68"/><path class="cls-40" d="M34,153.25s-24,45.6-32.4,46.8l32.4,18S46,198.85,34,153.25Z"/><polygon class="cls-10" points="32.61 297.64 32.6 301.56 8.77 287.8 8.78 283.88 32.61 297.64"/><polygon class="cls-9" points="32.61 297.64 37.69 294.69 37.68 298.61 32.6 301.56 32.61 297.64"/><polygon class="cls-8" points="8.78 283.88 13.85 280.93 37.69 294.69 32.61 297.64 8.78 283.88"/><polygon class="cls-10" points="35.01 292.84 35 296.76 11.17 283 11.18 279.08 35.01 292.84"/><polygon class="cls-9" points="35.01 292.84 40.09 289.89 40.08 293.81 35 296.76 35.01 292.84"/><polygon class="cls-8" points="11.18 279.08 16.25 276.13 40.09 289.89 35.01 292.84 11.18 279.08"/><polygon class="cls-10" points="37.41 288.04 37.4 291.96 13.57 278.2 13.58 274.28 37.41 288.04"/><polygon class="cls-9" points="37.41 288.04 42.49 285.09 42.48 289.01 37.4 291.96 37.41 288.04"/><polygon class="cls-8" points="13.58 274.28 18.65 271.33 42.49 285.09 37.41 288.04 13.58 274.28"/><polygon class="cls-10" points="39.81 283.24 39.8 287.16 15.97 273.4 15.98 269.48 39.81 283.24"/><polygon class="cls-9" points="39.81 283.24 44.89 280.29 44.88 284.21 39.8 287.16 39.81 283.24"/><polygon class="cls-8" points="15.98 269.48 21.05 266.53 44.89 280.29 39.81 283.24 15.98 269.48"/><path class="cls-41" d="M56.44,147.41s9,46.37,5.31,53.7"/><path class="cls-41" d="M68.44,140.21s9,46.37,5.31,53.7"/><path class="cls-41" d="M78,133.18s11.13,45.91,7.75,53.4"/><path class="cls-41" d="M87.34,127.23S99,173,95.65,180.55"/><path class="cls-41" d="M96.94,121.23s11.61,45.78,8.31,53.32"/><path class="cls-41" d="M106.54,116.43s11.61,45.78,8.31,53.32"/><path class="cls-41" d="M116.14,110.43s11.61,45.78,8.31,53.32"/><path class="cls-41" d="M123.75,104.85s15,44.78,12.29,52.54"/><path class="cls-41" d="M130.39,99.35s18,43.67,15.82,51.6"/><path class="cls-41" d="M140,93.35S158,137,155.81,145"/><path class="cls-41" d="M148.39,89.75s18,43.67,15.82,51.6"/><path class="cls-41" d="M156,84s19.43,43.06,17.49,51.05"/><path class="cls-41" d="M162.5,80s22.56,41.5,21.22,49.61"/><path class="cls-41" d="M170.9,75.19s22.56,41.5,21.22,49.61"/><path class="cls-41" d="M179.3,70.39s22.56,41.5,21.22,49.61"/><path class="cls-41" d="M187.05,65.31S212.72,105,212,113.15"/><path class="cls-39" d="M36.11,160.42l11.12,50c0,.47-17.44,21.4-19.13-5.4a.47.47,0,0,1,.8-.38C32.3,208,44.11,216.29,36.11,160.42Z"/><path class="cls-42" d="M35.72,160.46s11.21,59-6.82,44.29C28.9,204.75,48,230.27,35.72,160.46Z"/><path class="cls-41" d="M44.89,155.65s7.14,37.2,2.34,52.8"/><path class="cls-39" d="M289.67,15.11,331.78,44s17-2.3,21-11a1.42,1.42,0,0,0-2-1.78C345.65,34.14,331.08,35.23,289.67,15.11Z"/><path class="cls-41" d="M283.45,16.68s42.18,31,48.18,27.37"/><path class="cls-41" d="M257.05,31.08s42.18,31,48.18,27.37"/><path class="cls-41" d="M248.65,35.88s42.18,31,48.18,27.37"/><path class="cls-41" d="M240.25,40.68s42.18,31,48.18,27.37"/><path class="cls-41" d="M232.61,44.24s40.5,33.13,46.68,29.85"/><path class="cls-41" d="M223.29,48.62s39.89,33.86,46.13,30.69"/><path class="cls-41" d="M214.27,52.59s38.63,35.29,45,32.35"/><path class="cls-41" d="M206.64,55s34.43,39.39,41.07,37.18"/><path class="cls-41" d="M200.12,56.88s28,44.17,34.94,43"/><path class="cls-41" d="M273.85,21.48S316,52.45,322,48.85"/><path class="cls-41" d="M264.25,26.28s42.18,31,48.18,27.37"/><path class="cls-40" d="M28.17,164.06,6.92,202.34a.48.48,0,0,1-.65.18l-6-3.34a.48.48,0,0,1,.13-.88C3.77,197.57,12.26,192.42,28.17,164.06Z"/><path class="cls-1" d="M28,164.05s-18,42-27.6,34.8C.43,198.85,10,198.85,28,164.05Z"/><g class="cls-16"><polygon class="cls-43" points="25.34 160.43 25.32 166.69 19.87 163.55 19.89 157.28 25.34 160.43"/><polygon class="cls-14" points="25.34 160.43 295.98 3.15 295.96 9.41 25.32 166.69 25.34 160.43"/><polygon class="cls-44" points="19.89 157.28 290.53 0 295.98 3.15 25.34 160.43 19.89 157.28"/></g><line class="cls-41" x1="197.62" y1="65.86" x2="222.43" y2="105.25"/><path class="cls-39" d="M428.9,110.08a10.78,10.78,0,0,0,1,.54"/><path class="cls-39" d="M132.5,341.68a10.78,10.78,0,0,0,1,.54"/></g></g></svg>