<svg xmlns="http://www.w3.org/2000/svg" xmlns:xlink="http://www.w3.org/1999/xlink" viewBox="0 0 282.33 245.09"><defs><style>.cls-1{fill:#534741;}.cls-2{fill:#96392b;}.cls-3{fill:#ddd4dd;}.cls-4{fill:#866765;}.cls-5{fill:#966;}.cls-6{fill:#888;}.cls-7{fill:#672922;}.cls-8{fill:#2f2f2f;}.cls-9{fill:#401a15;}.cls-10{fill:#5d514b;}.cls-11{isolation:isolate;}.cls-12{clip-path:url(#clip-path);}.cls-13{clip-path:url(#clip-path-2);}.cls-14{clip-path:url(#clip-path-3);}.cls-15{clip-path:url(#clip-path-4);}.cls-16{clip-path:url(#clip-path-5);}.cls-17{clip-path:url(#clip-path-6);}.cls-18{clip-path:url(#clip-path-7);}.cls-19{clip-path:url(#clip-path-8);}.cls-20{clip-path:url(#clip-path-9);}.cls-21{clip-path:url(#clip-path-10);}.cls-22{clip-path:url(#clip-path-11);}.cls-23{fill:#ddd;}.cls-24,.cls-38{fill:none;}.cls-24{stroke:#534741;stroke-miterlimit:10;stroke-width:0.96px;}.cls-25{clip-path:url(#clip-path-12);}.cls-26{clip-path:url(#clip-path-13);}.cls-27{clip-path:url(#clip-path-14);}.cls-28{clip-path:url(#clip-path-15);}.cls-29{clip-path:url(#clip-path-16);}.cls-30{clip-path:url(#clip-path-17);}.cls-31{clip-path:url(#clip-path-18);}.cls-32{clip-path:url(#clip-path-19);}.cls-33{clip-path:url(#clip-path-20);}.cls-34{clip-path:url(#clip-path-21);}.cls-35{clip-path:url(#clip-path-22);}.cls-36{fill:#3d433d;}.cls-37{fill:#3d3d3d;}.cls-38{stroke:#333;stroke-linecap:round;stroke-linejoin:round;stroke-width:1.92px;}.cls-39{fill:#333;}.cls-40{fill:#212121;}.cls-41{fill:#353535;}</style><clipPath id="clip-path"><path class="cls-1" d="M249.88,86.86l2-1.18c2.22,8.26.44,14,.34,14.3l-2,1.18C250.32,100.86,252.1,95.12,249.88,86.86Z"/></clipPath><clipPath id="clip-path-2"><path class="cls-1" d="M241.4,91.92l2-1.18c2.21,8.26.43,14,.34,14.3l-2,1.18C241.83,105.92,243.61,100.18,241.4,91.92Z"/></clipPath><clipPath id="clip-path-3"><path class="cls-1" d="M232.91,97l2-1.18c2.21,8.26.44,14,.34,14.3l-2,1.18C233.35,111,235.12,105.25,232.91,97Z"/></clipPath><clipPath id="clip-path-4"><path class="cls-1" d="M224.43,102.06l2-1.18c2.21,8.25.43,14,.34,14.3l-2,1.18C224.86,116.06,226.64,110.31,224.43,102.06Z"/></clipPath><clipPath id="clip-path-5"><path class="cls-1" d="M215.94,107.12l2-1.18c2.21,8.26.44,14,.34,14.3l-2,1.18C216.38,121.12,218.15,115.38,215.94,107.12Z"/></clipPath><clipPath id="clip-path-6"><path class="cls-1" d="M207.45,112.19l2-1.18c2.21,8.26.44,14,.34,14.3l-2,1.18C207.89,126.19,209.66,120.45,207.45,112.19Z"/></clipPath><clipPath id="clip-path-7"><path class="cls-1" d="M199,117.26l2-1.18c2.21,8.25.43,14,.34,14.3l-2,1.18C199.4,131.25,201.18,125.51,199,117.26Z"/></clipPath><clipPath id="clip-path-8"><path class="cls-1" d="M190.48,122.33l2-1.18c2.21,8.25.44,14,.34,14.3l-2,1.18C190.92,136.32,192.69,130.58,190.48,122.33Z"/></clipPath><clipPath id="clip-path-9"><path class="cls-1" d="M182,127.39l2-1.18c2.22,8.26.44,14,.35,14.3l-2,1.18C182.43,141.39,184.21,135.65,182,127.39Z"/></clipPath><clipPath id="clip-path-10"><path class="cls-1" d="M173.51,132.45l2-1.18c2.21,8.27.44,14,.34,14.31l-2,1.17C174,146.45,175.72,140.72,173.51,132.45Z"/></clipPath><clipPath id="clip-path-11"><path class="cls-1" d="M165,136.57l2-1.18c2.21,8.25.44,14,.34,14.3l-2,1.18C165.43,150.56,167.2,144.82,165,136.57Z"/></clipPath><clipPath id="clip-path-12"><path class="cls-1" d="M144.28,148.3l2-1.18c2.22,8.26.44,14,.34,14.3l-2,1.18C144.72,162.3,146.5,156.56,144.28,148.3Z"/></clipPath><clipPath id="clip-path-13"><path class="cls-1" d="M135.8,153.36l2-1.18c2.21,8.26.43,14,.34,14.3l-2,1.18C136.23,167.36,138,161.62,135.8,153.36Z"/></clipPath><clipPath id="clip-path-14"><path class="cls-1" d="M127.31,158.43l2-1.18c2.21,8.26.44,14,.34,14.3l-2,1.18C127.75,172.42,129.52,166.69,127.31,158.43Z"/></clipPath><clipPath id="clip-path-15"><path class="cls-1" d="M118.83,163.5l2-1.18c2.21,8.25.43,14,.34,14.3l-2,1.18C119.26,177.5,121,171.75,118.83,163.5Z"/></clipPath><clipPath id="clip-path-16"><path class="cls-1" d="M110.34,168.56l2-1.18c2.21,8.26.44,14,.34,14.3l-2,1.18C110.78,182.56,112.55,176.82,110.34,168.56Z"/></clipPath><clipPath id="clip-path-17"><path class="cls-1" d="M101.85,173.63l2-1.18c2.21,8.26.44,14,.34,14.3l-2,1.18C102.29,187.63,104.06,181.89,101.85,173.63Z"/></clipPath><clipPath id="clip-path-18"><path class="cls-1" d="M93.37,178.7l2-1.18c2.21,8.25.43,14,.34,14.3l-2,1.18C93.8,192.69,95.58,187,93.37,178.7Z"/></clipPath><clipPath id="clip-path-19"><path class="cls-1" d="M84.88,183.77l2-1.18c2.21,8.25.44,14,.34,14.3l-2,1.18C85.32,197.76,87.09,192,84.88,183.77Z"/></clipPath><clipPath id="clip-path-20"><path class="cls-1" d="M76.39,188.83l2-1.18c2.22,8.26.44,14,.35,14.3l-2,1.18C76.83,202.83,78.61,197.09,76.39,188.83Z"/></clipPath><clipPath id="clip-path-21"><path class="cls-1" d="M67.91,193.89l2-1.18c2.21,8.27.44,14,.34,14.31l-2,1.17C68.35,207.89,70.12,202.16,67.91,193.89Z"/></clipPath><clipPath id="clip-path-22"><path class="cls-1" d="M59.39,198l2-1.18c2.21,8.25.44,14,.34,14.3l-2,1.18C59.83,212,61.6,206.26,59.39,198Z"/></clipPath></defs><title>资源 2</title><g id="图层_2" data-name="图层 2"><g id="图层_1-2" data-name="图层 1"><polygon class="cls-2" points="237.76 44.4 237.84 70.22 136.36 128.81 136.29 102.98 237.76 44.4"/><polygon class="cls-3" points="282.23 86.73 41.36 226.71 9.36 208.23 250.22 68.25 282.23 86.73"/><polygon class="cls-4" points="282.23 86.73 282.21 94.57 41.34 234.54 41.36 226.71 282.23 86.73"/><polygon class="cls-5" points="41.36 226.71 41.34 234.54 9.33 216.06 9.36 208.23 41.36 226.71"/><polygon class="cls-6" points="11.78 165.86 11.78 209.96 252.82 69.8 252.82 32.36 11.78 165.86"/><polygon class="cls-7" points="265.62 35.65 261.56 38.01 257.48 35.65 261.54 33.29 265.62 35.65"/><polygon class="cls-8" points="265.62 35.65 265.45 94.34 261.39 96.7 261.56 38.01 265.62 35.65"/><polygon class="cls-1" points="261.56 38.01 261.39 96.7 257.31 94.34 257.48 35.65 261.56 38.01"/><polygon class="cls-9" points="252.29 92.16 252.33 93.75 250.96 93.01 250.93 91.42 252.29 92.16"/><polygon class="cls-1" points="252.29 92.16 259.06 88.23 259.1 89.82 252.33 93.75 252.29 92.16"/><polygon class="cls-10" points="250.93 91.42 257.69 87.49 259.06 88.23 252.29 92.16 250.93 91.42"/><path class="cls-8" d="M249.88,86.86c2.22,8.26.44,14,.34,14.3l-2-1.11c1.25-4-.26-13.79-.34-14.3Z"/><g class="cls-11"><path class="cls-1" d="M249.88,86.86l2-1.18c2.22,8.26.44,14,.34,14.3l-2,1.18C250.32,100.86,252.1,95.12,249.88,86.86Z"/><g class="cls-12"><g class="cls-11"><path class="cls-1" d="M249.88,86.86l2-1.18c.06.22.12.43.17.64l-2,1.18c-.05-.21-.11-.42-.17-.64"/><path class="cls-1" d="M250.05,87.5l2-1.18c.08.31.15.62.21.92l-2,1.18c-.06-.3-.13-.61-.21-.92"/><path class="cls-1" d="M250.26,88.42l2-1.18c.07.32.14.63.19.93l-2,1.18c0-.3-.12-.61-.19-.93"/><path class="cls-1" d="M250.45,89.35l2-1.18c.06.32.12.63.16.94l-2,1.18c0-.31-.1-.62-.16-.94"/><path class="cls-1" d="M250.61,90.29l2-1.18c.05.32.1.64.14.94l-2,1.18c0-.31-.09-.62-.14-.94"/><path class="cls-1" d="M250.75,91.23l2-1.18c0,.33.08.65.1,1l-2,1.18c0-.31-.07-.63-.11-1"/><path class="cls-1" d="M250.86,92.19l2-1.18c0,.33.06.66.08,1l-2,1.18c0-.31,0-.64-.07-1"/><path class="cls-1" d="M250.93,93.16,253,92c0,.34,0,.67,0,1l-2,1.18c0-.32,0-.65,0-1"/><path class="cls-1" d="M251,94.15,253,93c0,.35,0,.69,0,1l-2,1.18c0-.32,0-.66,0-1"/><path class="cls-1" d="M251,95.16,253,94c0,.36,0,.7,0,1l-2,1.18c0-.33,0-.67,0-1"/><path class="cls-1" d="M251,96.19,253,95c0,.37,0,.72-.07,1.06l-2,1.18c0-.34,0-.69.07-1.06"/><path class="cls-1" d="M250.9,97.25l2-1.18c0,.38-.07.73-.11,1.06l-2,1.18c0-.33.08-.68.11-1.06"/><path class="cls-1" d="M250.79,98.31l2-1.18c0,.38-.1.74-.15,1.05l-2,1.18q.08-.48.15-1"/><path class="cls-1" d="M250.64,99.36l2-1.18c-.07.37-.14.7-.2,1l-2,1.18c.06-.26.13-.59.2-1"/><path class="cls-1" d="M250.44,100.32l2-1.18c-.07.34-.14.59-.18.72l-2,1.18c0-.13.11-.38.18-.72"/><path class="cls-1" d="M250.26,101l2-1.18,0,.12-2,1.18,0-.12"/></g></g></g><polygon class="cls-10" points="247.84 85.75 249.87 84.57 251.91 85.68 249.88 86.86 247.84 85.75"/><polygon class="cls-9" points="243.65 96.96 243.69 98.55 242.32 97.81 242.29 96.22 243.65 96.96"/><polygon class="cls-1" points="243.65 96.96 250.42 93.03 250.46 94.62 243.69 98.55 243.65 96.96"/><polygon class="cls-10" points="242.29 96.22 249.05 92.29 250.42 93.03 243.65 96.96 242.29 96.22"/><path class="cls-8" d="M241.4,91.92c2.21,8.26.43,14,.34,14.3l-2-1.11c1.24-4-.26-13.78-.34-14.29Z"/><g class="cls-11"><path class="cls-1" d="M241.4,91.92l2-1.18c2.21,8.26.43,14,.34,14.3l-2,1.18C241.83,105.92,243.61,100.18,241.4,91.92Z"/><g class="cls-13"><g class="cls-11"><path class="cls-1" d="M241.4,91.92l2-1.18c0,.21.11.42.16.63l-2,1.18c-.05-.21-.11-.42-.16-.63"/><path class="cls-1" d="M241.56,92.55l2-1.18c.08.31.15.62.21.92l-2,1.18c-.06-.3-.13-.61-.21-.92"/><path class="cls-1" d="M241.77,93.47l2-1.18c.07.32.14.63.19.93l-2,1.18c-.05-.3-.12-.61-.19-.93"/><path class="cls-1" d="M242,94.4l2-1.18c.06.32.12.63.16.94l-2,1.18c0-.31-.11-.62-.17-.94"/><path class="cls-1" d="M242.13,95.34l2-1.18c.06.32.1.64.14,1l-2,1.18c0-.31-.08-.63-.13-1"/><path class="cls-1" d="M242.26,96.29l2-1.18c0,.33.08.65.11,1l-2,1.18c0-.31-.07-.63-.11-1"/><path class="cls-1" d="M242.37,97.25l2-1.18c0,.33,0,.66.07,1l-2,1.18c0-.31,0-.64-.07-1"/><path class="cls-1" d="M242.44,98.22l2-1.18c0,.34,0,.67.05,1l-2,1.17c0-.32,0-.65-.05-1"/><path class="cls-1" d="M242.49,99.21l2-1.17c0,.34,0,.68,0,1l-2,1.18c0-.33,0-.67,0-1"/><path class="cls-1" d="M242.5,100.23l2-1.18c0,.35,0,.7,0,1l-2,1.18c0-.33,0-.68,0-1"/><path class="cls-1" d="M242.48,101.26l2-1.18c0,.37,0,.73-.07,1.06l-2,1.18c0-.34.05-.69.07-1.06"/><path class="cls-1" d="M242.41,102.32l2-1.18c0,.38-.07.73-.11,1.06l-2,1.18c0-.33.08-.68.11-1.06"/><path class="cls-1" d="M242.3,103.38l2-1.18q-.08.58-.15,1l-2,1.18q.07-.47.15-1.05"/><path class="cls-1" d="M242.15,104.43l2-1.18c-.07.38-.14.7-.2,1l-2,1.18c.06-.27.13-.59.2-1"/><path class="cls-1" d="M242,105.4l2-1.18c-.07.34-.14.58-.18.71l-2,1.18c0-.13.11-.37.18-.71"/><path class="cls-1" d="M241.77,106.11l2-1.18a.45.45,0,0,0,0,.11l-2,1.18a.45.45,0,0,1,0-.11"/></g></g></g><polygon class="cls-10" points="239.36 90.82 241.39 89.64 243.43 90.74 241.4 91.92 239.36 90.82"/><polygon class="cls-9" points="235.16 102.03 235.2 103.62 233.84 102.88 233.8 101.29 235.16 102.03"/><polygon class="cls-1" points="235.16 102.03 241.93 98.09 241.97 99.69 235.2 103.62 235.16 102.03"/><polygon class="cls-10" points="233.8 101.29 240.57 97.36 241.93 98.09 235.16 102.03 233.8 101.29"/><path class="cls-8" d="M232.91,97c2.21,8.26.44,14,.34,14.3l-2-1.11c1.25-4-.26-13.78-.34-14.29Z"/><g class="cls-11"><path class="cls-1" d="M232.91,97l2-1.18c2.21,8.26.44,14,.34,14.3l-2,1.18C233.35,111,235.12,105.25,232.91,97Z"/><g class="cls-14"><g class="cls-11"><path class="cls-1" d="M232.91,97l2-1.18c.06.21.11.41.16.62l-2,1.18c0-.21-.1-.41-.16-.62"/><path class="cls-1" d="M233.07,97.61l2-1.18c.08.31.15.62.22.92l-2,1.18c-.07-.3-.14-.61-.22-.92"/><path class="cls-1" d="M233.29,98.53l2-1.18c.07.32.13.63.19.93l-2,1.18c-.06-.3-.12-.61-.19-.93"/><path class="cls-1" d="M233.48,99.46l2-1.18c.06.32.11.64.16,1l-2,1.18c0-.31-.1-.63-.16-1"/><path class="cls-1" d="M233.64,100.41l2-1.18c.05.32.1.63.13.94l-2,1.18c0-.31-.08-.62-.13-.94"/><path class="cls-1" d="M233.77,101.35l2-1.18c0,.33.08.65.11,1l-2,1.18c0-.32-.06-.64-.11-1"/><path class="cls-1" d="M233.88,102.32l2-1.18c0,.33.06.65.08,1l-2,1.18c0-.32-.05-.64-.08-1"/><path class="cls-1" d="M234,103.29l2-1.18c0,.34,0,.67,0,1l-2,1.18c0-.32,0-.65,0-1"/><path class="cls-1" d="M234,104.28l2-1.18c0,.35,0,.69,0,1l-2,1.18c0-.32,0-.66,0-1"/><path class="cls-1" d="M234,105.29l2-1.18c0,.36,0,.7,0,1l-2,1.18c0-.33,0-.67,0-1"/><path class="cls-1" d="M234,106.32l2-1.18c0,.38,0,.73-.06,1.07l-2,1.18c0-.34,0-.69.06-1.07"/><path class="cls-1" d="M233.93,107.39l2-1.18c0,.38-.07.73-.11,1.06l-2,1.18c0-.33.08-.69.11-1.06"/><path class="cls-1" d="M233.82,108.45l2-1.18c0,.38-.1.73-.16,1l-2,1.18c.06-.32.11-.67.16-1"/><path class="cls-1" d="M233.66,109.5l2-1.18c-.06.37-.13.7-.19,1l-2,1.18c.06-.26.13-.59.19-1"/><path class="cls-1" d="M233.47,110.46l2-1.18q-.12.51-.18.72l-2,1.18q.06-.21.18-.72"/><path class="cls-1" d="M233.29,111.18l2-1.18,0,.11-2,1.18,0-.11"/></g></g></g><polygon class="cls-10" points="230.87 95.89 232.9 94.71 234.94 95.81 232.91 96.99 230.87 95.89"/><polygon class="cls-9" points="226.68 107.1 226.72 108.69 225.35 107.95 225.32 106.36 226.68 107.1"/><polygon class="cls-1" points="226.68 107.1 233.44 103.17 233.48 104.75 226.72 108.69 226.68 107.1"/><polygon class="cls-10" points="225.32 106.36 232.08 102.43 233.44 103.17 226.68 107.1 225.32 106.36"/><path class="cls-8" d="M224.43,102.06c2.21,8.25.43,14,.34,14.3l-2-1.11c1.24-4-.27-13.79-.35-14.3Z"/><g class="cls-11"><path class="cls-1" d="M224.43,102.06l2-1.18c2.21,8.25.43,14,.34,14.3l-2,1.18C224.86,116.06,226.64,110.31,224.43,102.06Z"/><g class="cls-15"><g class="cls-11"><path class="cls-1" d="M224.43,102.06l2-1.18c0,.21.11.42.16.63l-2,1.18c-.05-.21-.11-.42-.16-.63"/><path class="cls-1" d="M224.59,102.69l2-1.18c.08.31.15.62.21.92l-2,1.18c-.06-.3-.13-.61-.21-.92"/><path class="cls-1" d="M224.8,103.61l2-1.18c.07.31.14.62.19.93l-2,1.18c-.05-.31-.12-.62-.19-.93"/><path class="cls-1" d="M225,104.54l2-1.18c.06.32.12.63.16.94l-2,1.18c0-.31-.1-.62-.16-.94"/><path class="cls-1" d="M225.15,105.48l2-1.18c.06.32.1.64.14,1l-2,1.18c0-.31-.08-.63-.14-1"/><path class="cls-1" d="M225.29,106.43l2-1.18c0,.32.08.64.11,1l-2,1.18c0-.32-.07-.64-.11-1"/><path class="cls-1" d="M225.4,107.39l2-1.18c0,.33,0,.65.07,1l-2,1.18c0-.32,0-.64-.07-1"/><path class="cls-1" d="M225.47,108.36l2-1.18c0,.34,0,.67.05,1l-2,1.18c0-.32,0-.65-.05-1"/><path class="cls-1" d="M225.52,109.35l2-1.18c0,.35,0,.69,0,1l-2,1.18c0-.32,0-.66,0-1"/><path class="cls-1" d="M225.53,110.36l2-1.18c0,.36,0,.7,0,1l-2,1.18c0-.33,0-.67,0-1"/><path class="cls-1" d="M225.51,111.39l2-1.18c0,.38,0,.73-.07,1.07l-2,1.18c0-.34.05-.69.07-1.07"/><path class="cls-1" d="M225.44,112.46l2-1.18c0,.38-.07.73-.11,1.06l-2,1.18c0-.33.08-.68.11-1.06"/><path class="cls-1" d="M225.33,113.52l2-1.18q-.08.59-.15,1l-2,1.18q.07-.46.15-1"/><path class="cls-1" d="M225.18,114.57l2-1.18c-.07.38-.14.7-.2,1l-2,1.18c.06-.26.13-.58.2-1"/><path class="cls-1" d="M225,115.53l2-1.18a7.2,7.2,0,0,1-.18.72l-2,1.18a7.2,7.2,0,0,0,.18-.72"/><path class="cls-1" d="M224.8,116.25l2-1.18a.45.45,0,0,0,0,.11l-2,1.18a.36.36,0,0,1,0-.11"/></g></g></g><polygon class="cls-10" points="222.38 100.95 224.41 99.77 226.46 100.88 224.43 102.06 222.38 100.95"/><polygon class="cls-9" points="218.19 112.16 218.23 113.75 216.87 113.01 216.83 111.42 218.19 112.16"/><polygon class="cls-1" points="218.19 112.16 224.96 108.23 225 109.82 218.23 113.75 218.19 112.16"/><polygon class="cls-10" points="216.83 111.42 223.6 107.49 224.96 108.23 218.19 112.16 216.83 111.42"/><path class="cls-8" d="M215.94,107.12c2.21,8.26.44,14,.34,14.3l-2-1.1c1.25-4-.26-13.79-.34-14.3Z"/><g class="cls-11"><path class="cls-1" d="M215.94,107.12l2-1.18c2.21,8.26.44,14,.34,14.3l-2,1.18C216.38,121.12,218.15,115.38,215.94,107.12Z"/><g class="cls-16"><g class="cls-11"><path class="cls-1" d="M215.94,107.12l2-1.18c.06.22.11.43.16.65l-2,1.18c0-.22-.1-.43-.16-.65"/><path class="cls-1" d="M216.1,107.77l2-1.18c.08.31.15.62.22.92l-2,1.18c-.07-.31-.14-.61-.22-.92"/><path class="cls-1" d="M216.32,108.69l2-1.18c.07.31.13.62.19.93l-2,1.18c-.06-.31-.12-.62-.19-.93"/><path class="cls-1" d="M216.51,109.62l2-1.18c.06.32.11.63.16.94l-2,1.18c0-.31-.1-.62-.16-.94"/><path class="cls-1" d="M216.67,110.56l2-1.18c.05.32.09.63.13.94l-2,1.18c0-.31-.08-.62-.13-.94"/><path class="cls-1" d="M216.8,111.5l2-1.18c0,.33.08.65.11,1l-2,1.18c0-.31-.07-.63-.11-1"/><path class="cls-1" d="M216.91,112.46l2-1.18c0,.34.06.66.08,1l-2,1.18c0-.32-.05-.65-.08-1"/><path class="cls-1" d="M217,113.44l2-1.18c0,.34,0,.67,0,1l-2,1.18c0-.32,0-.65,0-1"/><path class="cls-1" d="M217,114.43l2-1.18c0,.34,0,.68,0,1l-2,1.18c0-.33,0-.67,0-1"/><path class="cls-1" d="M217.05,115.44l2-1.18c0,.35,0,.7,0,1l-2,1.18c0-.33,0-.68,0-1"/><path class="cls-1" d="M217,116.47l2-1.18c0,.37,0,.72-.06,1.06l-2,1.18c0-.34,0-.69.06-1.06"/><path class="cls-1" d="M217,117.53l2-1.18c0,.38-.07.73-.11,1.06l-2,1.18c0-.33.08-.68.11-1.06"/><path class="cls-1" d="M216.85,118.59l2-1.18c0,.39-.11.74-.16,1l-2,1.18c.05-.31.11-.67.16-1"/><path class="cls-1" d="M216.69,119.64l2-1.18c-.06.38-.13.7-.19,1l-2,1.18c.06-.26.13-.59.19-1"/><path class="cls-1" d="M216.5,120.6l2-1.18c-.08.34-.15.58-.18.72l-2,1.18c0-.14.1-.38.18-.72"/><path class="cls-1" d="M216.32,121.32l2-1.18a.64.64,0,0,1,0,.1l-2,1.18,0-.1"/></g></g></g><polygon class="cls-10" points="213.9 106.02 215.93 104.84 217.97 105.94 215.94 107.12 213.9 106.02"/><polygon class="cls-9" points="209.71 117.23 209.75 118.82 208.38 118.08 208.35 116.5 209.71 117.23"/><polygon class="cls-1" points="209.71 117.23 216.47 113.3 216.51 114.89 209.75 118.82 209.71 117.23"/><polygon class="cls-10" points="208.35 116.5 215.11 112.56 216.47 113.3 209.71 117.23 208.35 116.5"/><path class="cls-8" d="M207.45,112.19c2.21,8.26.44,14,.34,14.3l-2-1.11c1.25-4-.26-13.78-.34-14.29Z"/><g class="cls-11"><path class="cls-1" d="M207.45,112.19l2-1.18c2.21,8.26.44,14,.34,14.3l-2,1.18C207.89,126.19,209.66,120.45,207.45,112.19Z"/><g class="cls-17"><g class="cls-11"><path class="cls-1" d="M207.45,112.19l2-1.18c.06.21.11.42.16.63l-2,1.18c-.05-.21-.1-.42-.16-.63"/><path class="cls-1" d="M207.61,112.82l2-1.18c.08.31.15.62.22.92l-2,1.18c-.07-.3-.14-.61-.22-.92"/><path class="cls-1" d="M207.83,113.74l2-1.18c.07.32.13.63.19.93l-2,1.18c-.06-.3-.12-.61-.19-.93"/><path class="cls-1" d="M208,114.67l2-1.18c.06.32.11.63.16.94l-2,1.18c-.05-.31-.1-.62-.16-.94"/><path class="cls-1" d="M208.18,115.61l2-1.18c0,.32.09.64.13.95l-2,1.18c0-.31-.08-.63-.13-1"/><path class="cls-1" d="M208.31,116.56l2-1.18c0,.33.08.65.11,1l-2,1.18c0-.31-.07-.64-.11-1"/><path class="cls-1" d="M208.42,117.52l2-1.18c0,.33.06.66.08,1l-2,1.18c0-.31-.05-.64-.08-1"/><path class="cls-1" d="M208.5,118.49l2-1.18c0,.34,0,.67,0,1l-2,1.18c0-.32,0-.65,0-1"/><path class="cls-1" d="M208.54,119.48l2-1.18c0,.35,0,.69,0,1l-2,1.18c0-.33,0-.67,0-1"/><path class="cls-1" d="M208.56,120.5l2-1.18c0,.35,0,.7,0,1l-2,1.18c0-.33,0-.68,0-1"/><path class="cls-1" d="M208.53,121.53l2-1.18c0,.37,0,.72-.06,1.06l-2,1.18c0-.34.05-.69.06-1.06"/><path class="cls-1" d="M208.47,122.59l2-1.18c0,.38-.07.73-.11,1.06l-2,1.18c0-.33.07-.68.11-1.06"/><path class="cls-1" d="M208.36,123.65l2-1.18c0,.39-.11.74-.16,1l-2,1.18c.05-.31.11-.66.16-1"/><path class="cls-1" d="M208.2,124.7l2-1.18c-.07.38-.13.7-.19,1l-2,1.18c.06-.27.12-.59.19-1"/><path class="cls-1" d="M208,125.67l2-1.18c-.08.34-.15.58-.19.71l-2,1.18c0-.13.11-.37.19-.71"/><path class="cls-1" d="M207.82,126.38l2-1.18a.39.39,0,0,1,0,.11l-2,1.18a.39.39,0,0,0,0-.11"/></g></g></g><polygon class="cls-10" points="205.41 111.08 207.44 109.91 209.48 111.01 207.45 112.19 205.41 111.08"/><polygon class="cls-9" points="201.22 122.3 201.25 123.88 199.89 123.15 199.85 121.56 201.22 122.3"/><polygon class="cls-1" points="201.22 122.3 207.99 118.37 208.02 119.95 201.25 123.88 201.22 122.3"/><polygon class="cls-10" points="199.85 121.56 206.62 117.63 207.99 118.37 201.22 122.3 199.85 121.56"/><path class="cls-8" d="M199,117.26c2.21,8.25.43,14,.34,14.3l-2-1.11c1.24-4-.26-13.78-.34-14.29Z"/><g class="cls-11"><path class="cls-1" d="M199,117.26l2-1.18c2.21,8.25.43,14,.34,14.3l-2,1.18C199.4,131.25,201.18,125.51,199,117.26Z"/><g class="cls-18"><g class="cls-11"><path class="cls-1" d="M199,117.26l2-1.18c.05.21.11.42.16.62l-2,1.18c0-.2-.11-.41-.16-.62"/><path class="cls-1" d="M199.13,117.88l2-1.18q.12.47.21.93l-2,1.18q-.09-.47-.21-.93"/><path class="cls-1" d="M199.34,118.81l2-1.18c.07.31.13.62.19.93l-2,1.18c-.06-.31-.12-.62-.19-.93"/><path class="cls-1" d="M199.53,119.74l2-1.18c.06.31.12.63.16.94l-2,1.18c0-.31-.1-.63-.16-.94"/><path class="cls-1" d="M199.69,120.68l2-1.18c.05.32.1.63.14.94l-2,1.18c0-.31-.09-.62-.14-.94"/><path class="cls-1" d="M199.83,121.62l2-1.18c0,.33.08.65.1,1l-2,1.18c0-.31-.07-.63-.11-1"/><path class="cls-1" d="M199.94,122.58l2-1.18c0,.34.06.66.08,1l-2,1.18c0-.32,0-.65-.07-1"/><path class="cls-1" d="M200,123.56l2-1.18c0,.34,0,.67.05,1l-2,1.18c0-.32,0-.65-.05-1"/><path class="cls-1" d="M200.06,124.55l2-1.18c0,.35,0,.68,0,1l-2,1.18c0-.33,0-.66,0-1"/><path class="cls-1" d="M200.07,125.56l2-1.18c0,.36,0,.7,0,1l-2,1.18c0-.33,0-.67,0-1"/><path class="cls-1" d="M200.05,126.59l2-1.18c0,.37,0,.73-.07,1.06l-2,1.18c0-.33.05-.69.07-1.06"/><path class="cls-1" d="M200,127.65l2-1.18c0,.38-.07.74-.11,1.07l-2,1.18c0-.33.08-.69.11-1.07"/><path class="cls-1" d="M199.87,128.72l2-1.18c-.05.38-.1.73-.16,1l-2,1.18q.08-.48.15-1.05"/><path class="cls-1" d="M199.72,129.77l2-1.18c-.06.38-.13.7-.19,1l-2,1.18c.06-.26.13-.59.2-1"/><path class="cls-1" d="M199.52,130.73l2-1.18c-.07.34-.14.59-.18.72l-2,1.18c0-.14.11-.38.18-.72"/><path class="cls-1" d="M199.34,131.45l2-1.18a.36.36,0,0,0,0,.11l-2,1.18a.36.36,0,0,1,0-.11"/></g></g></g><polygon class="cls-10" points="196.93 116.16 198.96 114.98 201 116.08 198.97 117.26 196.93 116.16"/><polygon class="cls-9" points="192.73 127.37 192.77 128.95 191.41 128.22 191.37 126.62 192.73 127.37"/><polygon class="cls-1" points="192.73 127.37 199.5 123.43 199.53 125.02 192.77 128.95 192.73 127.37"/><polygon class="cls-10" points="191.37 126.62 198.13 122.69 199.5 123.43 192.73 127.37 191.37 126.62"/><path class="cls-8" d="M190.48,122.33c2.21,8.25.44,14,.34,14.3l-2-1.11c1.25-4-.26-13.79-.34-14.3Z"/><g class="cls-11"><path class="cls-1" d="M190.48,122.33l2-1.18c2.21,8.25.44,14,.34,14.3l-2,1.18C190.92,136.32,192.69,130.58,190.48,122.33Z"/><g class="cls-19"><g class="cls-11"><path class="cls-1" d="M190.48,122.33l2-1.18c.06.21.11.42.16.62l-2,1.18c0-.2-.1-.41-.16-.62"/><path class="cls-1" d="M190.64,123l2-1.18c.08.32.15.62.22.93l-2,1.18c-.07-.31-.14-.61-.22-.93"/><path class="cls-1" d="M190.86,123.88l2-1.18c.07.31.13.62.19.93l-2,1.18c-.06-.31-.12-.62-.19-.93"/><path class="cls-1" d="M191.05,124.81l2-1.18c.06.31.11.63.16.94l-2,1.18c-.05-.31-.1-.63-.16-.94"/><path class="cls-1" d="M191.21,125.75l2-1.18c0,.32.09.63.13.94l-2,1.18c0-.31-.08-.62-.13-.94"/><path class="cls-1" d="M191.34,126.69l2-1.18c0,.33.08.65.11,1l-2,1.18c0-.31-.06-.63-.11-1"/><path class="cls-1" d="M191.45,127.65l2-1.18c0,.34.06.66.08,1l-2,1.18c0-.32-.05-.64-.08-1"/><path class="cls-1" d="M191.53,128.63l2-1.18c0,.34,0,.67,0,1l-2,1.18c0-.32,0-.65,0-1"/><path class="cls-1" d="M191.57,129.62l2-1.18c0,.35,0,.68,0,1l-2,1.18c0-.33,0-.66,0-1"/><path class="cls-1" d="M191.59,130.63l2-1.18c0,.36,0,.7,0,1l-2,1.18c0-.33,0-.67,0-1"/><path class="cls-1" d="M191.56,131.66l2-1.18c0,.37,0,.73-.06,1.07l-2,1.17c0-.33.05-.69.06-1.06"/><path class="cls-1" d="M191.5,132.72l2-1.17c0,.37-.07.73-.11,1.06l-2,1.18c0-.33.08-.69.11-1.07"/><path class="cls-1" d="M191.39,133.79l2-1.18c0,.38-.11.74-.16,1l-2,1.18c.05-.31.11-.67.16-1.05"/><path class="cls-1" d="M191.23,134.84l2-1.18c-.06.38-.13.7-.19,1l-2,1.18c.06-.26.13-.58.19-1"/><path class="cls-1" d="M191,135.8l2-1.18c-.08.34-.15.59-.19.72l-2,1.18c0-.13.1-.38.18-.72"/><path class="cls-1" d="M190.86,136.52l2-1.18a.53.53,0,0,1,0,.11l-2,1.18,0-.11"/></g></g></g><polygon class="cls-10" points="188.44 121.22 190.47 120.04 192.51 121.15 190.48 122.33 188.44 121.22"/><polygon class="cls-9" points="184.25 132.43 184.28 134.02 182.92 133.28 182.88 131.69 184.25 132.43"/><polygon class="cls-1" points="184.25 132.43 191.01 128.5 191.05 130.09 184.28 134.02 184.25 132.43"/><polygon class="cls-10" points="182.88 131.69 189.65 127.76 191.01 128.5 184.25 132.43 182.88 131.69"/><path class="cls-8" d="M182,127.39c2.22,8.26.44,14,.35,14.3l-2-1.11c1.24-4-.27-13.79-.35-14.3Z"/><g class="cls-11"><path class="cls-1" d="M182,127.39l2-1.18c2.22,8.26.44,14,.35,14.3l-2,1.18C182.43,141.39,184.21,135.65,182,127.39Z"/><g class="cls-20"><g class="cls-11"><path class="cls-1" d="M182,127.39l2-1.18c.06.22.11.43.17.64l-2,1.18c-.06-.21-.11-.42-.17-.64"/><path class="cls-1" d="M182.16,128l2-1.18c.07.32.15.62.21.93l-2,1.18c-.06-.31-.14-.61-.21-.93"/><path class="cls-1" d="M182.37,129l2-1.18c.07.31.13.62.19.93l-2,1.18c-.06-.31-.12-.62-.19-.93"/><path class="cls-1" d="M182.56,129.89l2-1.18c.06.31.11.63.16.94l-2,1.18c-.05-.31-.1-.63-.16-.94"/><path class="cls-1" d="M182.72,130.83l2-1.18c.05.32.1.63.14.94l-2,1.18c0-.31-.09-.62-.14-.94"/><path class="cls-1" d="M182.86,131.77l2-1.18c0,.33.07.65.1,1l-2,1.18c0-.31-.06-.63-.1-1"/><path class="cls-1" d="M183,132.73l2-1.18c0,.33.06.66.08,1l-2,1.17c0-.31,0-.64-.08-1"/><path class="cls-1" d="M183,133.7l2-1.17c0,.33,0,.66.05,1l-2,1.18c0-.33,0-.66-.05-1"/><path class="cls-1" d="M183.09,134.7l2-1.18c0,.34,0,.68,0,1l-2,1.18c0-.33,0-.67,0-1"/><path class="cls-1" d="M183.1,135.71l2-1.18c0,.35,0,.7,0,1l-2,1.18c0-.32,0-.67,0-1"/><path class="cls-1" d="M183.08,136.73l2-1.18c0,.38,0,.73-.06,1.07l-2,1.18c0-.34.05-.69.07-1.07"/><path class="cls-1" d="M183,137.8l2-1.18c0,.38-.07.73-.11,1.06l-2,1.18c0-.33.08-.68.11-1.06"/><path class="cls-1" d="M182.9,138.86l2-1.18c-.05.38-.1.73-.16,1l-2,1.18c.06-.32.11-.67.16-1"/><path class="cls-1" d="M182.74,139.91l2-1.18c-.06.37-.13.69-.19,1l-2,1.18c.06-.27.13-.59.19-1"/><path class="cls-1" d="M182.55,140.87l2-1.18c-.08.34-.14.58-.18.71l-2,1.18c0-.13.1-.37.18-.71"/><path class="cls-1" d="M182.37,141.58l2-1.18a.45.45,0,0,0,0,.11l-2,1.18a.45.45,0,0,1,0-.11"/></g></g></g><polygon class="cls-10" points="179.95 126.28 181.98 125.1 184.02 126.21 181.99 127.39 179.95 126.28"/><polygon class="cls-9" points="175.76 137.49 175.8 139.08 174.44 138.34 174.4 136.76 175.76 137.49"/><polygon class="cls-1" points="175.76 137.49 182.53 133.56 182.57 135.15 175.8 139.08 175.76 137.49"/><polygon class="cls-10" points="174.4 136.76 181.17 132.82 182.53 133.56 175.76 137.49 174.4 136.76"/><path class="cls-8" d="M173.51,132.45c2.21,8.27.44,14,.34,14.3l-2-1.1c1.25-4-.27-13.78-.34-14.3Z"/><g class="cls-11"><path class="cls-1" d="M173.51,132.45l2-1.18c2.21,8.27.44,14,.34,14.31l-2,1.17C174,146.45,175.72,140.72,173.51,132.45Z"/><g class="cls-21"><g class="cls-11"><path class="cls-1" d="M173.51,132.45l2-1.18c.05.22.11.43.16.64l-2,1.18c0-.21-.11-.42-.16-.64"/><path class="cls-1" d="M173.67,133.09l2-1.18c.08.32.15.62.22.93l-2,1.18c-.07-.31-.14-.62-.22-.93"/><path class="cls-1" d="M173.89,134l2-1.18c.06.31.13.62.19.93l-2,1.18c-.06-.31-.12-.62-.19-.93"/><path class="cls-1" d="M174.08,135l2-1.18c0,.32.11.63.16.94l-2,1.18c-.05-.31-.1-.62-.16-.94"/><path class="cls-1" d="M174.24,135.89l2-1.18c0,.32.09.64.13.95l-2,1.18c0-.31-.08-.63-.13-1"/><path class="cls-1" d="M174.37,136.84l2-1.18c0,.32.08.64.11,1l-2,1.18c0-.32-.07-.64-.11-1"/><path class="cls-1" d="M174.48,137.8l2-1.18c0,.33.06.65.08,1l-2,1.18c0-.32-.05-.64-.08-1"/><path class="cls-1" d="M174.56,138.77l2-1.18c0,.34,0,.67,0,1l-2,1.18c0-.32,0-.65,0-1"/><path class="cls-1" d="M174.6,139.76l2-1.18c0,.35,0,.69,0,1l-2,1.18c0-.32,0-.66,0-1"/><path class="cls-1" d="M174.61,140.77l2-1.18c0,.36,0,.7,0,1l-2,1.18c0-.33,0-.67,0-1"/><path class="cls-1" d="M174.59,141.8l2-1.18c0,.37,0,.73-.07,1.06l-2,1.18c0-.33.05-.69.06-1.06"/><path class="cls-1" d="M174.53,142.86l2-1.18c0,.38-.06.73-.1,1.06l-2,1.18c0-.33.07-.68.11-1.06"/><path class="cls-1" d="M174.42,143.92l2-1.18c0,.39-.11.74-.16,1l-2,1.18c.05-.31.11-.66.16-1.05"/><path class="cls-1" d="M174.26,145l2-1.18c-.07.38-.13.7-.19,1l-2,1.18c.06-.26.12-.58.19-1"/><path class="cls-1" d="M174.07,145.93l2-1.18c-.08.34-.15.58-.18.72l-2,1.18c0-.14.1-.38.18-.72"/><path class="cls-1" d="M173.89,146.65l2-1.18,0,.11-2,1.17a.64.64,0,0,0,0-.1"/></g></g></g><polygon class="cls-10" points="171.47 131.35 173.5 130.17 175.54 131.27 173.51 132.45 171.47 131.35"/><polygon class="cls-9" points="167.28 142.57 167.31 144.15 165.95 143.41 165.91 141.83 167.28 142.57"/><polygon class="cls-1" points="167.28 142.57 174.04 138.63 174.08 140.22 167.31 144.15 167.28 142.57"/><polygon class="cls-10" points="165.91 141.83 172.67 137.89 174.04 138.63 167.28 142.57 165.91 141.83"/><path class="cls-8" d="M165,136.57c2.21,8.25.44,14,.34,14.3l-2-1.11c1.25-4-.26-13.79-.34-14.3Z"/><g class="cls-11"><path class="cls-1" d="M165,136.57l2-1.18c2.21,8.25.44,14,.34,14.3l-2,1.18C165.43,150.56,167.2,144.82,165,136.57Z"/><g class="cls-22"><g class="cls-11"><path class="cls-1" d="M165,136.57l2-1.18c.06.21.11.42.16.62l-2,1.18c-.05-.2-.1-.41-.16-.62"/><path class="cls-1" d="M165.15,137.19l2-1.18c.08.32.15.62.22.93l-2,1.18c-.07-.31-.14-.61-.22-.93"/><path class="cls-1" d="M165.37,138.12l2-1.18c.07.31.13.62.19.93l-2,1.18c-.06-.31-.12-.62-.19-.93"/><path class="cls-1" d="M165.56,139.05l2-1.18c.06.32.11.63.16.94l-2,1.18c-.05-.31-.1-.63-.16-.94"/><path class="cls-1" d="M165.72,140l2-1.18c.05.32.1.63.13.94l-2,1.18c0-.31-.08-.62-.13-.94"/><path class="cls-1" d="M165.85,140.93l2-1.18c.05.33.08.65.11,1l-2,1.18c0-.31-.06-.63-.11-1"/><path class="cls-1" d="M166,141.89l2-1.18c0,.34.06.66.08,1l-2,1.18c0-.32,0-.64-.08-1"/><path class="cls-1" d="M166,142.87l2-1.18c0,.34,0,.67,0,1l-2,1.18c0-.32,0-.65,0-1"/><path class="cls-1" d="M166.08,143.86l2-1.18c0,.35,0,.69,0,1l-2,1.18c0-.32,0-.66,0-1"/><path class="cls-1" d="M166.1,144.87l2-1.18c0,.36,0,.7,0,1l-2,1.18c0-.33,0-.67,0-1"/><path class="cls-1" d="M166.07,145.9l2-1.18c0,.38,0,.73-.06,1.07L166,147c0-.34.05-.7.06-1.07"/><path class="cls-1" d="M166,147l2-1.18c0,.37-.07.73-.11,1.06l-2,1.18c0-.33.08-.69.11-1.06"/><path class="cls-1" d="M165.9,148l2-1.18c-.05.38-.1.74-.16,1.05l-2,1.18c.06-.31.11-.67.16-1.05"/><path class="cls-1" d="M165.74,149.08l2-1.18c-.06.38-.13.7-.19,1l-2,1.18c.06-.26.13-.58.19-1"/><path class="cls-1" d="M165.55,150l2-1.18c-.08.34-.15.59-.18.72l-2,1.18c0-.13.1-.38.18-.72"/><path class="cls-1" d="M165.37,150.76l2-1.18,0,.11-2,1.18,0-.11"/></g></g></g><polygon class="cls-10" points="162.95 135.46 164.98 134.28 167.02 135.39 164.99 136.57 162.95 135.46"/><polygon class="cls-9" points="158.78 147.63 158.82 149.22 157.46 148.48 157.42 146.89 158.78 147.63"/><polygon class="cls-23" points="212.32 25.56 212.5 89.23 62.59 175.78 62.41 112.11 212.32 25.56"/><polygon class="cls-24" points="204.84 29.23 205 86.53 70.08 164.43 69.92 107.13 204.84 29.23"/><polygon class="cls-1" points="158.78 147.63 165.55 143.69 165.59 145.28 158.82 149.22 158.78 147.63"/><polygon class="cls-10" points="157.42 146.89 164.19 142.96 165.55 143.69 158.78 147.63 157.42 146.89"/><polygon class="cls-7" points="159.06 98.05 155 100.41 150.92 98.05 154.98 95.69 159.06 98.05"/><polygon class="cls-8" points="159.06 98.05 158.89 156.74 154.83 159.1 155 100.41 159.06 98.05"/><polygon class="cls-1" points="155 100.41 154.83 159.1 150.75 156.74 150.92 98.05 155 100.41"/><polygon class="cls-9" points="146.69 153.6 146.73 155.19 145.36 154.45 145.33 152.86 146.69 153.6"/><polygon class="cls-1" points="146.69 153.6 153.46 149.67 153.5 151.26 146.73 155.19 146.69 153.6"/><polygon class="cls-10" points="145.33 152.86 152.09 148.93 153.46 149.67 146.69 153.6 145.33 152.86"/><polygon class="cls-23" points="5.14 161.96 11.78 165.86 11.86 217.64 5.14 213.8 5.14 161.96"/><path class="cls-8" d="M144.28,148.3c2.22,8.26.44,14,.34,14.3l-2-1.11c1.25-4-.26-13.79-.34-14.3Z"/><path class="cls-1" d="M144.28,148.3l2-1.18c2.22,8.26.44,14,.34,14.3l-2,1.18C144.72,162.3,146.5,156.56,144.28,148.3Z"/><g class="cls-25"><g class="cls-11"><path class="cls-1" d="M144.28,148.3l2-1.18c.06.22.12.43.17.64l-2,1.18c0-.21-.11-.42-.17-.64"/><path class="cls-1" d="M144.45,148.94l2-1.18c.08.31.15.62.21.92l-2,1.18c-.06-.3-.13-.61-.21-.92"/><path class="cls-1" d="M144.66,149.86l2-1.18c.07.32.14.63.19.93l-2,1.18c0-.3-.12-.61-.19-.93"/><path class="cls-1" d="M144.85,150.79l2-1.18c.06.32.12.63.16.94l-2,1.18c0-.31-.1-.62-.16-.94"/><path class="cls-1" d="M145,151.73l2-1.18c.05.32.1.64.14.94l-2,1.18c0-.31-.09-.62-.14-.94"/><path class="cls-1" d="M145.15,152.67l2-1.18c0,.33.08.65.1,1l-2,1.18c0-.31-.07-.63-.11-1"/><path class="cls-1" d="M145.26,153.63l2-1.18c0,.33.06.66.08,1l-2,1.18c0-.31,0-.64-.07-1"/><path class="cls-1" d="M145.33,154.6l2-1.18c0,.34,0,.67,0,1l-2,1.18c0-.32,0-.65,0-1"/><path class="cls-1" d="M145.38,155.59l2-1.18c0,.35,0,.69,0,1l-2,1.18c0-.32,0-.66,0-1"/><path class="cls-1" d="M145.39,156.6l2-1.18c0,.36,0,.7,0,1l-2,1.18c0-.33,0-.67,0-1"/><path class="cls-1" d="M145.37,157.63l2-1.18c0,.37,0,.72-.07,1.06l-2,1.18c0-.34,0-.69.07-1.06"/><path class="cls-1" d="M145.3,158.69l2-1.18c0,.38-.07.73-.11,1.06l-2,1.18c0-.33.08-.68.11-1.06"/><path class="cls-1" d="M145.19,159.75l2-1.18c-.05.38-.1.74-.15,1.05l-2,1.18q.08-.48.15-1.05"/><path class="cls-1" d="M145,160.8l2-1.18c-.07.37-.14.7-.2,1l-2,1.18c.06-.26.13-.59.2-1"/><path class="cls-1" d="M144.84,161.76l2-1.18c-.07.34-.14.59-.18.72l-2,1.18c0-.13.11-.38.18-.72"/><path class="cls-1" d="M144.66,162.48l2-1.18,0,.12-2,1.18,0-.12"/></g></g><polygon class="cls-10" points="142.24 147.19 144.27 146.01 146.31 147.12 144.28 148.3 142.24 147.19"/><polygon class="cls-9" points="138.05 158.4 138.09 159.99 136.72 159.25 136.69 157.66 138.05 158.4"/><polygon class="cls-1" points="138.05 158.4 144.82 154.47 144.86 156.06 138.09 159.99 138.05 158.4"/><polygon class="cls-10" points="136.69 157.66 143.45 153.73 144.82 154.47 138.05 158.4 136.69 157.66"/><path class="cls-8" d="M135.8,153.36c2.21,8.26.43,14,.34,14.3l-2-1.11c1.24-4-.26-13.78-.34-14.29Z"/><path class="cls-1" d="M135.8,153.36l2-1.18c2.21,8.26.43,14,.34,14.3l-2,1.18C136.23,167.36,138,161.62,135.8,153.36Z"/><g class="cls-26"><g class="cls-11"><path class="cls-1" d="M135.8,153.36l2-1.18c0,.21.11.42.16.63L136,154c-.05-.21-.11-.42-.16-.63"/><path class="cls-1" d="M136,154l2-1.18c.08.31.15.62.21.92l-2,1.18c-.06-.3-.13-.61-.21-.92"/><path class="cls-1" d="M136.17,154.91l2-1.18c.07.32.14.63.19.93l-2,1.18c-.05-.3-.12-.61-.19-.93"/><path class="cls-1" d="M136.36,155.84l2-1.18c.06.32.12.63.16.94l-2,1.18c-.05-.31-.11-.62-.17-.94"/><path class="cls-1" d="M136.53,156.78l2-1.18c.06.32.1.64.14,1l-2,1.18c0-.31-.08-.63-.13-.95"/><path class="cls-1" d="M136.66,157.73l2-1.18c0,.33.08.65.11,1l-2,1.18c0-.31-.07-.63-.11-1"/><path class="cls-1" d="M136.77,158.69l2-1.18c0,.33,0,.66.07,1l-2,1.18c0-.31,0-.64-.07-1"/><path class="cls-1" d="M136.84,159.66l2-1.18c0,.34,0,.67,0,1l-2,1.17c0-.32,0-.65,0-1"/><path class="cls-1" d="M136.89,160.65l2-1.17c0,.34,0,.68,0,1l-2,1.18c0-.33,0-.67,0-1"/><path class="cls-1" d="M136.9,161.67l2-1.18c0,.35,0,.7,0,1l-2,1.18c0-.33,0-.68,0-1"/><path class="cls-1" d="M136.88,162.7l2-1.18c0,.37,0,.73-.07,1.06l-2,1.18c0-.34.05-.69.07-1.06"/><path class="cls-1" d="M136.81,163.76l2-1.18c0,.38-.07.73-.11,1.06l-2,1.18c0-.33.08-.68.11-1.06"/><path class="cls-1" d="M136.7,164.82l2-1.18q-.07.59-.15,1.05l-2,1.18q.07-.47.15-1.05"/><path class="cls-1" d="M136.55,165.87l2-1.18c-.07.38-.14.7-.2,1l-2,1.18c.06-.27.13-.59.2-1"/><path class="cls-1" d="M136.35,166.84l2-1.18c-.07.34-.14.58-.18.71l-2,1.18c0-.13.11-.37.18-.71"/><path class="cls-1" d="M136.17,167.55l2-1.18a.45.45,0,0,0,0,.11l-2,1.18a.45.45,0,0,1,0-.11"/></g></g><polygon class="cls-10" points="133.76 152.26 135.79 151.08 137.83 152.18 135.8 153.36 133.76 152.26"/><polygon class="cls-9" points="129.56 163.47 129.6 165.06 128.24 164.32 128.2 162.73 129.56 163.47"/><polygon class="cls-1" points="129.56 163.47 136.33 159.53 136.37 161.13 129.6 165.06 129.56 163.47"/><polygon class="cls-10" points="128.2 162.73 134.97 158.8 136.33 159.53 129.56 163.47 128.2 162.73"/><path class="cls-8" d="M127.31,158.43c2.21,8.26.44,14,.34,14.3l-2-1.11c1.25-4-.26-13.78-.34-14.29Z"/><path class="cls-1" d="M127.31,158.43l2-1.18c2.21,8.26.44,14,.34,14.3l-2,1.18C127.75,172.42,129.52,166.69,127.31,158.43Z"/><g class="cls-27"><g class="cls-11"><path class="cls-1" d="M127.31,158.43l2-1.18c.06.21.11.41.16.62l-2,1.18c0-.21-.1-.41-.16-.62"/><path class="cls-1" d="M127.47,159.05l2-1.18c.08.31.15.62.22.92l-2,1.18c-.07-.3-.14-.61-.22-.92"/><path class="cls-1" d="M127.69,160l2-1.18c.07.32.13.63.19.93l-2,1.18c-.06-.3-.12-.61-.19-.93"/><path class="cls-1" d="M127.88,160.9l2-1.18c.06.32.11.64.16.95l-2,1.18c0-.31-.1-.63-.16-.95"/><path class="cls-1" d="M128,161.85l2-1.18c.05.32.1.63.13.94l-2,1.18c0-.31-.08-.62-.13-.94"/><path class="cls-1" d="M128.17,162.79l2-1.18c.05.33.08.65.11,1l-2,1.18c0-.32-.06-.64-.11-1"/><path class="cls-1" d="M128.28,163.76l2-1.18c0,.33.06.65.08,1l-2,1.18c0-.32-.05-.64-.08-1"/><path class="cls-1" d="M128.36,164.73l2-1.18c0,.34,0,.67,0,1l-2,1.18c0-.32,0-.65,0-1"/><path class="cls-1" d="M128.4,165.72l2-1.18c0,.35,0,.69,0,1l-2,1.18c0-.32,0-.66,0-1"/><path class="cls-1" d="M128.42,166.73l2-1.18c0,.36,0,.7,0,1l-2,1.18c0-.33,0-.67,0-1"/><path class="cls-1" d="M128.39,167.76l2-1.18c0,.38,0,.73-.06,1.07l-2,1.18c0-.34,0-.69.06-1.07"/><path class="cls-1" d="M128.33,168.83l2-1.18c0,.38-.07.73-.11,1.06l-2,1.18c0-.33.08-.69.11-1.06"/><path class="cls-1" d="M128.22,169.89l2-1.18c-.05.38-.1.73-.16,1l-2,1.18c.06-.32.11-.67.16-1.05"/><path class="cls-1" d="M128.06,170.94l2-1.18c-.06.37-.13.7-.19,1l-2,1.18c.06-.26.13-.59.19-1"/><path class="cls-1" d="M127.87,171.9l2-1.18q-.12.51-.18.72l-2,1.18q.06-.21.18-.72"/><path class="cls-1" d="M127.69,172.62l2-1.18,0,.11-2,1.18,0-.11"/></g></g><polygon class="cls-10" points="125.27 157.33 127.3 156.15 129.34 157.25 127.31 158.43 125.27 157.33"/><polygon class="cls-9" points="121.08 168.54 121.11 170.13 119.75 169.39 119.72 167.8 121.08 168.54"/><polygon class="cls-1" points="121.08 168.54 127.84 164.6 127.88 166.19 121.11 170.13 121.08 168.54"/><polygon class="cls-10" points="119.72 167.8 126.48 163.87 127.84 164.6 121.08 168.54 119.72 167.8"/><path class="cls-8" d="M118.83,163.5c2.21,8.25.43,14,.34,14.3l-2-1.11c1.24-4-.27-13.79-.35-14.3Z"/><path class="cls-1" d="M118.83,163.5l2-1.18c2.21,8.25.43,14,.34,14.3l-2,1.18C119.26,177.5,121,171.75,118.83,163.5Z"/><g class="cls-28"><g class="cls-11"><path class="cls-1" d="M118.83,163.5l2-1.18c0,.21.11.42.16.63l-2,1.18c0-.21-.11-.42-.16-.63"/><path class="cls-1" d="M119,164.13l2-1.18c.08.31.15.62.21.92l-2,1.18c-.06-.3-.13-.61-.21-.92"/><path class="cls-1" d="M119.2,165.05l2-1.18c.07.31.14.62.19.93l-2,1.18c0-.31-.12-.62-.19-.93"/><path class="cls-1" d="M119.39,166l2-1.18c.06.32.12.63.16.94l-2,1.18c0-.31-.1-.62-.16-.94"/><path class="cls-1" d="M119.55,166.92l2-1.18c.06.32.1.64.14.95l-2,1.18c0-.31-.08-.63-.14-1"/><path class="cls-1" d="M119.69,167.87l2-1.18c0,.32.08.64.11,1l-2,1.18c0-.32-.07-.64-.11-1"/><path class="cls-1" d="M119.8,168.83l2-1.18c0,.33,0,.65.07,1l-2,1.18c0-.32,0-.64-.07-1"/><path class="cls-1" d="M119.87,169.8l2-1.18c0,.34,0,.67,0,1l-2,1.18c0-.32,0-.65,0-1"/><path class="cls-1" d="M119.92,170.79l2-1.18c0,.35,0,.69,0,1l-2,1.18c0-.32,0-.66,0-1"/><path class="cls-1" d="M119.93,171.8l2-1.18c0,.36,0,.7,0,1l-2,1.18c0-.33,0-.67,0-1"/><path class="cls-1" d="M119.91,172.83l2-1.18c0,.38,0,.73-.07,1.07l-2,1.18c0-.34,0-.69.07-1.07"/><path class="cls-1" d="M119.84,173.9l2-1.18c0,.38-.07.73-.11,1.06l-2,1.18c0-.33.08-.68.11-1.06"/><path class="cls-1" d="M119.73,175l2-1.18q-.08.58-.15,1.05l-2,1.18q.08-.47.15-1"/><path class="cls-1" d="M119.58,176l2-1.18c-.07.38-.14.7-.2,1l-2,1.18c.06-.26.13-.58.2-1"/><path class="cls-1" d="M119.38,177l2-1.18a7.2,7.2,0,0,1-.18.72l-2,1.18a7.2,7.2,0,0,0,.18-.72"/><path class="cls-1" d="M119.2,177.69l2-1.18a.45.45,0,0,0,0,.11l-2,1.18a.36.36,0,0,1,0-.11"/></g></g><polygon class="cls-10" points="116.78 162.39 118.81 161.21 120.86 162.32 118.83 163.5 116.78 162.39"/><polygon class="cls-9" points="112.59 173.6 112.63 175.19 111.27 174.45 111.23 172.86 112.59 173.6"/><polygon class="cls-1" points="112.59 173.6 119.36 169.67 119.4 171.26 112.63 175.19 112.59 173.6"/><polygon class="cls-10" points="111.23 172.86 118 168.93 119.36 169.67 112.59 173.6 111.23 172.86"/><path class="cls-8" d="M110.34,168.56c2.21,8.26.44,14,.34,14.3l-2-1.1c1.25-4-.26-13.79-.34-14.3Z"/><path class="cls-1" d="M110.34,168.56l2-1.18c2.21,8.26.44,14,.34,14.3l-2,1.18C110.78,182.56,112.55,176.82,110.34,168.56Z"/><g class="cls-29"><g class="cls-11"><path class="cls-1" d="M110.34,168.56l2-1.18c.06.22.11.43.16.65l-2,1.18c0-.22-.1-.43-.16-.65"/><path class="cls-1" d="M110.5,169.21l2-1.18c.08.31.15.62.22.92l-2,1.18c-.07-.31-.14-.61-.22-.92"/><path class="cls-1" d="M110.72,170.13l2-1.18c.07.31.13.62.19.93l-2,1.18c-.06-.31-.12-.62-.19-.93"/><path class="cls-1" d="M110.91,171.06l2-1.18c.06.32.11.63.16.94l-2,1.18c0-.31-.1-.62-.16-.94"/><path class="cls-1" d="M111.07,172l2-1.18c.05.32.09.63.13.94l-2,1.18c0-.31-.08-.62-.13-.94"/><path class="cls-1" d="M111.2,172.94l2-1.18c0,.33.08.65.11,1l-2,1.18c0-.31-.07-.63-.11-1"/><path class="cls-1" d="M111.31,173.9l2-1.18c0,.34.06.66.08,1l-2,1.18c0-.32,0-.65-.08-1"/><path class="cls-1" d="M111.39,174.88l2-1.18c0,.34,0,.67,0,1l-2,1.18c0-.32,0-.65,0-1"/><path class="cls-1" d="M111.43,175.87l2-1.18c0,.34,0,.68,0,1l-2,1.18c0-.33,0-.67,0-1"/><path class="cls-1" d="M111.45,176.88l2-1.18c0,.35,0,.7,0,1l-2,1.18c0-.33,0-.68,0-1"/><path class="cls-1" d="M111.42,177.91l2-1.18c0,.37,0,.72-.06,1.06l-2,1.18c0-.34,0-.69.06-1.06"/><path class="cls-1" d="M111.36,179l2-1.18c0,.38-.07.73-.11,1.06l-2,1.18c0-.33.08-.68.11-1.06"/><path class="cls-1" d="M111.25,180l2-1.18c0,.39-.11.74-.16,1.05l-2,1.18c0-.31.11-.67.16-1.05"/><path class="cls-1" d="M111.09,181.08l2-1.18c-.06.38-.13.7-.19,1l-2,1.18c.06-.26.13-.59.19-1"/><path class="cls-1" d="M110.9,182l2-1.18c-.08.34-.15.58-.18.72l-2,1.18c0-.14.1-.38.18-.72"/><path class="cls-1" d="M110.72,182.76l2-1.18a.64.64,0,0,1,0,.1l-2,1.18,0-.1"/></g></g><polygon class="cls-10" points="108.3 167.46 110.33 166.28 112.37 167.38 110.34 168.56 108.3 167.46"/><polygon class="cls-9" points="104.11 178.67 104.15 180.26 102.78 179.52 102.75 177.94 104.11 178.67"/><polygon class="cls-1" points="104.11 178.67 110.87 174.74 110.91 176.33 104.15 180.26 104.11 178.67"/><polygon class="cls-10" points="102.75 177.94 109.51 174 110.87 174.74 104.11 178.67 102.75 177.94"/><path class="cls-8" d="M101.85,173.63c2.21,8.26.44,14,.34,14.3l-2-1.11c1.25-4-.26-13.78-.34-14.29Z"/><path class="cls-1" d="M101.85,173.63l2-1.18c2.21,8.26.44,14,.34,14.3l-2,1.18C102.29,187.63,104.06,181.89,101.85,173.63Z"/><g class="cls-30"><g class="cls-11"><path class="cls-1" d="M101.85,173.63l2-1.18c.06.21.11.42.16.63l-2,1.18c-.05-.21-.1-.42-.16-.63"/><path class="cls-1" d="M102,174.26l2-1.18c.08.31.15.62.22.92l-2,1.18c-.07-.3-.14-.61-.22-.92"/><path class="cls-1" d="M102.23,175.18l2-1.18c.07.32.13.63.19.93l-2,1.18c-.06-.3-.12-.61-.19-.93"/><path class="cls-1" d="M102.42,176.11l2-1.18c.06.32.11.63.16.94l-2,1.18c0-.31-.1-.62-.16-.94"/><path class="cls-1" d="M102.58,177.05l2-1.18c0,.32.09.64.13.95l-2,1.18c0-.31-.08-.63-.13-.95"/><path class="cls-1" d="M102.71,178l2-1.18c0,.33.08.65.11,1l-2,1.18c0-.31-.07-.64-.11-1"/><path class="cls-1" d="M102.82,179l2-1.18c0,.33.06.66.08,1l-2,1.18c0-.31-.05-.64-.08-1"/><path class="cls-1" d="M102.9,179.93l2-1.18c0,.34,0,.67,0,1l-2,1.18c0-.32,0-.65,0-1"/><path class="cls-1" d="M102.94,180.92l2-1.18c0,.35,0,.69,0,1l-2,1.18c0-.33,0-.67,0-1"/><path class="cls-1" d="M103,181.94l2-1.18c0,.35,0,.7,0,1l-2,1.18c0-.33,0-.68,0-1"/><path class="cls-1" d="M102.93,183l2-1.18c0,.37,0,.72-.06,1.06l-2,1.18c0-.34,0-.69.06-1.06"/><path class="cls-1" d="M102.87,184l2-1.18c0,.38-.07.73-.11,1.06l-2,1.18c0-.33.07-.68.11-1.06"/><path class="cls-1" d="M102.76,185.09l2-1.18c-.05.39-.11.74-.16,1.05l-2,1.18c.05-.31.11-.66.16-1"/><path class="cls-1" d="M102.6,186.14l2-1.18c-.07.38-.13.7-.19,1l-2,1.18c.06-.27.12-.59.19-1"/><path class="cls-1" d="M102.41,187.11l2-1.18c-.08.34-.15.58-.19.71l-2,1.18c0-.13.11-.37.19-.71"/><path class="cls-1" d="M102.22,187.82l2-1.18a.39.39,0,0,1,0,.11l-2,1.18a.39.39,0,0,0,0-.11"/></g></g><polygon class="cls-10" points="99.81 172.53 101.84 171.34 103.88 172.45 101.85 173.63 99.81 172.53"/><polygon class="cls-9" points="95.62 183.74 95.65 185.32 94.29 184.59 94.25 183 95.62 183.74"/><polygon class="cls-1" points="95.62 183.74 102.39 179.81 102.42 181.39 95.65 185.32 95.62 183.74"/><polygon class="cls-10" points="94.25 183 101.02 179.07 102.39 179.81 95.62 183.74 94.25 183"/><path class="cls-8" d="M93.37,178.7c2.21,8.25.43,14,.34,14.3l-2-1.11c1.24-4-.26-13.78-.34-14.29Z"/><path class="cls-1" d="M93.37,178.7l2-1.18c2.21,8.25.43,14,.34,14.3l-2,1.18C93.8,192.69,95.58,187,93.37,178.7Z"/><g class="cls-31"><g class="cls-11"><path class="cls-1" d="M93.37,178.7l2-1.18c0,.21.11.42.16.62l-2,1.18c0-.2-.11-.41-.16-.62"/><path class="cls-1" d="M93.53,179.32l2-1.18q.12.47.21.93l-2,1.18q-.09-.47-.21-.93"/><path class="cls-1" d="M93.74,180.25l2-1.18c.07.31.13.62.19.93l-2,1.18c-.06-.31-.12-.62-.19-.93"/><path class="cls-1" d="M93.93,181.18,96,180c.06.31.12.63.16.94l-2,1.18c0-.31-.1-.63-.16-.94"/><path class="cls-1" d="M94.09,182.12l2-1.18c0,.32.1.63.14.94l-2,1.18c0-.31-.09-.62-.14-.94"/><path class="cls-1" d="M94.23,183.06l2-1.18c0,.33.08.65.1,1l-2,1.18c0-.31-.07-.63-.11-1"/><path class="cls-1" d="M94.34,184l2-1.18c0,.34.06.66.08,1l-2,1.18c0-.32,0-.65-.07-1"/><path class="cls-1" d="M94.41,185l2-1.18c0,.34,0,.67,0,1l-2,1.18c0-.32,0-.65,0-1"/><path class="cls-1" d="M94.46,186l2-1.18c0,.35,0,.68,0,1l-2,1.18c0-.33,0-.66,0-1"/><path class="cls-1" d="M94.47,187l2-1.18c0,.36,0,.7,0,1l-2,1.18c0-.33,0-.67,0-1"/><path class="cls-1" d="M94.45,188l2-1.18c0,.37,0,.73-.07,1.06l-2,1.18c0-.33.05-.69.07-1.06"/><path class="cls-1" d="M94.38,189.09l2-1.18c0,.38-.07.74-.11,1.07l-2,1.18c0-.33.08-.69.11-1.07"/><path class="cls-1" d="M94.27,190.16l2-1.18c0,.38-.1.73-.16,1.05l-2,1.18q.07-.48.15-1.05"/><path class="cls-1" d="M94.12,191.21l2-1.18c-.06.38-.13.7-.19,1l-2,1.18c.06-.26.13-.59.2-1"/><path class="cls-1" d="M93.92,192.17,96,191c-.07.34-.14.59-.18.72l-2,1.18c0-.14.11-.38.18-.72"/><path class="cls-1" d="M93.74,192.89l2-1.18a.36.36,0,0,0,0,.11l-2,1.18a.36.36,0,0,1,0-.11"/></g></g><polygon class="cls-10" points="91.33 177.6 93.36 176.42 95.4 177.52 93.37 178.7 91.33 177.6"/><polygon class="cls-9" points="87.13 188.81 87.17 190.39 85.81 189.66 85.77 188.06 87.13 188.81"/><polygon class="cls-1" points="87.13 188.81 93.9 184.87 93.94 186.46 87.17 190.39 87.13 188.81"/><polygon class="cls-10" points="85.77 188.06 92.53 184.13 93.9 184.87 87.13 188.81 85.77 188.06"/><path class="cls-8" d="M84.88,183.77c2.21,8.25.44,14,.34,14.3l-2-1.11c1.25-4-.26-13.79-.34-14.3Z"/><path class="cls-1" d="M84.88,183.77l2-1.18c2.21,8.25.44,14,.34,14.3l-2,1.18C85.32,197.76,87.09,192,84.88,183.77Z"/><g class="cls-32"><g class="cls-11"><path class="cls-1" d="M84.88,183.77l2-1.18c.06.21.11.42.16.62l-2,1.18c-.05-.2-.1-.41-.16-.62"/><path class="cls-1" d="M85,184.39l2-1.18c.08.32.15.62.22.93l-2,1.18c-.07-.31-.14-.61-.22-.93"/><path class="cls-1" d="M85.26,185.32l2-1.18c.07.31.13.62.19.93l-2,1.18c-.06-.31-.12-.62-.19-.93"/><path class="cls-1" d="M85.45,186.25l2-1.18c.06.31.11.63.16.94l-2,1.18c0-.31-.1-.63-.16-.94"/><path class="cls-1" d="M85.61,187.19l2-1.18c0,.32.09.63.13.94l-2,1.18c0-.31-.08-.62-.13-.94"/><path class="cls-1" d="M85.74,188.13l2-1.18c0,.33.08.65.11,1l-2,1.18c0-.31-.06-.63-.11-1"/><path class="cls-1" d="M85.85,189.09l2-1.18c0,.34.06.66.08,1l-2,1.18c0-.32-.05-.64-.08-1"/><path class="cls-1" d="M85.93,190.07l2-1.18c0,.34,0,.67,0,1l-2,1.18c0-.32,0-.65,0-1"/><path class="cls-1" d="M86,191.06l2-1.18c0,.35,0,.68,0,1l-2,1.18c0-.33,0-.66,0-1"/><path class="cls-1" d="M86,192.07l2-1.18c0,.36,0,.7,0,1l-2,1.18c0-.33,0-.67,0-1"/><path class="cls-1" d="M86,193.1l2-1.18c0,.37,0,.73-.06,1.07l-2,1.17c0-.33,0-.69.06-1.06"/><path class="cls-1" d="M85.9,194.16l2-1.17c0,.37-.07.73-.11,1.06l-2,1.18c0-.33.08-.69.11-1.07"/><path class="cls-1" d="M85.79,195.23l2-1.18c0,.38-.11.74-.16,1l-2,1.18c.05-.31.11-.67.16-1.05"/><path class="cls-1" d="M85.63,196.28l2-1.18c-.06.38-.13.7-.19,1l-2,1.18c.06-.26.13-.58.19-1"/><path class="cls-1" d="M85.44,197.24l2-1.18c-.08.34-.15.59-.19.72l-2,1.18c0-.13.1-.38.18-.72"/><path class="cls-1" d="M85.26,198l2-1.18a.53.53,0,0,1,0,.11l-2,1.18,0-.11"/></g></g><polygon class="cls-10" points="82.84 182.66 84.87 181.48 86.91 182.59 84.88 183.77 82.84 182.66"/><polygon class="cls-9" points="78.65 193.87 78.68 195.46 77.32 194.72 77.28 193.13 78.65 193.87"/><polygon class="cls-1" points="78.65 193.87 85.41 189.94 85.45 191.53 78.68 195.46 78.65 193.87"/><polygon class="cls-10" points="77.28 193.13 84.05 189.2 85.41 189.94 78.65 193.87 77.28 193.13"/><path class="cls-8" d="M76.39,188.83c2.22,8.26.44,14,.35,14.3l-2-1.11c1.24-4-.27-13.79-.35-14.3Z"/><path class="cls-1" d="M76.39,188.83l2-1.18c2.22,8.26.44,14,.35,14.3l-2,1.18C76.83,202.83,78.61,197.09,76.39,188.83Z"/><g class="cls-33"><g class="cls-11"><path class="cls-1" d="M76.39,188.83l2-1.18c.06.22.11.43.17.64l-2,1.18c-.06-.21-.11-.42-.17-.64"/><path class="cls-1" d="M76.56,189.47l2-1.18c.07.32.15.62.21.93l-2,1.18c-.06-.31-.14-.61-.21-.93"/><path class="cls-1" d="M76.77,190.4l2-1.18c.07.31.13.62.19.93l-2,1.18c-.06-.31-.12-.62-.19-.93"/><path class="cls-1" d="M77,191.33l2-1.18c.06.31.11.63.16.94l-2,1.18c-.05-.31-.1-.63-.16-.94"/><path class="cls-1" d="M77.12,192.27l2-1.18c0,.32.1.63.14.94l-2,1.18c0-.31-.09-.62-.14-.94"/><path class="cls-1" d="M77.26,193.21l2-1.18c0,.33.07.65.1,1l-2,1.18c0-.31-.06-.63-.1-1"/><path class="cls-1" d="M77.36,194.17l2-1.18c0,.33.06.66.08,1l-2,1.17c0-.31,0-.64-.08-1"/><path class="cls-1" d="M77.44,195.14l2-1.17c0,.33,0,.66,0,1l-2,1.18c0-.33,0-.66,0-1"/><path class="cls-1" d="M77.49,196.14l2-1.18c0,.34,0,.68,0,1l-2,1.18c0-.33,0-.67,0-1"/><path class="cls-1" d="M77.5,197.15l2-1.18c0,.35,0,.7,0,1l-2,1.18c0-.32,0-.67,0-1"/><path class="cls-1" d="M77.48,198.17l2-1.18c0,.38,0,.73-.06,1.07l-2,1.18c0-.34,0-.69.07-1.07"/><path class="cls-1" d="M77.41,199.24l2-1.18c0,.38-.07.73-.11,1.06l-2,1.18c0-.33.08-.68.11-1.06"/><path class="cls-1" d="M77.3,200.3l2-1.18c0,.38-.1.73-.16,1l-2,1.18c.06-.32.11-.67.16-1"/><path class="cls-1" d="M77.14,201.35l2-1.18c-.06.37-.13.69-.19,1l-2,1.18c.06-.27.13-.59.19-1"/><path class="cls-1" d="M77,202.31l2-1.18c-.08.34-.14.58-.18.71l-2,1.18c0-.13.1-.37.18-.71"/><path class="cls-1" d="M76.77,203l2-1.18a.45.45,0,0,0,0,.11l-2,1.18a.45.45,0,0,1,0-.11"/></g></g><polygon class="cls-10" points="74.35 187.72 76.38 186.54 78.42 187.65 76.39 188.83 74.35 187.72"/><polygon class="cls-9" points="70.16 198.93 70.2 200.52 68.84 199.78 68.8 198.2 70.16 198.93"/><polygon class="cls-1" points="70.16 198.93 76.93 195 76.97 196.59 70.2 200.52 70.16 198.93"/><polygon class="cls-10" points="68.8 198.2 75.57 194.26 76.93 195 70.16 198.93 68.8 198.2"/><path class="cls-8" d="M67.91,193.89c2.21,8.27.44,14,.34,14.3l-2-1.1c1.25-4-.27-13.78-.34-14.3Z"/><path class="cls-1" d="M67.91,193.89l2-1.18c2.21,8.27.44,14,.34,14.31l-2,1.17C68.35,207.89,70.12,202.16,67.91,193.89Z"/><g class="cls-34"><g class="cls-11"><path class="cls-1" d="M67.91,193.89l2-1.18c0,.22.11.43.16.64l-2,1.18c0-.21-.11-.42-.16-.64"/><path class="cls-1" d="M68.07,194.53l2-1.18c.08.32.15.62.22.93l-2,1.18c-.07-.31-.14-.62-.22-.93"/><path class="cls-1" d="M68.29,195.46l2-1.18c.06.31.13.62.19.93l-2,1.18c-.06-.31-.12-.62-.19-.93"/><path class="cls-1" d="M68.48,196.39l2-1.18c0,.32.11.63.16.94l-2,1.18c0-.31-.1-.62-.16-.94"/><path class="cls-1" d="M68.64,197.33l2-1.18c0,.32.09.64.13.95l-2,1.18c0-.31-.08-.63-.13-.95"/><path class="cls-1" d="M68.77,198.28l2-1.18c0,.32.08.64.11,1l-2,1.18c0-.32-.07-.64-.11-1"/><path class="cls-1" d="M68.88,199.24l2-1.18c0,.33.06.65.08,1l-2,1.18c0-.32,0-.64-.08-1"/><path class="cls-1" d="M69,200.21,71,199c0,.34,0,.67,0,1l-2,1.18c0-.32,0-.65,0-1"/><path class="cls-1" d="M69,201.2,71,200c0,.35,0,.69,0,1l-2,1.18c0-.32,0-.66,0-1"/><path class="cls-1" d="M69,202.21,71,201c0,.36,0,.7,0,1l-2,1.18c0-.33,0-.67,0-1"/><path class="cls-1" d="M69,203.24l2-1.18c0,.37,0,.73-.07,1.06l-2,1.18c0-.33,0-.69.06-1.06"/><path class="cls-1" d="M68.93,204.3l2-1.18c0,.38-.06.73-.1,1.06l-2,1.18c0-.33.07-.68.11-1.06"/><path class="cls-1" d="M68.82,205.36l2-1.18c0,.39-.11.74-.16,1l-2,1.18c0-.31.11-.66.16-1"/><path class="cls-1" d="M68.66,206.41l2-1.18c-.07.38-.13.7-.19,1l-2,1.18c.06-.26.12-.58.19-1"/><path class="cls-1" d="M68.47,207.37l2-1.18c-.08.34-.15.58-.18.72l-2,1.18c0-.14.1-.38.18-.72"/><path class="cls-1" d="M68.29,208.09l2-1.18,0,.11-2,1.17a.64.64,0,0,0,0-.1"/></g></g><polygon class="cls-10" points="65.86 192.79 67.89 191.61 69.94 192.71 67.91 193.89 65.86 192.79"/><polygon class="cls-9" points="61.67 204.01 61.71 205.59 60.35 204.85 60.31 203.27 61.67 204.01"/><polygon class="cls-1" points="61.67 204.01 68.44 200.07 68.48 201.66 61.71 205.59 61.67 204.01"/><polygon class="cls-10" points="60.31 203.27 67.07 199.33 68.44 200.07 61.67 204.01 60.31 203.27"/><path class="cls-8" d="M59.39,198c2.21,8.25.44,14,.34,14.3l-2-1.11c1.25-4-.26-13.79-.34-14.3Z"/><path class="cls-1" d="M59.39,198l2-1.18c2.21,8.25.44,14,.34,14.3l-2,1.18C59.83,212,61.6,206.26,59.39,198Z"/><g class="cls-35"><g class="cls-11"><path class="cls-1" d="M59.39,198l2-1.18c.06.21.11.42.16.62l-2,1.18c0-.2-.1-.41-.16-.62"/><path class="cls-1" d="M59.55,198.63l2-1.18c.08.32.15.62.22.93l-2,1.18c-.07-.31-.14-.61-.22-.93"/><path class="cls-1" d="M59.77,199.56l2-1.18c.07.31.13.62.19.93l-2,1.18c-.06-.31-.12-.62-.19-.93"/><path class="cls-1" d="M60,200.49l2-1.18c.06.32.11.63.16.94l-2,1.18c0-.31-.1-.63-.16-.94"/><path class="cls-1" d="M60.12,201.43l2-1.18c.05.32.1.63.13.94l-2,1.18c0-.31-.08-.62-.13-.94"/><path class="cls-1" d="M60.25,202.37l2-1.18c0,.33.08.65.11,1l-2,1.18c0-.31-.06-.63-.11-1"/><path class="cls-1" d="M60.36,203.33l2-1.18c0,.34.06.66.08,1l-2,1.18c0-.32,0-.64-.08-1"/><path class="cls-1" d="M60.44,204.31l2-1.18c0,.34,0,.67,0,1l-2,1.18c0-.32,0-.65,0-1"/><path class="cls-1" d="M60.48,205.3l2-1.18c0,.35,0,.69,0,1l-2,1.18c0-.32,0-.66,0-1"/><path class="cls-1" d="M60.5,206.31l2-1.18c0,.36,0,.7,0,1l-2,1.18c0-.33,0-.67,0-1"/><path class="cls-1" d="M60.47,207.34l2-1.18c0,.38,0,.73-.06,1.07l-2,1.18c0-.34.05-.7.06-1.07"/><path class="cls-1" d="M60.41,208.41l2-1.18c0,.37-.07.73-.11,1.06l-2,1.18c0-.33.08-.69.11-1.06"/><path class="cls-1" d="M60.3,209.47l2-1.18c0,.38-.1.74-.16,1.05l-2,1.18c.06-.31.11-.67.16-1.05"/><path class="cls-1" d="M60.14,210.52l2-1.18c-.06.38-.13.7-.19,1l-2,1.18c.06-.26.13-.58.19-1"/><path class="cls-1" d="M60,211.48l2-1.18c-.08.34-.15.59-.18.72l-2,1.18c0-.13.1-.38.18-.72"/><path class="cls-1" d="M59.77,212.2l2-1.18,0,.11-2,1.18,0-.11"/></g></g><polygon class="cls-10" points="57.35 196.9 59.38 195.72 61.42 196.83 59.39 198.01 57.35 196.9"/><polygon class="cls-9" points="53.18 209.07 53.22 210.66 51.86 209.92 51.82 208.33 53.18 209.07"/><polygon class="cls-1" points="53.18 209.07 59.95 205.13 59.99 206.72 53.22 210.66 53.18 209.07"/><polygon class="cls-10" points="51.82 208.33 58.59 204.4 59.95 205.13 53.18 209.07 51.82 208.33"/><polygon class="cls-8" points="53.46 159.49 49.4 161.85 45.32 159.49 49.38 157.13 53.46 159.49"/><polygon class="cls-8" points="53.46 159.49 53.29 218.18 49.23 220.54 49.4 161.85 53.46 159.49"/><polygon class="cls-1" points="49.4 161.85 49.23 220.54 45.15 218.18 45.32 159.49 49.4 161.85"/><path class="cls-36" d="M27.22,122.6s8.64,35.52,0,51.84l247.68-144s-35.52-11.52-45.12-25Z"/><polygon class="cls-5" points="24.17 241.96 24.16 245.09 5.09 234.08 5.1 230.95 24.17 241.96"/><polygon class="cls-4" points="24.17 241.96 28.23 239.6 28.22 242.73 24.16 245.09 24.17 241.96"/><polygon class="cls-3" points="5.1 230.95 9.16 228.59 28.23 239.6 24.17 241.96 5.1 230.95"/><path class="cls-37" d="M27.22,122.6S8,159.08,1.3,160l25.92,14.4S36.82,159.08,27.22,122.6Z"/><polygon class="cls-5" points="26.09 238.12 26.08 241.25 7.01 230.24 7.02 227.11 26.09 238.12"/><polygon class="cls-4" points="26.09 238.12 30.15 235.76 30.14 238.89 26.08 241.25 26.09 238.12"/><polygon class="cls-3" points="7.02 227.11 11.08 224.75 30.15 235.76 26.09 238.12 7.02 227.11"/><polygon class="cls-5" points="28.01 234.28 28 237.41 8.93 226.4 8.94 223.27 28.01 234.28"/><polygon class="cls-4" points="28.01 234.28 32.07 231.92 32.06 235.05 28 237.41 28.01 234.28"/><polygon class="cls-3" points="8.94 223.27 13 220.91 32.07 231.92 28.01 234.28 8.94 223.27"/><polygon class="cls-5" points="29.93 230.44 29.92 233.57 10.85 222.56 10.86 219.43 29.93 230.44"/><polygon class="cls-4" points="29.93 230.44 33.99 228.08 33.98 231.21 29.92 233.57 29.93 230.44"/><polygon class="cls-3" points="10.86 219.43 14.92 217.07 33.99 228.08 29.93 230.44 10.86 219.43"/><polygon class="cls-5" points="31.85 226.59 31.84 229.73 12.77 218.72 12.78 215.59 31.85 226.59"/><polygon class="cls-4" points="31.85 226.59 35.91 224.24 35.9 227.37 31.84 229.73 31.85 226.59"/><polygon class="cls-3" points="12.78 215.59 16.84 213.23 35.91 224.24 31.85 226.59 12.78 215.59"/><path class="cls-38" d="M45.15,117.93s7.22,37.09,4.25,43"/><path class="cls-38" d="M54.75,112.17s7.22,37.09,4.25,43"/><path class="cls-38" d="M62.41,106.54s8.91,36.73,6.2,42.73"/><path class="cls-38" d="M69.87,101.78s9.29,36.63,6.65,42.66"/><path class="cls-38" d="M77.55,97s9.29,36.63,6.65,42.66"/><path class="cls-38" d="M85.23,93.14s9.29,36.63,6.65,42.66"/><path class="cls-38" d="M92.91,88.34S102.2,125,99.56,131"/><path class="cls-38" d="M99,83.88s12,35.83,9.83,42"/><path class="cls-38" d="M104.31,79.48s14.41,34.94,12.66,41.28"/><path class="cls-38" d="M112,74.68S126.4,109.62,124.65,116"/><path class="cls-38" d="M118.71,71.8s14.41,34.94,12.66,41.28"/><path class="cls-38" d="M124.76,67.23s15.55,34.45,14,40.84"/><path class="cls-38" d="M130,64s18.05,33.2,17,39.69"/><path class="cls-38" d="M136.72,60.15s18.05,33.2,17,39.69"/><path class="cls-38" d="M143.44,56.31s18.05,33.2,17,39.69"/><path class="cls-38" d="M149.64,52.24s20.53,31.73,20,38.28"/><path class="cls-36" d="M28.89,128.34l8.89,40c0,.37-14,17.12-15.3-4.32a.38.38,0,0,1,.64-.31C25.84,166.36,35.29,173,28.89,128.34Z"/><path class="cls-39" d="M28.58,128.37s9,47.19-5.46,35.43C23.12,163.8,38.38,184.22,28.58,128.37Z"/><path class="cls-38" d="M35.91,124.52s5.71,29.76,1.87,42.24"/><path class="cls-36" d="M231.74,12.09l33.68,23.08s13.63-1.84,16.81-8.81a1.14,1.14,0,0,0-1.62-1.43C276.52,27.31,264.87,28.18,231.74,12.09Z"/><path class="cls-38" d="M226.76,13.35S260.5,38.12,265.3,35.24"/><path class="cls-38" d="M205.64,24.87s33.74,24.77,38.54,21.89"/><path class="cls-38" d="M198.92,28.71s33.74,24.77,38.54,21.89"/><path class="cls-38" d="M192.2,32.55s33.74,24.77,38.54,21.89"/><path class="cls-38" d="M186.09,35.39s32.4,26.51,37.34,23.88"/><path class="cls-38" d="M178.63,38.9S210.54,66,215.53,63.45"/><path class="cls-38" d="M171.41,42.07S202.32,70.3,207.4,68"/><path class="cls-38" d="M165.31,44s27.55,31.52,32.86,29.75"/><path class="cls-38" d="M160.1,45.5s22.43,35.34,28,34.4"/><path class="cls-38" d="M219.08,17.19S252.82,42,257.62,39.08"/><path class="cls-38" d="M211.4,21s33.74,24.77,38.54,21.89"/><path class="cls-37" d="M22.53,131.25l-17,30.62A.38.38,0,0,1,5,162L.2,159.34a.38.38,0,0,1,.1-.7C3,158.06,9.81,153.94,22.53,131.25Z"/><path class="cls-1" d="M22.42,131.24S8,164.84.34,159.08C.34,159.08,8,159.08,22.42,131.24Z"/><g class="cls-11"><polygon class="cls-40" points="20.27 128.34 20.26 133.35 15.9 130.84 15.91 125.82 20.27 128.34"/><polygon class="cls-8" points="20.27 128.34 236.78 2.52 236.77 7.53 20.26 133.35 20.27 128.34"/><polygon class="cls-41" points="15.91 125.82 232.43 0 236.78 2.52 20.27 128.34 15.91 125.82"/></g><line class="cls-38" x1="158.1" y1="52.69" x2="177.94" y2="84.2"/></g></g></svg>