<svg xmlns="http://www.w3.org/2000/svg" xmlns:xlink="http://www.w3.org/1999/xlink" viewBox="0 0 237.29 254.39"><defs><style>.cls-1{fill:#333;}.cls-2{fill:#888;}.cls-3{fill:#ddd;}.cls-4{fill:#534741;}.cls-5{fill:#828282;}.cls-6{fill:#2d2623;}.cls-7{fill:#403732;}.cls-8{fill:#3d433d;}.cls-9{fill:#2f2f2f;}.cls-10{clip-path:url(#clip-path);}.cls-11{isolation:isolate;}.cls-12{clip-path:url(#clip-path-2);}.cls-13{fill:#1f221f;}.cls-14{fill:none;stroke:#333;stroke-linecap:round;stroke-linejoin:round;stroke-width:2.4px;}.cls-15{fill:#242424;}.cls-16{fill:#191919;}.cls-17{fill:#282828;}.cls-18{fill:#854f10;}</style><clipPath id="clip-path"><path class="cls-1" d="M160.86,161l-2.54-1.48c7.18-6.6,39.63-59.27,41.33-62l2.54,1.47C200.48,101.71,168,154.38,160.86,161Z"/></clipPath><clipPath id="clip-path-2"><path class="cls-1" d="M236,120.1l1.25-1.49c-6-1.83-38.73-22.91-40.45-24l-1.25,1.49C197.31,97.19,230,118.27,236,120.1Z"/></clipPath></defs><title>资源 3</title><g id="图层_2" data-name="图层 2"><g id="图层_1-2" data-name="图层 1"><polygon class="cls-2" points="228.84 118.73 163.72 156.57 17.3 72.04 82.42 34.19 228.84 118.73"/><polygon class="cls-2" points="228.84 118.73 228.57 216.55 163.45 254.39 163.72 156.57 228.84 118.73"/><polygon class="cls-3" points="163.72 156.57 163.45 254.39 17.03 169.86 17.3 72.04 163.72 156.57"/><polygon class="cls-4" points="50.25 118.7 50.17 148.04 24.63 133.3 24.72 103.95 50.25 118.7"/><polygon class="cls-5" points="38.21 111.75 38.12 141.09 37.7 140.85 37.27 140.6 37.36 111.26 38.21 111.75"/><polygon class="cls-5" points="50.21 132.88 50.21 133.86 24.67 119.11 24.67 118.13 50.21 132.88"/><polygon class="cls-4" points="154.65 175.1 154.57 204.44 129.03 189.69 129.11 160.35 154.65 175.1"/><polygon class="cls-5" points="142.61 168.15 142.52 197.5 142.09 197.25 141.67 197.01 141.76 167.66 142.61 168.15"/><polygon class="cls-6" points="94.67 166.58 94.54 214.35 69 199.61 69.13 151.83 94.67 166.58"/><polygon class="cls-5" points="81.55 159.02 81.41 206.81 80.87 206.49 80.33 206.18 80.46 158.4 81.55 159.02"/><polygon class="cls-5" points="154.61 189.28 154.61 190.25 129.07 175.51 129.07 174.53 154.61 189.28"/><ellipse class="cls-7" cx="200.34" cy="173.09" rx="16.2" ry="9.38" transform="translate(-49.98 259.33) rotate(-59.84)"/><polygon class="cls-8" points="165.75 162.71 7.45 70.71 42.35 4.51 200.64 96.5 165.75 162.71"/><polygon class="cls-9" points="200.64 96.5 235.8 122.26 165.75 162.71 200.64 96.5"/><path class="cls-4" d="M160.86,161c7.18-6.61,39.62-59.28,41.33-62.05v5.86l-36.83,59Z"/><path class="cls-1" d="M160.86,161l-2.54-1.48c7.18-6.6,39.63-59.27,41.33-62l2.54,1.47C200.48,101.71,168,154.38,160.86,161Z"/><g class="cls-10"><g class="cls-11"><path class="cls-1" d="M160.86,161l-2.54-1.48.29-.27,2.53,1.47-.28.28"/><path class="cls-1" d="M161.14,160.71l-2.53-1.47c.3-.3.64-.67,1-1.1l2.54,1.48c-.37.43-.71.79-1,1.09"/><path class="cls-1" d="M162.16,159.62l-2.54-1.48c.57-.66,1.22-1.46,1.94-2.39l2.54,1.48c-.72.93-1.37,1.73-1.94,2.39"/><path class="cls-1" d="M164.1,157.23c1.33-1.72,2.89-3.88,4.61-6.33l-2.53-1.48c-1.72,2.46-3.29,4.61-4.62,6.33l2.54,1.48-6.36,2.07-2-2.4c2.81,1.2,7.74-3.72,7.74-3.72Z"/><path class="cls-1" d="M168.71,150.9l-2.53-1.48c5-7.16,11.36-16.89,17.19-26l2.53,1.48c-5.82,9.11-12.17,18.84-17.19,26"/><path class="cls-1" d="M185.9,124.9l-2.53-1.48c8.28-13,15.5-24.68,16.28-25.95l2.54,1.47c-.78,1.27-8,13-16.29,26"/></g></g><path class="cls-4" d="M237.24,120.1c-6.05-1.83-38.73-22.91-40.45-24l1.38,3.29,36.92,23.5Z"/><path class="cls-1" d="M236,120.1l1.25-1.49c-6-1.83-38.73-22.91-40.45-24l-1.25,1.49C197.31,97.19,230,118.27,236,120.1Z"/><g class="cls-12"><g class="cls-11"><path class="cls-1" d="M236,120.1l1.25-1.49-.25-.08L235.8,120l.24.07"/><path class="cls-1" d="M235.8,120l1.24-1.5a7.68,7.68,0,0,1-.89-.35l-1.25,1.49q.51.22.9.36"/><path class="cls-1" d="M234.9,119.67l1.25-1.49c-.51-.22-1.11-.5-1.78-.83l-1.24,1.49c.66.33,1.26.61,1.77.83"/><path class="cls-1" d="M233.13,118.84l1.24-1.49c-1.23-.62-2.72-1.42-4.37-2.35l-1.25,1.49c1.65.93,3.14,1.73,4.38,2.35"/><path class="cls-1" d="M228.75,116.49,230,115c-4.83-2.7-11.09-6.51-16.87-10.1l-1.25,1.49c5.79,3.6,12.05,7.4,16.87,10.1"/><path class="cls-1" d="M211.88,106.39l1.25-1.49c-8.23-5.11-15.5-9.8-16.29-10.31l-1.25,1.49c.79.51,8.06,5.2,16.29,10.31"/></g></g><polygon class="cls-13" points="165.35 163.82 162.81 162.35 158.32 159.51 160.86 160.99 165.35 163.82"/><path class="cls-14" d="M60.54,18.9S30,75.73,18.25,75.51"/><path class="cls-8" d="M41.34,8.1,12.54,72.9s-15.6-6-12-7.2S24.54,40.5,41.34,8.1Z"/><path class="cls-14" d="M71.34,24.9S40.76,81.73,29.05,81.51"/><path class="cls-14" d="M82.14,30.9S51.56,87.73,39.85,87.51"/><path class="cls-14" d="M92.94,36.9S62.36,93.73,50.65,93.51"/><path class="cls-14" d="M102.54,42.9S72,99.73,60.25,99.51"/><path class="cls-14" d="M112.14,48.9s-30.58,56.83-42.29,56.61"/><path class="cls-14" d="M121.74,54.9s-30.58,56.83-42.29,56.61"/><path class="cls-14" d="M131.34,59.7s-30.58,56.83-42.29,56.61"/><path class="cls-14" d="M140.94,65.7s-30.58,56.83-42.29,56.61"/><path class="cls-14" d="M150.54,71.7S120,128.53,108.25,128.31"/><path class="cls-14" d="M161.34,77.7s-30.58,56.83-42.29,56.61"/><path class="cls-14" d="M170.94,82.5s-30.58,56.83-42.29,56.61"/><path class="cls-14" d="M49.74,11.7S19.16,68.53,7.45,68.31"/><path class="cls-14" d="M180.54,88.5S150,145.33,138.25,145.11"/><path class="cls-14" d="M190.14,94.5s-30.58,56.83-42.29,56.61"/><g class="cls-11"><polygon class="cls-15" points="207.94 97.32 207.95 101.62 204.2 103.79 204.19 99.48 207.94 97.32"/><polygon class="cls-16" points="204.2 103.79 36.74 6.47 36.73 2.16 204.19 99.48 204.2 103.79"/><polygon class="cls-17" points="204.19 99.48 36.73 2.16 40.48 0 207.94 97.32 204.19 99.48"/></g><path class="cls-1" d="M163.74,153.3s-6,7.2-9.6,6l4.8,3.6a71.84,71.84,0,0,0,7.2-8.4C168.54,150.9,163.74,153.3,163.74,153.3Z"/><polygon class="cls-4" points="161.34 160.5 165.75 162.71 164.94 165.29 158.94 162.9 161.34 160.5"/><path class="cls-18" d="M77.34,181.12a1.87,1.87,0,0,1,.85,1.46c0,.55-.38.77-.86.49a1.88,1.88,0,0,1-.84-1.47C76.49,181.07,76.87,180.85,77.34,181.12Z"/><path class="cls-18" d="M84.54,184.72a1.87,1.87,0,0,1,.85,1.46c0,.55-.38.77-.86.49a1.88,1.88,0,0,1-.84-1.47C83.69,184.67,84.07,184.45,84.54,184.72Z"/></g></g></svg>