<svg xmlns="http://www.w3.org/2000/svg" viewBox="0 0 343.33 308.79"><defs><style>.cls-1{fill:#4edc17;}.cls-2,.cls-5{fill:#2f2f2f;}.cls-3{fill:#534741;}.cls-4{fill:#5d514b;}.cls-5{stroke:#865d00;stroke-miterlimit:10;stroke-width:1.2px;}.cls-6{fill:#d3a42c;}</style></defs><title>资源 11</title><g id="图层_2" data-name="图层 2"><g id="图层_1-2" data-name="图层 1"><polygon class="cls-1" points="233.11 8.09 232.26 8.58 231.41 8.09 232.26 7.6 233.11 8.09"/><polygon class="cls-2" points="233.11 8.09 233.08 17.87 232.24 18.36 232.26 8.58 233.11 8.09"/><polygon class="cls-3" points="232.26 8.58 232.24 18.36 231.39 17.87 231.41 8.09 232.26 8.58"/><polygon class="cls-2" points="239.11 3.29 239.08 13.07 238.24 13.56 238.27 3.78 239.11 3.29"/><polygon class="cls-3" points="238.27 3.78 238.24 13.56 237.38 13.07 237.41 3.29 238.27 3.78"/><polygon class="cls-1" points="240.31 10.49 239.46 10.98 238.61 10.49 239.46 10 240.31 10.49"/><polygon class="cls-2" points="240.31 10.49 240.28 20.27 239.44 20.76 239.46 10.98 240.31 10.49"/><polygon class="cls-3" points="239.46 10.98 239.44 20.76 238.59 20.27 238.61 10.49 239.46 10.98"/><polygon class="cls-1" points="246.31 8.09 245.47 8.58 244.61 8.09 245.45 7.6 246.31 8.09"/><polygon class="cls-2" points="246.31 8.09 246.28 17.87 245.44 18.36 245.47 8.58 246.31 8.09"/><polygon class="cls-3" points="245.47 8.58 245.44 18.36 244.58 17.87 244.61 8.09 245.47 8.58"/><polygon class="cls-4" points="247.33 4.91 238.87 9.83 230.36 4.92 238.82 0 247.33 4.91"/><polygon class="cls-2" points="247.33 4.91 247.32 7.85 238.86 12.77 238.87 9.83 247.33 4.91"/><polygon class="cls-3" points="238.87 9.83 238.86 12.77 230.35 7.85 230.36 4.92 238.87 9.83"/><polygon class="cls-1" points="252.31 17.69 251.46 18.18 250.61 17.69 251.46 17.2 252.31 17.69"/><polygon class="cls-2" points="252.31 17.69 252.28 27.47 251.44 27.96 251.46 18.18 252.31 17.69"/><polygon class="cls-3" points="251.46 18.18 251.44 27.96 250.59 27.47 250.61 17.69 251.46 18.18"/><polygon class="cls-1" points="258.31 12.89 257.47 13.38 256.61 12.89 257.45 12.4 258.31 12.89"/><polygon class="cls-2" points="258.31 12.89 258.28 22.67 257.44 23.16 257.47 13.38 258.31 12.89"/><polygon class="cls-3" points="257.47 13.38 257.44 23.16 256.58 22.67 256.61 12.89 257.47 13.38"/><polygon class="cls-1" points="259.51 20.09 258.66 20.58 257.81 20.09 258.66 19.6 259.51 20.09"/><polygon class="cls-2" points="259.51 20.09 259.48 29.89 258.64 30.38 258.66 20.58 259.51 20.09"/><polygon class="cls-3" points="258.66 20.58 258.64 30.38 257.79 29.89 257.81 20.09 258.66 20.58"/><polygon class="cls-1" points="265.51 17.69 264.67 18.18 263.81 17.69 264.65 17.2 265.51 17.69"/><polygon class="cls-2" points="265.51 17.69 265.48 27.47 264.64 27.96 264.67 18.18 265.51 17.69"/><polygon class="cls-3" points="264.67 18.18 264.64 27.96 263.78 27.47 263.81 17.69 264.67 18.18"/><polygon class="cls-4" points="266.53 14.51 258.07 19.43 249.56 14.52 258.02 9.6 266.53 14.51"/><polygon class="cls-2" points="266.53 14.51 266.52 17.45 258.06 22.37 258.07 19.43 266.53 14.51"/><polygon class="cls-3" points="258.07 19.43 258.06 22.37 249.55 17.45 249.56 14.52 258.07 19.43"/><polygon class="cls-1" points="271.51 28.49 270.66 28.98 269.81 28.49 270.66 28 271.51 28.49"/><polygon class="cls-2" points="271.51 28.49 271.48 38.27 270.64 38.76 270.66 28.98 271.51 28.49"/><polygon class="cls-3" points="270.66 28.98 270.64 38.76 269.79 38.27 269.81 28.49 270.66 28.98"/><polygon class="cls-1" points="277.51 23.69 276.67 24.18 275.81 23.69 276.65 23.2 277.51 23.69"/><polygon class="cls-2" points="277.51 23.69 277.48 33.47 276.64 33.97 276.67 24.18 277.51 23.69"/><polygon class="cls-3" points="276.67 24.18 276.64 33.97 275.78 33.47 275.81 23.69 276.67 24.18"/><polygon class="cls-1" points="278.71 30.89 277.86 31.38 277.01 30.89 277.86 30.4 278.71 30.89"/><polygon class="cls-2" points="278.71 30.89 278.68 40.67 277.84 41.16 277.86 31.38 278.71 30.89"/><polygon class="cls-3" points="277.86 31.38 277.84 41.16 276.99 40.67 277.01 30.89 277.86 31.38"/><polygon class="cls-1" points="284.71 28.49 283.87 28.98 283.01 28.49 283.85 28 284.71 28.49"/><polygon class="cls-2" points="284.71 28.49 284.68 38.27 283.84 38.77 283.87 28.98 284.71 28.49"/><polygon class="cls-3" points="283.87 28.98 283.84 38.77 282.98 38.27 283.01 28.49 283.87 28.98"/><polygon class="cls-4" points="285.73 25.31 277.27 30.23 268.76 25.32 277.22 20.4 285.73 25.31"/><polygon class="cls-2" points="285.73 25.31 285.73 28.25 277.26 33.17 277.27 30.23 285.73 25.31"/><polygon class="cls-3" points="277.27 30.23 277.26 33.17 268.75 28.25 268.76 25.32 277.27 30.23"/><polygon class="cls-1" points="290.71 39.29 289.86 39.78 289.01 39.29 289.86 38.8 290.71 39.29"/><polygon class="cls-2" points="290.71 39.29 290.68 49.07 289.84 49.56 289.86 39.78 290.71 39.29"/><polygon class="cls-3" points="289.86 39.78 289.84 49.56 288.99 49.07 289.01 39.29 289.86 39.78"/><polygon class="cls-2" points="296.71 34.49 296.68 44.27 295.84 44.77 295.87 34.98 296.71 34.49"/><polygon class="cls-3" points="295.87 34.98 295.84 44.77 294.98 44.27 295.01 34.49 295.87 34.98"/><polygon class="cls-1" points="297.91 41.69 297.06 42.18 296.21 41.69 297.06 41.2 297.91 41.69"/><polygon class="cls-2" points="297.91 41.69 297.88 51.47 297.04 51.96 297.06 42.18 297.91 41.69"/><polygon class="cls-3" points="297.06 42.18 297.04 51.96 296.19 51.47 296.21 41.69 297.06 42.18"/><polygon class="cls-1" points="303.91 39.29 303.07 39.78 302.21 39.29 303.05 38.8 303.91 39.29"/><polygon class="cls-2" points="303.91 39.29 303.88 49.07 303.04 49.56 303.07 39.78 303.91 39.29"/><polygon class="cls-3" points="303.07 39.78 303.04 49.56 302.18 49.07 302.21 39.29 303.07 39.78"/><polygon class="cls-4" points="304.93 36.11 296.47 41.03 287.96 36.12 296.42 31.2 304.93 36.11"/><polygon class="cls-2" points="304.93 36.11 304.93 39.05 296.46 43.97 296.47 41.03 304.93 36.11"/><polygon class="cls-3" points="296.47 41.03 296.46 43.97 287.95 39.05 287.96 36.12 296.47 41.03"/><polygon class="cls-1" points="309.91 48.89 309.06 49.38 308.21 48.89 309.06 48.4 309.91 48.89"/><polygon class="cls-2" points="309.91 48.89 309.88 58.67 309.04 59.16 309.06 49.38 309.91 48.89"/><polygon class="cls-3" points="309.06 49.38 309.04 59.16 308.19 58.67 308.21 48.89 309.06 49.38"/><polygon class="cls-1" points="315.91 44.09 315.07 44.58 314.21 44.09 315.05 43.6 315.91 44.09"/><polygon class="cls-2" points="315.91 44.09 315.88 53.87 315.04 54.37 315.07 44.58 315.91 44.09"/><polygon class="cls-3" points="315.07 44.58 315.04 54.37 314.18 53.87 314.21 44.09 315.07 44.58"/><polygon class="cls-1" points="317.11 51.29 316.26 51.78 315.41 51.29 316.26 50.8 317.11 51.29"/><polygon class="cls-2" points="317.11 51.29 317.08 61.09 316.24 61.58 316.26 51.78 317.11 51.29"/><polygon class="cls-3" points="316.26 51.78 316.24 61.58 315.39 61.09 315.41 51.29 316.26 51.78"/><polygon class="cls-1" points="323.11 48.89 322.27 49.38 321.41 48.89 322.25 48.4 323.11 48.89"/><polygon class="cls-2" points="323.11 48.89 323.08 58.67 322.24 59.16 322.27 49.38 323.11 48.89"/><polygon class="cls-3" points="322.27 49.38 322.24 59.16 321.38 58.67 321.41 48.89 322.27 49.38"/><polygon class="cls-4" points="324.13 45.71 315.67 50.63 307.16 45.72 315.62 40.8 324.13 45.71"/><polygon class="cls-2" points="324.13 45.71 324.13 48.65 315.66 53.57 315.67 50.63 324.13 45.71"/><polygon class="cls-3" points="315.67 50.63 315.66 53.57 307.15 48.65 307.16 45.72 315.67 50.63"/><polygon class="cls-1" points="329.11 59.69 328.26 60.18 327.41 59.69 328.26 59.2 329.11 59.69"/><polygon class="cls-2" points="329.11 59.69 329.08 69.47 328.24 69.96 328.26 60.18 329.11 59.69"/><polygon class="cls-3" points="328.26 60.18 328.24 69.96 327.39 69.47 327.41 59.69 328.26 60.18"/><polygon class="cls-1" points="335.11 54.89 334.27 55.38 333.41 54.89 334.25 54.4 335.11 54.89"/><polygon class="cls-2" points="335.11 54.89 335.08 64.67 334.24 65.17 334.27 55.38 335.11 54.89"/><polygon class="cls-3" points="334.27 55.38 334.24 65.17 333.38 64.67 333.41 54.89 334.27 55.38"/><polygon class="cls-1" points="336.31 62.09 335.46 62.58 334.61 62.09 335.46 61.6 336.31 62.09"/><polygon class="cls-2" points="336.31 62.09 336.28 71.87 335.44 72.36 335.46 62.58 336.31 62.09"/><polygon class="cls-3" points="335.46 62.58 335.44 72.36 334.59 71.87 334.61 62.09 335.46 62.58"/><polygon class="cls-1" points="342.31 59.69 341.47 60.18 340.61 59.69 341.45 59.2 342.31 59.69"/><polygon class="cls-2" points="342.31 59.69 342.28 69.47 341.44 69.97 341.47 60.18 342.31 59.69"/><polygon class="cls-3" points="341.47 60.18 341.44 69.97 340.58 69.47 340.61 59.69 341.47 60.18"/><polygon class="cls-4" points="343.33 56.51 334.87 61.43 326.36 56.52 334.82 51.6 343.33 56.51"/><polygon class="cls-2" points="343.33 56.51 343.32 59.45 334.86 64.37 334.87 61.43 343.33 56.51"/><polygon class="cls-3" points="334.87 61.43 334.86 64.37 326.35 59.45 326.36 56.52 334.87 61.43"/><polygon class="cls-1" points="213.91 21.29 213.06 21.78 212.21 21.29 213.06 20.8 213.91 21.29"/><polygon class="cls-2" points="213.91 21.29 213.88 31.07 213.04 31.56 213.06 21.78 213.91 21.29"/><polygon class="cls-3" points="213.06 21.78 213.04 31.56 212.19 31.07 212.21 21.29 213.06 21.78"/><polygon class="cls-2" points="219.91 16.49 219.88 26.27 219.04 26.77 219.07 16.98 219.91 16.49"/><polygon class="cls-3" points="219.07 16.98 219.04 26.77 218.18 26.27 218.21 16.49 219.07 16.98"/><polygon class="cls-1" points="221.11 23.69 220.26 24.18 219.41 23.69 220.26 23.2 221.11 23.69"/><polygon class="cls-2" points="221.11 23.69 221.08 33.47 220.24 33.96 220.26 24.18 221.11 23.69"/><polygon class="cls-3" points="220.26 24.18 220.24 33.96 219.39 33.47 219.41 23.69 220.26 24.18"/><polygon class="cls-1" points="227.11 21.29 226.27 21.78 225.41 21.29 226.25 20.8 227.11 21.29"/><polygon class="cls-2" points="227.11 21.29 227.08 31.07 226.24 31.57 226.27 21.78 227.11 21.29"/><polygon class="cls-3" points="226.27 21.78 226.24 31.57 225.38 31.07 225.41 21.29 226.27 21.78"/><polygon class="cls-4" points="228.13 18.11 219.67 23.03 211.16 18.12 219.62 13.2 228.13 18.11"/><polygon class="cls-2" points="228.13 18.11 228.13 21.05 219.66 25.97 219.67 23.03 228.13 18.11"/><polygon class="cls-3" points="219.67 23.03 219.66 25.97 211.15 21.05 211.16 18.12 219.67 23.03"/><polygon class="cls-1" points="233.11 30.89 232.26 31.38 231.41 30.89 232.26 30.4 233.11 30.89"/><polygon class="cls-2" points="233.11 30.89 233.08 40.67 232.24 41.16 232.26 31.38 233.11 30.89"/><polygon class="cls-3" points="232.26 31.38 232.24 41.16 231.39 40.67 231.41 30.89 232.26 31.38"/><polygon class="cls-1" points="239.11 26.09 238.27 26.58 237.41 26.09 238.25 25.6 239.11 26.09"/><polygon class="cls-2" points="239.11 26.09 239.08 35.87 238.24 36.37 238.27 26.58 239.11 26.09"/><polygon class="cls-3" points="238.27 26.58 238.24 36.37 237.38 35.87 237.41 26.09 238.27 26.58"/><polygon class="cls-1" points="240.31 33.29 239.46 33.78 238.61 33.29 239.46 32.8 240.31 33.29"/><polygon class="cls-2" points="240.31 33.29 240.28 43.09 239.44 43.58 239.46 33.78 240.31 33.29"/><polygon class="cls-3" points="239.46 33.78 239.44 43.58 238.59 43.09 238.61 33.29 239.46 33.78"/><polygon class="cls-1" points="246.31 30.89 245.47 31.38 244.61 30.89 245.45 30.4 246.31 30.89"/><polygon class="cls-2" points="246.31 30.89 246.28 40.67 245.44 41.16 245.47 31.38 246.31 30.89"/><polygon class="cls-3" points="245.47 31.38 245.44 41.16 244.58 40.67 244.61 30.89 245.47 31.38"/><polygon class="cls-4" points="247.33 27.71 238.87 32.63 230.36 27.72 238.82 22.8 247.33 27.71"/><polygon class="cls-2" points="247.33 27.71 247.32 30.65 238.86 35.57 238.87 32.63 247.33 27.71"/><polygon class="cls-3" points="238.87 32.63 238.86 35.57 230.35 30.65 230.36 27.72 238.87 32.63"/><polygon class="cls-1" points="252.31 41.69 251.46 42.18 250.61 41.69 251.46 41.2 252.31 41.69"/><polygon class="cls-2" points="252.31 41.69 252.28 51.47 251.44 51.96 251.46 42.18 252.31 41.69"/><polygon class="cls-3" points="251.46 42.18 251.44 51.96 250.59 51.47 250.61 41.69 251.46 42.18"/><polygon class="cls-1" points="258.31 36.89 257.47 37.38 256.61 36.89 257.45 36.4 258.31 36.89"/><polygon class="cls-2" points="258.31 36.89 258.28 46.67 257.44 47.16 257.47 37.38 258.31 36.89"/><polygon class="cls-3" points="257.47 37.38 257.44 47.16 256.58 46.67 256.61 36.89 257.47 37.38"/><polygon class="cls-1" points="259.51 44.09 258.66 44.58 257.81 44.09 258.66 43.6 259.51 44.09"/><polygon class="cls-2" points="259.51 44.09 259.48 53.87 258.64 54.36 258.66 44.58 259.51 44.09"/><polygon class="cls-3" points="258.66 44.58 258.64 54.36 257.79 53.87 257.81 44.09 258.66 44.58"/><polygon class="cls-1" points="265.51 41.69 264.67 42.18 263.81 41.69 264.65 41.2 265.51 41.69"/><polygon class="cls-2" points="265.51 41.69 265.48 51.47 264.64 51.97 264.67 42.18 265.51 41.69"/><polygon class="cls-3" points="264.67 42.18 264.64 51.97 263.78 51.47 263.81 41.69 264.67 42.18"/><polygon class="cls-4" points="266.53 38.51 258.07 43.43 249.56 38.52 258.02 33.6 266.53 38.51"/><polygon class="cls-2" points="266.53 38.51 266.52 41.45 258.06 46.37 258.07 43.43 266.53 38.51"/><polygon class="cls-3" points="258.07 43.43 258.06 46.37 249.55 41.45 249.56 38.52 258.07 43.43"/><polygon class="cls-1" points="271.51 52.49 270.66 52.98 269.81 52.49 270.66 52 271.51 52.49"/><polygon class="cls-2" points="271.51 52.49 271.48 62.27 270.64 62.76 270.66 52.98 271.51 52.49"/><polygon class="cls-3" points="270.66 52.98 270.64 62.76 269.79 62.27 269.81 52.49 270.66 52.98"/><polygon class="cls-2" points="277.51 47.69 277.48 57.47 276.64 57.97 276.67 48.18 277.51 47.69"/><polygon class="cls-3" points="276.67 48.18 276.64 57.97 275.78 57.47 275.81 47.69 276.67 48.18"/><polygon class="cls-1" points="278.71 54.89 277.86 55.38 277.01 54.89 277.86 54.4 278.71 54.89"/><polygon class="cls-2" points="278.71 54.89 278.68 64.67 277.84 65.16 277.86 55.38 278.71 54.89"/><polygon class="cls-3" points="277.86 55.38 277.84 65.16 276.99 64.67 277.01 54.89 277.86 55.38"/><polygon class="cls-1" points="284.71 52.49 283.87 52.98 283.01 52.49 283.85 52 284.71 52.49"/><polygon class="cls-2" points="284.71 52.49 284.68 62.27 283.84 62.77 283.87 52.98 284.71 52.49"/><polygon class="cls-3" points="283.87 52.98 283.84 62.77 282.98 62.27 283.01 52.49 283.87 52.98"/><polygon class="cls-4" points="285.73 49.31 277.27 54.23 268.76 49.32 277.22 44.4 285.73 49.31"/><polygon class="cls-2" points="285.73 49.31 285.73 52.25 277.26 57.17 277.27 54.23 285.73 49.31"/><polygon class="cls-3" points="277.27 54.23 277.26 57.17 268.75 52.25 268.76 49.32 277.27 54.23"/><polygon class="cls-1" points="290.71 62.09 289.86 62.58 289.01 62.09 289.86 61.6 290.71 62.09"/><polygon class="cls-2" points="290.71 62.09 290.68 71.87 289.84 72.36 289.86 62.58 290.71 62.09"/><polygon class="cls-3" points="289.86 62.58 289.84 72.36 288.99 71.87 289.01 62.09 289.86 62.58"/><polygon class="cls-1" points="296.71 57.29 295.87 57.78 295.01 57.29 295.85 56.8 296.71 57.29"/><polygon class="cls-2" points="296.71 57.29 296.68 67.07 295.84 67.56 295.87 57.78 296.71 57.29"/><polygon class="cls-3" points="295.87 57.78 295.84 67.56 294.98 67.07 295.01 57.29 295.87 57.78"/><polygon class="cls-1" points="297.91 64.49 297.06 64.98 296.21 64.49 297.06 64 297.91 64.49"/><polygon class="cls-2" points="297.91 64.49 297.88 74.29 297.04 74.78 297.06 64.98 297.91 64.49"/><polygon class="cls-3" points="297.06 64.98 297.04 74.78 296.19 74.29 296.21 64.49 297.06 64.98"/><polygon class="cls-1" points="303.91 62.09 303.07 62.58 302.21 62.09 303.05 61.6 303.91 62.09"/><polygon class="cls-2" points="303.91 62.09 303.88 71.87 303.04 72.36 303.07 62.58 303.91 62.09"/><polygon class="cls-3" points="303.07 62.58 303.04 72.36 302.18 71.87 302.21 62.09 303.07 62.58"/><polygon class="cls-4" points="304.93 58.91 296.47 63.83 287.96 58.92 296.42 54 304.93 58.91"/><polygon class="cls-2" points="304.93 58.91 304.93 61.85 296.46 66.77 296.47 63.83 304.93 58.91"/><polygon class="cls-3" points="296.47 63.83 296.46 66.77 287.95 61.85 287.96 58.92 296.47 63.83"/><polygon class="cls-1" points="309.91 72.89 309.06 73.38 308.21 72.89 309.06 72.4 309.91 72.89"/><polygon class="cls-2" points="309.91 72.89 309.88 82.67 309.04 83.16 309.06 73.38 309.91 72.89"/><polygon class="cls-3" points="309.06 73.38 309.04 83.16 308.19 82.67 308.21 72.89 309.06 73.38"/><polygon class="cls-1" points="315.91 68.09 315.07 68.58 314.21 68.09 315.05 67.6 315.91 68.09"/><polygon class="cls-2" points="315.91 68.09 315.88 77.87 315.04 78.36 315.07 68.58 315.91 68.09"/><polygon class="cls-3" points="315.07 68.58 315.04 78.36 314.18 77.87 314.21 68.09 315.07 68.58"/><polygon class="cls-1" points="317.11 75.29 316.26 75.78 315.41 75.29 316.26 74.8 317.11 75.29"/><polygon class="cls-2" points="317.11 75.29 317.08 85.07 316.24 85.56 316.26 75.78 317.11 75.29"/><polygon class="cls-3" points="316.26 75.78 316.24 85.56 315.39 85.07 315.41 75.29 316.26 75.78"/><polygon class="cls-1" points="323.11 72.89 322.27 73.38 321.41 72.89 322.25 72.4 323.11 72.89"/><polygon class="cls-2" points="323.11 72.89 323.08 82.67 322.24 83.17 322.27 73.38 323.11 72.89"/><polygon class="cls-3" points="322.27 73.38 322.24 83.17 321.38 82.67 321.41 72.89 322.27 73.38"/><polygon class="cls-4" points="324.13 69.71 315.67 74.63 307.16 69.72 315.62 64.8 324.13 69.71"/><polygon class="cls-2" points="324.13 69.71 324.13 72.65 315.66 77.57 315.67 74.63 324.13 69.71"/><polygon class="cls-3" points="315.67 74.63 315.66 77.57 307.15 72.65 307.16 69.72 315.67 74.63"/><polygon class="cls-1" points="194.71 34.49 193.86 34.98 193.01 34.49 193.86 34 194.71 34.49"/><polygon class="cls-2" points="194.71 34.49 194.68 44.27 193.84 44.76 193.86 34.98 194.71 34.49"/><polygon class="cls-3" points="193.86 34.98 193.84 44.76 192.99 44.27 193.01 34.49 193.86 34.98"/><polygon class="cls-2" points="200.71 29.69 200.68 39.47 199.84 39.97 199.87 30.18 200.71 29.69"/><polygon class="cls-3" points="199.87 30.18 199.84 39.97 198.98 39.47 199.01 29.69 199.87 30.18"/><polygon class="cls-1" points="201.91 36.89 201.06 37.38 200.21 36.89 201.06 36.4 201.91 36.89"/><polygon class="cls-2" points="201.91 36.89 201.88 46.67 201.04 47.16 201.06 37.38 201.91 36.89"/><polygon class="cls-3" points="201.06 37.38 201.04 47.16 200.19 46.67 200.21 36.89 201.06 37.38"/><polygon class="cls-1" points="207.91 34.49 207.07 34.98 206.21 34.49 207.05 34 207.91 34.49"/><polygon class="cls-2" points="207.91 34.49 207.88 44.27 207.04 44.77 207.07 34.98 207.91 34.49"/><polygon class="cls-3" points="207.07 34.98 207.04 44.77 206.18 44.27 206.21 34.49 207.07 34.98"/><polygon class="cls-4" points="208.93 31.31 200.47 36.23 191.96 31.32 200.42 26.4 208.93 31.31"/><polygon class="cls-2" points="208.93 31.31 208.93 34.25 200.46 39.17 200.47 36.23 208.93 31.31"/><polygon class="cls-3" points="200.47 36.23 200.46 39.17 191.95 34.25 191.96 31.32 200.47 36.23"/><polygon class="cls-1" points="213.91 44.09 213.06 44.58 212.21 44.09 213.06 43.6 213.91 44.09"/><polygon class="cls-2" points="213.91 44.09 213.88 53.87 213.04 54.36 213.06 44.58 213.91 44.09"/><polygon class="cls-3" points="213.06 44.58 213.04 54.36 212.19 53.87 212.21 44.09 213.06 44.58"/><polygon class="cls-1" points="219.91 39.29 219.07 39.78 218.21 39.29 219.05 38.8 219.91 39.29"/><polygon class="cls-2" points="219.91 39.29 219.88 49.07 219.04 49.56 219.07 39.78 219.91 39.29"/><polygon class="cls-3" points="219.07 39.78 219.04 49.56 218.18 49.07 218.21 39.29 219.07 39.78"/><polygon class="cls-1" points="221.11 46.49 220.26 46.98 219.41 46.49 220.26 46 221.11 46.49"/><polygon class="cls-2" points="221.11 46.49 221.08 56.29 220.24 56.78 220.26 46.98 221.11 46.49"/><polygon class="cls-3" points="220.26 46.98 220.24 56.78 219.39 56.29 219.41 46.49 220.26 46.98"/><polygon class="cls-1" points="227.11 44.09 226.27 44.58 225.41 44.09 226.25 43.6 227.11 44.09"/><polygon class="cls-2" points="227.11 44.09 227.08 53.87 226.24 54.37 226.27 44.58 227.11 44.09"/><polygon class="cls-3" points="226.27 44.58 226.24 54.37 225.38 53.87 225.41 44.09 226.27 44.58"/><polygon class="cls-4" points="228.13 40.91 219.67 45.83 211.16 40.92 219.62 36 228.13 40.91"/><polygon class="cls-2" points="228.13 40.91 228.13 43.85 219.66 48.77 219.67 45.83 228.13 40.91"/><polygon class="cls-3" points="219.67 45.83 219.66 48.77 211.15 43.85 211.16 40.92 219.67 45.83"/><polygon class="cls-1" points="233.11 54.89 232.26 55.38 231.41 54.89 232.26 54.4 233.11 54.89"/><polygon class="cls-2" points="233.11 54.89 233.08 64.67 232.24 65.16 232.26 55.38 233.11 54.89"/><polygon class="cls-3" points="232.26 55.38 232.24 65.16 231.39 64.67 231.41 54.89 232.26 55.38"/><polygon class="cls-1" points="239.11 50.09 238.27 50.58 237.41 50.09 238.25 49.6 239.11 50.09"/><polygon class="cls-2" points="239.11 50.09 239.08 59.87 238.24 60.37 238.27 50.58 239.11 50.09"/><polygon class="cls-3" points="238.27 50.58 238.24 60.37 237.38 59.87 237.41 50.09 238.27 50.58"/><polygon class="cls-1" points="240.31 57.29 239.46 57.78 238.61 57.29 239.46 56.8 240.31 57.29"/><polygon class="cls-2" points="240.31 57.29 240.28 67.07 239.44 67.56 239.46 57.78 240.31 57.29"/><polygon class="cls-3" points="239.46 57.78 239.44 67.56 238.59 67.07 238.61 57.29 239.46 57.78"/><polygon class="cls-1" points="246.31 54.89 245.47 55.38 244.61 54.89 245.45 54.4 246.31 54.89"/><polygon class="cls-2" points="246.31 54.89 246.28 64.67 245.44 65.17 245.47 55.38 246.31 54.89"/><polygon class="cls-3" points="245.47 55.38 245.44 65.17 244.58 64.67 244.61 54.89 245.47 55.38"/><polygon class="cls-4" points="247.33 51.71 238.87 56.63 230.36 51.72 238.82 46.8 247.33 51.71"/><polygon class="cls-2" points="247.33 51.71 247.32 54.65 238.86 59.57 238.87 56.63 247.33 51.71"/><polygon class="cls-3" points="238.87 56.63 238.86 59.57 230.35 54.65 230.36 51.72 238.87 56.63"/><polygon class="cls-1" points="252.31 65.69 251.46 66.18 250.61 65.69 251.46 65.2 252.31 65.69"/><polygon class="cls-2" points="252.31 65.69 252.28 75.47 251.44 75.96 251.46 66.18 252.31 65.69"/><polygon class="cls-3" points="251.46 66.18 251.44 75.96 250.59 75.47 250.61 65.69 251.46 66.18"/><polygon class="cls-2" points="258.31 60.89 258.28 70.67 257.44 71.17 257.47 61.38 258.31 60.89"/><polygon class="cls-3" points="257.47 61.38 257.44 71.17 256.58 70.67 256.61 60.89 257.47 61.38"/><polygon class="cls-1" points="259.51 68.09 258.66 68.58 257.81 68.09 258.66 67.6 259.51 68.09"/><polygon class="cls-2" points="259.51 68.09 259.48 77.87 258.64 78.36 258.66 68.58 259.51 68.09"/><polygon class="cls-3" points="258.66 68.58 258.64 78.36 257.79 77.87 257.81 68.09 258.66 68.58"/><polygon class="cls-1" points="265.51 65.69 264.67 66.18 263.81 65.69 264.65 65.2 265.51 65.69"/><polygon class="cls-2" points="265.51 65.69 265.48 75.47 264.64 75.97 264.67 66.18 265.51 65.69"/><polygon class="cls-3" points="264.67 66.18 264.64 75.97 263.78 75.47 263.81 65.69 264.67 66.18"/><polygon class="cls-4" points="266.53 62.51 258.07 67.43 249.56 62.52 258.02 57.6 266.53 62.51"/><polygon class="cls-2" points="266.53 62.51 266.52 65.45 258.06 70.37 258.07 67.43 266.53 62.51"/><polygon class="cls-3" points="258.07 67.43 258.06 70.37 249.55 65.45 249.56 62.52 258.07 67.43"/><polygon class="cls-1" points="271.51 75.29 270.66 75.78 269.81 75.29 270.66 74.8 271.51 75.29"/><polygon class="cls-2" points="271.51 75.29 271.48 85.07 270.64 85.56 270.66 75.78 271.51 75.29"/><polygon class="cls-3" points="270.66 75.78 270.64 85.56 269.79 85.07 269.81 75.29 270.66 75.78"/><polygon class="cls-1" points="277.51 70.49 276.67 70.98 275.81 70.49 276.65 70 277.51 70.49"/><polygon class="cls-2" points="277.51 70.49 277.48 80.27 276.64 80.77 276.67 70.98 277.51 70.49"/><polygon class="cls-3" points="276.67 70.98 276.64 80.77 275.78 80.27 275.81 70.49 276.67 70.98"/><polygon class="cls-1" points="278.71 77.69 277.86 78.18 277.01 77.69 277.86 77.2 278.71 77.69"/><polygon class="cls-2" points="278.71 77.69 278.68 87.49 277.84 87.98 277.86 78.18 278.71 77.69"/><polygon class="cls-3" points="277.86 78.18 277.84 87.98 276.99 87.49 277.01 77.69 277.86 78.18"/><polygon class="cls-1" points="284.71 75.29 283.87 75.78 283.01 75.29 283.85 74.8 284.71 75.29"/><polygon class="cls-2" points="284.71 75.29 284.68 85.07 283.84 85.56 283.87 75.78 284.71 75.29"/><polygon class="cls-3" points="283.87 75.78 283.84 85.56 282.98 85.07 283.01 75.29 283.87 75.78"/><polygon class="cls-4" points="285.73 72.11 277.27 77.03 268.76 72.12 277.22 67.2 285.73 72.11"/><polygon class="cls-2" points="285.73 72.11 285.73 75.05 277.26 79.97 277.27 77.03 285.73 72.11"/><polygon class="cls-3" points="277.27 77.03 277.26 79.97 268.75 75.05 268.76 72.12 277.27 77.03"/><polygon class="cls-1" points="290.71 86.09 289.86 86.58 289.01 86.09 289.86 85.6 290.71 86.09"/><polygon class="cls-2" points="290.71 86.09 290.68 95.87 289.84 96.36 289.86 86.58 290.71 86.09"/><polygon class="cls-3" points="289.86 86.58 289.84 96.36 288.99 95.87 289.01 86.09 289.86 86.58"/><polygon class="cls-1" points="296.71 81.29 295.87 81.78 295.01 81.29 295.85 80.8 296.71 81.29"/><polygon class="cls-2" points="296.71 81.29 296.68 91.07 295.84 91.56 295.87 81.78 296.71 81.29"/><polygon class="cls-3" points="295.87 81.78 295.84 91.56 294.98 91.07 295.01 81.29 295.87 81.78"/><polygon class="cls-1" points="297.91 88.49 297.06 88.98 296.21 88.49 297.06 88 297.91 88.49"/><polygon class="cls-2" points="297.91 88.49 297.88 98.27 297.04 98.76 297.06 88.98 297.91 88.49"/><polygon class="cls-3" points="297.06 88.98 297.04 98.76 296.19 98.27 296.21 88.49 297.06 88.98"/><polygon class="cls-1" points="303.91 86.09 303.07 86.58 302.21 86.09 303.05 85.6 303.91 86.09"/><polygon class="cls-2" points="303.91 86.09 303.88 95.87 303.04 96.36 303.07 86.58 303.91 86.09"/><polygon class="cls-3" points="303.07 86.58 303.04 96.36 302.18 95.87 302.21 86.09 303.07 86.58"/><polygon class="cls-4" points="304.93 82.91 296.47 87.83 287.96 82.92 296.42 78 304.93 82.91"/><polygon class="cls-2" points="304.93 82.91 304.93 85.85 296.46 90.77 296.47 87.83 304.93 82.91"/><polygon class="cls-3" points="296.47 87.83 296.46 90.77 287.95 85.85 287.96 82.92 296.47 87.83"/><polygon class="cls-1" points="175.51 47.69 174.66 48.18 173.81 47.69 174.66 47.2 175.51 47.69"/><polygon class="cls-2" points="175.51 47.69 175.48 57.47 174.64 57.96 174.66 48.18 175.51 47.69"/><polygon class="cls-3" points="174.66 48.18 174.64 57.96 173.79 57.47 173.81 47.69 174.66 48.18"/><polygon class="cls-2" points="181.51 42.89 181.48 52.67 180.64 53.16 180.67 43.38 181.51 42.89"/><polygon class="cls-3" points="180.67 43.38 180.64 53.16 179.78 52.67 179.81 42.89 180.67 43.38"/><polygon class="cls-1" points="182.71 50.09 181.86 50.58 181.01 50.09 181.86 49.6 182.71 50.09"/><polygon class="cls-2" points="182.71 50.09 182.68 59.87 181.84 60.36 181.86 50.58 182.71 50.09"/><polygon class="cls-3" points="181.86 50.58 181.84 60.36 180.99 59.87 181.01 50.09 181.86 50.58"/><polygon class="cls-1" points="188.71 47.69 187.87 48.18 187.01 47.69 187.85 47.2 188.71 47.69"/><polygon class="cls-2" points="188.71 47.69 188.68 57.47 187.84 57.97 187.87 48.18 188.71 47.69"/><polygon class="cls-3" points="187.87 48.18 187.84 57.97 186.98 57.47 187.01 47.69 187.87 48.18"/><polygon class="cls-4" points="189.73 44.51 181.27 49.43 172.76 44.52 181.22 39.6 189.73 44.51"/><polygon class="cls-2" points="189.73 44.51 189.72 47.45 181.26 52.37 181.27 49.43 189.73 44.51"/><polygon class="cls-3" points="181.27 49.43 181.26 52.37 172.75 47.45 172.76 44.52 181.27 49.43"/><polygon class="cls-1" points="194.71 57.29 193.86 57.78 193.01 57.29 193.86 56.8 194.71 57.29"/><polygon class="cls-2" points="194.71 57.29 194.68 67.07 193.84 67.56 193.86 57.78 194.71 57.29"/><polygon class="cls-3" points="193.86 57.78 193.84 67.56 192.99 67.07 193.01 57.29 193.86 57.78"/><polygon class="cls-1" points="200.71 52.49 199.87 52.98 199.01 52.49 199.85 52 200.71 52.49"/><polygon class="cls-2" points="200.71 52.49 200.68 62.27 199.84 62.77 199.87 52.98 200.71 52.49"/><polygon class="cls-3" points="199.87 52.98 199.84 62.77 198.98 62.27 199.01 52.49 199.87 52.98"/><polygon class="cls-1" points="201.91 59.69 201.06 60.18 200.21 59.69 201.06 59.2 201.91 59.69"/><polygon class="cls-2" points="201.91 59.69 201.88 69.49 201.04 69.98 201.06 60.18 201.91 59.69"/><polygon class="cls-3" points="201.06 60.18 201.04 69.98 200.19 69.49 200.21 59.69 201.06 60.18"/><polygon class="cls-1" points="207.91 57.29 207.07 57.78 206.21 57.29 207.05 56.8 207.91 57.29"/><polygon class="cls-2" points="207.91 57.29 207.88 67.07 207.04 67.56 207.07 57.78 207.91 57.29"/><polygon class="cls-3" points="207.07 57.78 207.04 67.56 206.18 67.07 206.21 57.29 207.07 57.78"/><polygon class="cls-4" points="208.93 54.11 200.47 59.03 191.96 54.12 200.42 49.2 208.93 54.11"/><polygon class="cls-2" points="208.93 54.11 208.93 57.05 200.46 61.97 200.47 59.03 208.93 54.11"/><polygon class="cls-3" points="200.47 59.03 200.46 61.97 191.95 57.05 191.96 54.12 200.47 59.03"/><polygon class="cls-1" points="213.91 68.09 213.06 68.58 212.21 68.09 213.06 67.6 213.91 68.09"/><polygon class="cls-2" points="213.91 68.09 213.88 77.87 213.04 78.36 213.06 68.58 213.91 68.09"/><polygon class="cls-3" points="213.06 68.58 213.04 78.36 212.19 77.87 212.21 68.09 213.06 68.58"/><polygon class="cls-1" points="219.91 63.29 219.07 63.78 218.21 63.29 219.05 62.8 219.91 63.29"/><polygon class="cls-2" points="219.91 63.29 219.88 73.07 219.04 73.56 219.07 63.78 219.91 63.29"/><polygon class="cls-3" points="219.07 63.78 219.04 73.56 218.18 73.07 218.21 63.29 219.07 63.78"/><polygon class="cls-1" points="221.11 70.49 220.26 70.98 219.41 70.49 220.26 70 221.11 70.49"/><polygon class="cls-2" points="221.11 70.49 221.08 80.27 220.24 80.76 220.26 70.98 221.11 70.49"/><polygon class="cls-3" points="220.26 70.98 220.24 80.76 219.39 80.27 219.41 70.49 220.26 70.98"/><polygon class="cls-1" points="227.11 68.09 226.27 68.58 225.41 68.09 226.25 67.6 227.11 68.09"/><polygon class="cls-2" points="227.11 68.09 227.08 77.87 226.24 78.36 226.27 68.58 227.11 68.09"/><polygon class="cls-3" points="226.27 68.58 226.24 78.36 225.38 77.87 225.41 68.09 226.27 68.58"/><polygon class="cls-4" points="228.13 64.91 219.67 69.83 211.16 64.92 219.62 60 228.13 64.91"/><polygon class="cls-2" points="228.13 64.91 228.13 67.85 219.66 72.77 219.67 69.83 228.13 64.91"/><polygon class="cls-3" points="219.67 69.83 219.66 72.77 211.15 67.85 211.16 64.92 219.67 69.83"/><polygon class="cls-1" points="233.11 78.89 232.26 79.38 231.41 78.89 232.26 78.4 233.11 78.89"/><polygon class="cls-2" points="233.11 78.89 233.08 88.67 232.24 89.16 232.26 79.38 233.11 78.89"/><polygon class="cls-3" points="232.26 79.38 232.24 89.16 231.39 88.67 231.41 78.89 232.26 79.38"/><polygon class="cls-2" points="239.11 74.09 239.08 83.87 238.24 84.36 238.27 74.58 239.11 74.09"/><polygon class="cls-3" points="238.27 74.58 238.24 84.36 237.38 83.87 237.41 74.09 238.27 74.58"/><polygon class="cls-1" points="240.31 81.29 239.46 81.78 238.61 81.29 239.46 80.8 240.31 81.29"/><polygon class="cls-2" points="240.31 81.29 240.28 91.07 239.44 91.56 239.46 81.78 240.31 81.29"/><polygon class="cls-3" points="239.46 81.78 239.44 91.56 238.59 91.07 238.61 81.29 239.46 81.78"/><polygon class="cls-1" points="246.31 78.89 245.47 79.38 244.61 78.89 245.45 78.4 246.31 78.89"/><polygon class="cls-2" points="246.31 78.89 246.28 88.67 245.44 89.17 245.47 79.38 246.31 78.89"/><polygon class="cls-3" points="245.47 79.38 245.44 89.17 244.58 88.67 244.61 78.89 245.47 79.38"/><polygon class="cls-4" points="247.33 75.71 238.87 80.63 230.36 75.72 238.82 70.8 247.33 75.71"/><polygon class="cls-2" points="247.33 75.71 247.32 78.65 238.86 83.57 238.87 80.63 247.33 75.71"/><polygon class="cls-3" points="238.87 80.63 238.86 83.57 230.35 78.65 230.36 75.72 238.87 80.63"/><polygon class="cls-1" points="252.31 88.49 251.46 88.98 250.61 88.49 251.46 88 252.31 88.49"/><polygon class="cls-2" points="252.31 88.49 252.28 98.27 251.44 98.76 251.46 88.98 252.31 88.49"/><polygon class="cls-3" points="251.46 88.98 251.44 98.76 250.59 98.27 250.61 88.49 251.46 88.98"/><polygon class="cls-1" points="258.31 83.69 257.47 84.18 256.61 83.69 257.45 83.2 258.31 83.69"/><polygon class="cls-2" points="258.31 83.69 258.28 93.47 257.44 93.97 257.47 84.18 258.31 83.69"/><polygon class="cls-3" points="257.47 84.18 257.44 93.97 256.58 93.47 256.61 83.69 257.47 84.18"/><polygon class="cls-1" points="259.51 90.89 258.66 91.38 257.81 90.89 258.66 90.4 259.51 90.89"/><polygon class="cls-2" points="259.51 90.89 259.48 100.69 258.64 101.18 258.66 91.38 259.51 90.89"/><polygon class="cls-3" points="258.66 91.38 258.64 101.18 257.79 100.69 257.81 90.89 258.66 91.38"/><polygon class="cls-1" points="265.51 88.49 264.67 88.98 263.81 88.49 264.65 88 265.51 88.49"/><polygon class="cls-2" points="265.51 88.49 265.48 98.27 264.64 98.77 264.67 88.98 265.51 88.49"/><polygon class="cls-3" points="264.67 88.98 264.64 98.77 263.78 98.27 263.81 88.49 264.67 88.98"/><polygon class="cls-4" points="266.53 85.31 258.07 90.23 249.56 85.32 258.02 80.4 266.53 85.31"/><polygon class="cls-2" points="266.53 85.31 266.52 88.25 258.06 93.17 258.07 90.23 266.53 85.31"/><polygon class="cls-3" points="258.07 90.23 258.06 93.17 249.55 88.25 249.56 85.32 258.07 90.23"/><polygon class="cls-1" points="271.51 99.29 270.66 99.78 269.81 99.29 270.66 98.8 271.51 99.29"/><polygon class="cls-2" points="271.51 99.29 271.48 109.07 270.64 109.56 270.66 99.78 271.51 99.29"/><polygon class="cls-3" points="270.66 99.78 270.64 109.56 269.79 109.07 269.81 99.29 270.66 99.78"/><polygon class="cls-1" points="277.51 94.49 276.67 94.98 275.81 94.49 276.65 94 277.51 94.49"/><polygon class="cls-2" points="277.51 94.49 277.48 104.27 276.64 104.77 276.67 94.98 277.51 94.49"/><polygon class="cls-3" points="276.67 94.98 276.64 104.77 275.78 104.27 275.81 94.49 276.67 94.98"/><polygon class="cls-1" points="278.71 101.69 277.86 102.18 277.01 101.69 277.86 101.2 278.71 101.69"/><polygon class="cls-2" points="278.71 101.69 278.68 111.47 277.84 111.96 277.86 102.18 278.71 101.69"/><polygon class="cls-3" points="277.86 102.18 277.84 111.96 276.99 111.47 277.01 101.69 277.86 102.18"/><polygon class="cls-1" points="284.71 99.29 283.87 99.78 283.01 99.29 283.85 98.8 284.71 99.29"/><polygon class="cls-2" points="284.71 99.29 284.68 109.07 283.84 109.56 283.87 99.78 284.71 99.29"/><polygon class="cls-3" points="283.87 99.78 283.84 109.56 282.98 109.07 283.01 99.29 283.87 99.78"/><polygon class="cls-4" points="285.73 96.11 277.27 101.03 268.76 96.12 277.22 91.2 285.73 96.11"/><polygon class="cls-2" points="285.73 96.11 285.73 99.05 277.26 103.97 277.27 101.03 285.73 96.11"/><polygon class="cls-3" points="277.27 101.03 277.26 103.97 268.75 99.05 268.76 96.12 277.27 101.03"/><polygon class="cls-1" points="156.31 60.89 155.46 61.38 154.61 60.89 155.46 60.4 156.31 60.89"/><polygon class="cls-2" points="156.31 60.89 156.28 70.67 155.44 71.16 155.46 61.38 156.31 60.89"/><polygon class="cls-3" points="155.46 61.38 155.44 71.16 154.59 70.67 154.61 60.89 155.46 61.38"/><polygon class="cls-2" points="162.31 56.09 162.28 65.87 161.44 66.36 161.47 56.58 162.31 56.09"/><polygon class="cls-3" points="161.47 56.58 161.44 66.36 160.58 65.87 160.61 56.09 161.47 56.58"/><polygon class="cls-1" points="163.51 63.29 162.66 63.78 161.81 63.29 162.66 62.8 163.51 63.29"/><polygon class="cls-2" points="163.51 63.29 163.48 73.07 162.64 73.56 162.66 63.78 163.51 63.29"/><polygon class="cls-3" points="162.66 63.78 162.64 73.56 161.79 73.07 161.81 63.29 162.66 63.78"/><polygon class="cls-1" points="169.51 60.89 168.67 61.38 167.81 60.89 168.65 60.4 169.51 60.89"/><polygon class="cls-2" points="169.51 60.89 169.48 70.67 168.64 71.17 168.67 61.38 169.51 60.89"/><polygon class="cls-3" points="168.67 61.38 168.64 71.17 167.78 70.67 167.81 60.89 168.67 61.38"/><polygon class="cls-4" points="170.53 57.71 162.07 62.63 153.56 57.72 162.02 52.8 170.53 57.71"/><polygon class="cls-2" points="170.53 57.71 170.53 60.65 162.06 65.57 162.07 62.63 170.53 57.71"/><polygon class="cls-3" points="162.07 62.63 162.06 65.57 153.55 60.65 153.56 57.72 162.07 62.63"/><polygon class="cls-1" points="175.51 70.49 174.66 70.98 173.81 70.49 174.66 70 175.51 70.49"/><polygon class="cls-2" points="175.51 70.49 175.48 80.27 174.64 80.76 174.66 70.98 175.51 70.49"/><polygon class="cls-3" points="174.66 70.98 174.64 80.76 173.79 80.27 173.81 70.49 174.66 70.98"/><polygon class="cls-1" points="181.51 65.69 180.67 66.18 179.81 65.69 180.65 65.2 181.51 65.69"/><polygon class="cls-2" points="181.51 65.69 181.48 75.47 180.64 75.97 180.67 66.18 181.51 65.69"/><polygon class="cls-3" points="180.67 66.18 180.64 75.97 179.78 75.47 179.81 65.69 180.67 66.18"/><polygon class="cls-1" points="182.71 72.89 181.86 73.38 181.01 72.89 181.86 72.4 182.71 72.89"/><polygon class="cls-2" points="182.71 72.89 182.68 82.69 181.84 83.18 181.86 73.38 182.71 72.89"/><polygon class="cls-3" points="181.86 73.38 181.84 83.18 180.99 82.69 181.01 72.89 181.86 73.38"/><polygon class="cls-1" points="188.71 70.49 187.87 70.98 187.01 70.49 187.85 70 188.71 70.49"/><polygon class="cls-2" points="188.71 70.49 188.68 80.27 187.84 80.77 187.87 70.98 188.71 70.49"/><polygon class="cls-3" points="187.87 70.98 187.84 80.77 186.98 80.27 187.01 70.49 187.87 70.98"/><polygon class="cls-4" points="189.73 67.31 181.27 72.23 172.76 67.32 181.22 62.4 189.73 67.31"/><polygon class="cls-2" points="189.73 67.31 189.72 70.25 181.26 75.17 181.27 72.23 189.73 67.31"/><polygon class="cls-3" points="181.27 72.23 181.26 75.17 172.75 70.25 172.76 67.32 181.27 72.23"/><polygon class="cls-1" points="194.71 81.29 193.86 81.78 193.01 81.29 193.86 80.8 194.71 81.29"/><polygon class="cls-2" points="194.71 81.29 194.68 91.07 193.84 91.56 193.86 81.78 194.71 81.29"/><polygon class="cls-3" points="193.86 81.78 193.84 91.56 192.99 91.07 193.01 81.29 193.86 81.78"/><polygon class="cls-1" points="200.71 76.49 199.87 76.98 199.01 76.49 199.85 76 200.71 76.49"/><polygon class="cls-2" points="200.71 76.49 200.68 86.27 199.84 86.77 199.87 76.98 200.71 76.49"/><polygon class="cls-3" points="199.87 76.98 199.84 86.77 198.98 86.27 199.01 76.49 199.87 76.98"/><polygon class="cls-1" points="201.91 83.69 201.06 84.18 200.21 83.69 201.06 83.2 201.91 83.69"/><polygon class="cls-2" points="201.91 83.69 201.88 93.47 201.04 93.96 201.06 84.18 201.91 83.69"/><polygon class="cls-3" points="201.06 84.18 201.04 93.96 200.19 93.47 200.21 83.69 201.06 84.18"/><polygon class="cls-1" points="207.91 81.29 207.07 81.78 206.21 81.29 207.05 80.8 207.91 81.29"/><polygon class="cls-2" points="207.91 81.29 207.88 91.07 207.04 91.56 207.07 81.78 207.91 81.29"/><polygon class="cls-3" points="207.07 81.78 207.04 91.56 206.18 91.07 206.21 81.29 207.07 81.78"/><polygon class="cls-4" points="208.93 78.11 200.47 83.03 191.96 78.12 200.42 73.2 208.93 78.11"/><polygon class="cls-2" points="208.93 78.11 208.93 81.05 200.46 85.97 200.47 83.03 208.93 78.11"/><polygon class="cls-3" points="200.47 83.03 200.46 85.97 191.95 81.05 191.96 78.12 200.47 83.03"/><polygon class="cls-1" points="213.91 92.09 213.06 92.58 212.21 92.09 213.06 91.6 213.91 92.09"/><polygon class="cls-2" points="213.91 92.09 213.88 101.87 213.04 102.36 213.06 92.58 213.91 92.09"/><polygon class="cls-3" points="213.06 92.58 213.04 102.36 212.19 101.87 212.21 92.09 213.06 92.58"/><polygon class="cls-2" points="219.91 87.29 219.88 97.07 219.04 97.56 219.07 87.78 219.91 87.29"/><polygon class="cls-3" points="219.07 87.78 219.04 97.56 218.18 97.07 218.21 87.29 219.07 87.78"/><polygon class="cls-1" points="221.11 94.49 220.26 94.98 219.41 94.49 220.26 94 221.11 94.49"/><polygon class="cls-2" points="221.11 94.49 221.08 104.27 220.24 104.76 220.26 94.98 221.11 94.49"/><polygon class="cls-3" points="220.26 94.98 220.24 104.76 219.39 104.27 219.41 94.49 220.26 94.98"/><polygon class="cls-1" points="227.11 92.09 226.27 92.58 225.41 92.09 226.25 91.6 227.11 92.09"/><polygon class="cls-2" points="227.11 92.09 227.08 101.87 226.24 102.36 226.27 92.58 227.11 92.09"/><polygon class="cls-3" points="226.27 92.58 226.24 102.36 225.38 101.87 225.41 92.09 226.27 92.58"/><polygon class="cls-4" points="228.13 88.91 219.67 93.83 211.16 88.92 219.62 84 228.13 88.91"/><polygon class="cls-2" points="228.13 88.91 228.13 91.85 219.66 96.77 219.67 93.83 228.13 88.91"/><polygon class="cls-3" points="219.67 93.83 219.66 96.77 211.15 91.85 211.16 88.92 219.67 93.83"/><polygon class="cls-1" points="233.11 101.69 232.26 102.18 231.41 101.69 232.26 101.2 233.11 101.69"/><polygon class="cls-2" points="233.11 101.69 233.08 111.47 232.24 111.96 232.26 102.18 233.11 101.69"/><polygon class="cls-3" points="232.26 102.18 232.24 111.96 231.39 111.47 231.41 101.69 232.26 102.18"/><polygon class="cls-1" points="239.11 96.89 238.27 97.38 237.41 96.89 238.25 96.4 239.11 96.89"/><polygon class="cls-2" points="239.11 96.89 239.08 106.67 238.24 107.17 238.27 97.38 239.11 96.89"/><polygon class="cls-3" points="238.27 97.38 238.24 107.17 237.38 106.67 237.41 96.89 238.27 97.38"/><polygon class="cls-1" points="240.31 104.09 239.46 104.58 238.61 104.09 239.46 103.6 240.31 104.09"/><polygon class="cls-2" points="240.31 104.09 240.28 113.89 239.44 114.38 239.46 104.58 240.31 104.09"/><polygon class="cls-3" points="239.46 104.58 239.44 114.38 238.59 113.89 238.61 104.09 239.46 104.58"/><polygon class="cls-1" points="246.31 101.69 245.47 102.18 244.61 101.69 245.45 101.2 246.31 101.69"/><polygon class="cls-2" points="246.31 101.69 246.28 111.47 245.44 111.97 245.47 102.18 246.31 101.69"/><polygon class="cls-3" points="245.47 102.18 245.44 111.97 244.58 111.47 244.61 101.69 245.47 102.18"/><polygon class="cls-4" points="247.33 98.51 238.87 103.43 230.36 98.52 238.82 93.6 247.33 98.51"/><polygon class="cls-2" points="247.33 98.51 247.32 101.45 238.86 106.37 238.87 103.43 247.33 98.51"/><polygon class="cls-3" points="238.87 103.43 238.86 106.37 230.35 101.45 230.36 98.52 238.87 103.43"/><polygon class="cls-1" points="252.31 112.49 251.46 112.98 250.61 112.49 251.46 112 252.31 112.49"/><polygon class="cls-2" points="252.31 112.49 252.28 122.27 251.44 122.76 251.46 112.98 252.31 112.49"/><polygon class="cls-3" points="251.46 112.98 251.44 122.76 250.59 122.27 250.61 112.49 251.46 112.98"/><polygon class="cls-1" points="258.31 107.69 257.47 108.18 256.61 107.69 257.45 107.2 258.31 107.69"/><polygon class="cls-2" points="258.31 107.69 258.28 117.47 257.44 117.97 257.47 108.18 258.31 107.69"/><polygon class="cls-3" points="257.47 108.18 257.44 117.97 256.58 117.47 256.61 107.69 257.47 108.18"/><polygon class="cls-1" points="259.51 114.89 258.66 115.38 257.81 114.89 258.66 114.4 259.51 114.89"/><polygon class="cls-2" points="259.51 114.89 259.48 124.67 258.64 125.16 258.66 115.38 259.51 114.89"/><polygon class="cls-3" points="258.66 115.38 258.64 125.16 257.79 124.67 257.81 114.89 258.66 115.38"/><polygon class="cls-1" points="265.51 112.49 264.67 112.98 263.81 112.49 264.65 112 265.51 112.49"/><polygon class="cls-2" points="265.51 112.49 265.48 122.27 264.64 122.77 264.67 112.98 265.51 112.49"/><polygon class="cls-3" points="264.67 112.98 264.64 122.77 263.78 122.27 263.81 112.49 264.67 112.98"/><polygon class="cls-4" points="266.53 109.31 258.07 114.23 249.56 109.32 258.02 104.4 266.53 109.31"/><polygon class="cls-2" points="266.53 109.31 266.52 112.25 258.06 117.17 258.07 114.23 266.53 109.31"/><polygon class="cls-3" points="258.07 114.23 258.06 117.17 249.55 112.25 249.56 109.32 258.07 114.23"/><polygon class="cls-1" points="135.91 75.29 135.06 75.78 134.21 75.29 135.06 74.8 135.91 75.29"/><polygon class="cls-2" points="135.91 75.29 135.88 85.07 135.04 85.56 135.06 75.78 135.91 75.29"/><polygon class="cls-3" points="135.06 75.78 135.04 85.56 134.19 85.07 134.21 75.29 135.06 75.78"/><polygon class="cls-2" points="141.91 70.49 141.88 80.27 141.04 80.77 141.07 70.98 141.91 70.49"/><polygon class="cls-3" points="141.07 70.98 141.04 80.77 140.18 80.27 140.21 70.49 141.07 70.98"/><polygon class="cls-1" points="143.11 77.69 142.26 78.18 141.41 77.69 142.26 77.2 143.11 77.69"/><polygon class="cls-2" points="143.11 77.69 143.08 87.47 142.24 87.96 142.26 78.18 143.11 77.69"/><polygon class="cls-3" points="142.26 78.18 142.24 87.96 141.39 87.47 141.41 77.69 142.26 78.18"/><polygon class="cls-1" points="149.11 75.29 148.27 75.78 147.41 75.29 148.25 74.8 149.11 75.29"/><polygon class="cls-2" points="149.11 75.29 149.08 85.07 148.24 85.56 148.27 75.78 149.11 75.29"/><polygon class="cls-3" points="148.27 75.78 148.24 85.56 147.38 85.07 147.41 75.29 148.27 75.78"/><polygon class="cls-4" points="150.13 72.11 141.67 77.03 133.16 72.12 141.62 67.2 150.13 72.11"/><polygon class="cls-2" points="150.13 72.11 150.13 75.05 141.66 79.97 141.67 77.03 150.13 72.11"/><polygon class="cls-3" points="141.67 77.03 141.66 79.97 133.15 75.05 133.16 72.12 141.67 77.03"/><polygon class="cls-1" points="155.11 84.89 154.26 85.38 153.41 84.89 154.26 84.4 155.11 84.89"/><polygon class="cls-4" points="7.29 41.95 3.9 43.91 0.5 41.95 3.89 39.98 7.29 41.95"/><polygon class="cls-2" points="7.29 41.95 6.79 218.02 3.4 219.99 3.9 43.91 7.29 41.95"/><polygon class="cls-3" points="3.9 43.91 3.4 219.99 0 218.03 0.5 41.95 3.9 43.91"/><polygon class="cls-2" points="155.11 84.89 155.08 94.67 154.24 95.16 154.26 85.38 155.11 84.89"/><polygon class="cls-3" points="154.26 85.38 154.24 95.16 153.39 94.67 153.41 84.89 154.26 85.38"/><polygon class="cls-1" points="161.11 80.09 160.27 80.58 159.41 80.09 160.25 79.6 161.11 80.09"/><polygon class="cls-2" points="161.11 80.09 161.08 89.87 160.24 90.36 160.27 80.58 161.11 80.09"/><polygon class="cls-3" points="160.27 80.58 160.24 90.36 159.38 89.87 159.41 80.09 160.27 80.58"/><polygon class="cls-1" points="162.31 87.29 161.46 87.78 160.61 87.29 161.46 86.8 162.31 87.29"/><polygon class="cls-2" points="162.31 87.29 162.28 97.09 161.44 97.58 161.46 87.78 162.31 87.29"/><polygon class="cls-3" points="161.46 87.78 161.44 97.58 160.59 97.09 160.61 87.29 161.46 87.78"/><polygon class="cls-1" points="168.31 84.89 167.47 85.38 166.61 84.89 167.45 84.4 168.31 84.89"/><polygon class="cls-2" points="168.31 84.89 168.28 94.67 167.44 95.17 167.47 85.38 168.31 84.89"/><polygon class="cls-3" points="167.47 85.38 167.44 95.17 166.58 94.67 166.61 84.89 167.47 85.38"/><polygon class="cls-4" points="169.33 81.71 160.87 86.63 152.36 81.72 160.82 76.8 169.33 81.71"/><polygon class="cls-2" points="169.33 81.71 169.32 84.65 160.86 89.57 160.87 86.63 169.33 81.71"/><polygon class="cls-3" points="160.87 86.63 160.86 89.57 152.35 84.65 152.36 81.72 160.87 86.63"/><polygon class="cls-1" points="174.31 95.69 173.46 96.18 172.61 95.69 173.46 95.2 174.31 95.69"/><polygon class="cls-2" points="174.31 95.69 174.28 105.47 173.44 105.96 173.46 96.18 174.31 95.69"/><polygon class="cls-3" points="173.46 96.18 173.44 105.96 172.59 105.47 172.61 95.69 173.46 96.18"/><polygon class="cls-1" points="180.31 90.89 179.47 91.38 178.61 90.89 179.45 90.4 180.31 90.89"/><polygon class="cls-2" points="180.31 90.89 180.28 100.67 179.44 101.17 179.47 91.38 180.31 90.89"/><polygon class="cls-3" points="179.47 91.38 179.44 101.17 178.58 100.67 178.61 90.89 179.47 91.38"/><polygon class="cls-1" points="181.51 98.09 180.66 98.58 179.81 98.09 180.66 97.6 181.51 98.09"/><polygon class="cls-2" points="181.51 98.09 181.48 107.87 180.64 108.36 180.66 98.58 181.51 98.09"/><polygon class="cls-3" points="180.66 98.58 180.64 108.36 179.79 107.87 179.81 98.09 180.66 98.58"/><polygon class="cls-1" points="187.51 95.69 186.67 96.18 185.81 95.69 186.65 95.2 187.51 95.69"/><polygon class="cls-2" points="187.51 95.69 187.48 105.47 186.64 105.97 186.67 96.18 187.51 95.69"/><polygon class="cls-3" points="186.67 96.18 186.64 105.97 185.78 105.47 185.81 95.69 186.67 96.18"/><polygon class="cls-4" points="188.53 92.51 180.07 97.43 171.56 92.52 180.02 87.6 188.53 92.51"/><polygon class="cls-2" points="188.53 92.51 188.53 95.45 180.06 100.37 180.07 97.43 188.53 92.51"/><polygon class="cls-3" points="180.07 97.43 180.06 100.37 171.55 95.45 171.56 92.52 180.07 97.43"/><polygon class="cls-1" points="193.51 106.49 192.66 106.98 191.81 106.49 192.66 106 193.51 106.49"/><polygon class="cls-2" points="193.51 106.49 193.48 116.27 192.64 116.76 192.66 106.98 193.51 106.49"/><polygon class="cls-3" points="192.66 106.98 192.64 116.76 191.79 116.27 191.81 106.49 192.66 106.98"/><polygon class="cls-2" points="199.51 101.69 199.48 111.47 198.64 111.97 198.67 102.18 199.51 101.69"/><polygon class="cls-3" points="198.67 102.18 198.64 111.97 197.78 111.47 197.81 101.69 198.67 102.18"/><polygon class="cls-1" points="200.71 108.89 199.86 109.38 199.01 108.89 199.86 108.4 200.71 108.89"/><polygon class="cls-2" points="200.71 108.89 200.68 118.67 199.84 119.16 199.86 109.38 200.71 108.89"/><polygon class="cls-3" points="199.86 109.38 199.84 119.16 198.99 118.67 199.01 108.89 199.86 109.38"/><polygon class="cls-1" points="206.71 106.49 205.87 106.98 205.01 106.49 205.85 106 206.71 106.49"/><polygon class="cls-2" points="206.71 106.49 206.68 116.27 205.84 116.77 205.87 106.98 206.71 106.49"/><polygon class="cls-3" points="205.87 106.98 205.84 116.77 204.98 116.27 205.01 106.49 205.87 106.98"/><polygon class="cls-4" points="207.73 103.31 199.27 108.23 190.76 103.32 199.22 98.4 207.73 103.31"/><polygon class="cls-2" points="207.73 103.31 207.72 106.25 199.26 111.17 199.27 108.23 207.73 103.31"/><polygon class="cls-3" points="199.27 108.23 199.26 111.17 190.75 106.25 190.76 103.32 199.27 108.23"/><polygon class="cls-1" points="212.71 116.09 211.86 116.58 211.01 116.09 211.86 115.6 212.71 116.09"/><polygon class="cls-2" points="212.71 116.09 212.68 125.87 211.84 126.36 211.86 116.58 212.71 116.09"/><polygon class="cls-3" points="211.86 116.58 211.84 126.36 210.99 125.87 211.01 116.09 211.86 116.58"/><polygon class="cls-1" points="218.71 111.29 217.87 111.78 217.01 111.29 217.85 110.8 218.71 111.29"/><polygon class="cls-2" points="218.71 111.29 218.68 121.07 217.84 121.56 217.87 111.78 218.71 111.29"/><polygon class="cls-3" points="217.87 111.78 217.84 121.56 216.98 121.07 217.01 111.29 217.87 111.78"/><polygon class="cls-1" points="219.91 118.49 219.06 118.98 218.21 118.49 219.06 118 219.91 118.49"/><polygon class="cls-2" points="219.91 118.49 219.88 128.29 219.04 128.78 219.06 118.98 219.91 118.49"/><polygon class="cls-3" points="219.06 118.98 219.04 128.78 218.19 128.29 218.21 118.49 219.06 118.98"/><polygon class="cls-1" points="225.91 116.09 225.07 116.58 224.21 116.09 225.05 115.6 225.91 116.09"/><polygon class="cls-2" points="225.91 116.09 225.88 125.87 225.04 126.36 225.07 116.58 225.91 116.09"/><polygon class="cls-3" points="225.07 116.58 225.04 126.36 224.18 125.87 224.21 116.09 225.07 116.58"/><polygon class="cls-4" points="226.93 112.91 218.47 117.83 209.96 112.92 218.42 108 226.93 112.91"/><polygon class="cls-2" points="226.93 112.91 226.93 115.85 218.46 120.77 218.47 117.83 226.93 112.91"/><polygon class="cls-3" points="218.47 117.83 218.46 120.77 209.95 115.85 209.96 112.92 218.47 117.83"/><polygon class="cls-1" points="231.91 126.89 231.06 127.38 230.21 126.89 231.06 126.4 231.91 126.89"/><polygon class="cls-2" points="231.91 126.89 231.88 136.67 231.04 137.16 231.06 127.38 231.91 126.89"/><polygon class="cls-3" points="231.06 127.38 231.04 137.16 230.19 136.67 230.21 126.89 231.06 127.38"/><polygon class="cls-1" points="237.91 122.09 237.07 122.58 236.21 122.09 237.05 121.6 237.91 122.09"/><polygon class="cls-2" points="237.91 122.09 237.88 131.87 237.04 132.37 237.07 122.58 237.91 122.09"/><polygon class="cls-3" points="237.07 122.58 237.04 132.37 236.18 131.87 236.21 122.09 237.07 122.58"/><polygon class="cls-1" points="239.11 129.29 238.26 129.78 237.41 129.29 238.26 128.8 239.11 129.29"/><polygon class="cls-2" points="239.11 129.29 239.08 139.07 238.24 139.56 238.26 129.78 239.11 129.29"/><polygon class="cls-3" points="238.26 129.78 238.24 139.56 237.39 139.07 237.41 129.29 238.26 129.78"/><polygon class="cls-1" points="245.11 126.89 244.27 127.38 243.41 126.89 244.25 126.4 245.11 126.89"/><polygon class="cls-2" points="245.11 126.89 245.08 136.67 244.24 137.16 244.27 127.38 245.11 126.89"/><polygon class="cls-3" points="244.27 127.38 244.24 137.16 243.38 136.67 243.41 126.89 244.27 127.38"/><polygon class="cls-4" points="246.13 123.71 237.67 128.63 229.16 123.72 237.62 118.8 246.13 123.71"/><polygon class="cls-2" points="246.13 123.71 246.13 126.65 237.66 131.57 237.67 128.63 246.13 123.71"/><polygon class="cls-3" points="237.67 128.63 237.66 131.57 229.15 126.65 229.16 123.72 237.67 128.63"/><polygon class="cls-4" points="163.29 130.75 159.9 132.71 156.5 130.75 159.89 128.78 163.29 130.75"/><polygon class="cls-2" points="163.29 130.75 162.79 306.82 159.4 308.79 159.9 132.71 163.29 130.75"/><polygon class="cls-3" points="159.9 132.71 159.4 308.79 156 306.83 156.5 130.75 159.9 132.71"/><polygon class="cls-3" points="159.02 137.85 158.86 191.65 3.07 101.71 3.23 47.91 159.02 137.85"/><path class="cls-5" d="M26.49,74.51c7.05,4.07,12.75,13.94,12.73,22s-5.76,11.37-12.82,7.29-12.75-13.94-12.73-22S19.44,70.44,26.49,74.51Z"/><path class="cls-5" d="M60.09,93.72c7,4.07,12.75,13.93,12.72,22s-5.75,11.38-12.8,7.31-12.76-13.94-12.73-22S53,89.64,60.09,93.72Z"/><path class="cls-5" d="M93.69,112.91c7,4.07,12.74,13.94,12.72,22.05s-5.76,11.36-12.8,7.29-12.76-13.94-12.73-22S86.63,108.84,93.69,112.91Z"/><path class="cls-5" d="M129.69,134.51c7.05,4.07,12.74,13.94,12.72,22.05s-5.76,11.36-12.8,7.29-12.76-13.94-12.73-22S122.63,130.44,129.69,134.51Z"/><path class="cls-6" d="M27.29,91.16c-1.5-.75-2.26-1-2.26-.78v.5s.1.12.3.23a14.54,14.54,0,0,1,2.54,1.09,3.62,3.62,0,0,1,.5.32l.38.79v.11a3.38,3.38,0,0,1-1.38,2.42.91.91,0,0,1-1,0,10.18,10.18,0,0,1-1.51-2v-.17l.24.14c.72.49,1.14.78,1.27.85l.16.09c.45-.12.81-.62,1.08-1.52,0-.12,0-.19-.1-.23l-.09,0a6.71,6.71,0,0,0-3.44-1l-.49-.28V91.3a2.31,2.31,0,0,0,.7-1.35,1.65,1.65,0,0,0-.3-.23l-2.55-1L21,87.94c.43,0,2.86.92,7.3,2.81a8.9,8.9,0,0,1,1,.5c1.18.68,1.77,1.38,1.76,2.1l-.39-.23c-.83-.56-1.47-1-1.93-1.24a4.41,4.41,0,0,0-.42-.22Z"/><path class="cls-6" d="M22.94,86.52l-.09-2.42a14.81,14.81,0,0,0-.2-1.81l2.56-.44a2.46,2.46,0,0,0,.49.4v.4c0,.3-.4.37-1.18.21l-.22,0,4,2a2.39,2.39,0,0,1,.78,1.36q-.21,4.56-1.23,4l-.06,0A12.11,12.11,0,0,1,25,88.91l-1.18-.56-.44-.59A2,2,0,0,1,22.94,86.52Zm1.14-2.9a1,1,0,0,0-.55-.09l.29,4v.06c1.17.67,1.76.94,1.76.79V87.2a4.2,4.2,0,0,1-1.28.33l-.34-.2v-.22a6.59,6.59,0,0,0,.93-.7v-.12l-.64-.36a.61.61,0,0,1-.29-.57v-.22c.39.19.59.19.59,0-.09-.88-.26-1.39-.48-1.52m3.62,1.76a5.31,5.31,0,0,1-.59.78l.1,0a.42.42,0,0,1,.24.38V87a4.49,4.49,0,0,0-.79-.29l.06.14a4.61,4.61,0,0,1,1,1.63v.35a.28.28,0,0,1-.27,0l-.13-.09-1-1.39s0,.09.05.36l.09,1.12,1.32.54a12.19,12.19,0,0,0,.46-3.68l-.54-.31m-2.35-1.14L25,84.05a4.31,4.31,0,0,0,.34,1.37l.14.09c.06,0,.1,0,.1-.11l-.1-.62a.46.46,0,0,0-.14-.54m.93.59v.23a3.86,3.86,0,0,1,0,.54.75.75,0,0,0,.39-.68l-.24-.14-.2,0"/><path class="cls-6" d="M61.11,111.89c-.15-.09-.3-.43-.46-1l.11-3.09.5.29.28,1.12c-.1,1.48-.15,2.43-.15,2.84Z"/><path class="cls-6" d="M63.51,106.39s0,.58-.15,1.61q.12,8,.12,9c-.13.38-.34.49-.62.32a15.74,15.74,0,0,1-2-3.09v-.28a20.61,20.61,0,0,1,1.66,1.75l0,0,0-9.85.11-.72.58.33A4.37,4.37,0,0,1,63.51,106.39Z"/><path class="cls-6" d="M58.84,110c.45.29.68.58.68.84V111a3.52,3.52,0,0,0-.59,1.52v.56l-.24.08L56.75,112a.88.88,0,0,1-.82-.13,11,11,0,0,1-.42-3.16,4.23,4.23,0,0,1-2,1.75l-.24-.14v-.45c1.34-.95,2-3,2.08-6.24v-1a11.88,11.88,0,0,1,3.14,1,2.43,2.43,0,0,1,.68,1.06l-1.33,1.54-.15-.08v.11a5.45,5.45,0,0,1,.2,1.13l.59.17a1.14,1.14,0,0,0,.39.16c.39.39.58.65.58.8v.39c-1.18-.57-1.77-.55-1.77,0v.28l.1.11ZM57,111.13q1.52.77,1.38-.06v-.22c0-.08-.07-.15-.2-.23-1.24-.56-1.86-.76-1.87-.56v.45c0,.17.09.27.16.31l.53.31m-.74-7.3v.78a.36.36,0,0,0,.15.25,1.21,1.21,0,0,0,1.62-.25v0l-.05-.14c-1.15-.59-1.71-.79-1.71-.59m-.71,4.87c.9.42,1.36.27,1.36-.43-.56-.24-1-.16-1.23.23l-.13.2m.48-2.36v.4c0,.15,0,.24.1.28l.1,0a1.22,1.22,0,0,0,.78.12,1.75,1.75,0,0,0,0-1.09L56.7,106c-.46-.27-.69-.15-.7.38"/><path class="cls-6" d="M94.42,132,93,131.17a1.3,1.3,0,0,1-.69-.9v-.45l.84.31.49.29a1.77,1.77,0,0,1,1,1.21v.11C94.66,132,94.58,132.08,94.42,132Z"/><path class="cls-6" d="M97.9,130.74a2.67,2.67,0,0,1,.78,1.2v.48l-1.27-.95-1.47-.85v.5a18.31,18.31,0,0,0,.19,2.6c0,1.54-.26,2.21-.65,2A12.92,12.92,0,0,1,93,132.46l.45.26,1.6,1.55c.14.08.21-.54.21-1.85a10.22,10.22,0,0,0-.34-2.11c-2.12-.82-3.33-1.31-3.62-1.48s-.59-.56-.59-.79.39-.22.78,0l.4.23c2.05,1,3.08,1.31,3.08.94s.19-.43.54-.49v-1.06c0-.1,0-.14,0-.15-.67-.05-1,0-1,0v1q-.24-.13-.24,0a1.67,1.67,0,0,1-.71-1.14l-.14-.08c-.19-.11-.31.26-.34,1.1l-.26-.15a3.8,3.8,0,0,1-.62-1.09l.1-.56v-3.09c0-.27.42-.25,1.26,0v-.22l-1-.51-.15-.48V122c.85.28,1.28.32,1.28.13V121c0-.23.08-.29.24-.2a1.53,1.53,0,0,1,.44,1.33v.34a2.09,2.09,0,0,1,.93,1,1,1,0,0,0-.15.37l-.68-.4c0,.17,0,.23,0,.21l0,.2.6.34a1.1,1.1,0,0,0,.49.18,2,2,0,0,1,.64,1.28c.08,2.55.13,4,.13,4.29l.1.12,1.37.79Zm-2.39-4v-.34l-.06-.08q-.93-.36-.93-.15v.11l0,.15.49.28c.27.16.42.16.45,0m-.89-1.63c.6.3.89.33.89.11l-.05-.08-.09,0a2.93,2.93,0,0,0-.79-.29v.17l.05.14m-.87-.34v-.06c0-.07-.06-.14-.19-.22l-.35-.2c-.07,0-.11,0-.15.14v.17l.1.17c.29.17.49.17.59,0m0,1.63v-.22c0-.08,0-.15-.16-.21l-.33-.19-.09.06V126c0,.13,0,.2.08.22l.33.18c.12.07.17,0,.17-.06"/><path class="cls-6" d="M91.51,124.28v.17l-1.34-.09c0,.39-.06,1.78-.06,4.18v2.71l-.44-.25a1.7,1.7,0,0,1-.53-1.05l0-.36q0-1.12,0-1.71c0-.39,0-.61,0-.69v-1.41l.06-1.71a.27.27,0,0,0-.09-.16.2.2,0,0,0-.11,0l-.58-.17-.49-.51V123l1.42.09s0,0,0-.2v-2.31l-.14-.31.28-.11.32.18a6.31,6.31,0,0,1,.33,1.54v1.35c.38.21.57.25.57.11C91.29,123.78,91.51,124.09,91.51,124.28Z"/><path class="cls-6" d="M96.54,123.69c-1.05-1.09-1.57-1.77-1.56-2v-.57c1.17,1.13,1.76,1.84,1.76,2.15v.38C96.6,123.56,96.54,123.58,96.54,123.69Z"/><path class="cls-6" d="M125.7,145.21l-.44-.26-.14-.93v-1.79l.25.14c.46.26.69,1.13.73,2.62C126.1,145.28,126,145.36,125.7,145.21Z"/><path class="cls-6" d="M127.17,146.05a.64.64,0,0,1-.29-.61l-.14-3.29.44.25a10.48,10.48,0,0,1,.62,3.16,9.79,9.79,0,0,0,1-2c-.07-.87-.1-1.38-.1-1.53l.33.19c.34.2.52.85.55,2l.34.25.29.17,1.52.71v.44q0,.41-1.32,0l-.88-.45c-.13-.08-.49.16-1.08.68l-.79.33Z"/><path class="cls-6" d="M129.33,145.61l.39.23A2.26,2.26,0,0,1,131,147.3c0,.27-.1.34-.29.23a2.76,2.76,0,0,1-1.37-1.69Z"/><path class="cls-6" d="M133.76,155.61c.15,1.45-.15,1.95-.91,1.51l-.12-.08a10.34,10.34,0,0,1-1.26-.62c-.31-.18-.64-.39-1-.62a5,5,0,0,1-2.64-3.11,15,15,0,0,0-.24-1.54c-1.38,1.12-2.35,1.52-2.9,1.2l-.14-.54c1.23-.41,1.85-.74,1.85-1a2.75,2.75,0,0,0-.43-1v-3.43a1.22,1.22,0,0,0,.1-.45c2.49,1,3.92,1.64,4.31,1.87a1.68,1.68,0,0,1,.39.85c-.14,2.4-.4,3.48-.77,3.26l-.15-.08a.71.71,0,0,1-.36-.66,4.54,4.54,0,0,0,.3-1.52v-1.35l-.88-.5-.4-.18a3.21,3.21,0,0,1,.24,1.55,10.68,10.68,0,0,0-.25,1.21l.05,1.72a4.08,4.08,0,0,0,1.8,2.73c1.7.95,2.53,1,2.5.15v-1.8A3.89,3.89,0,0,1,133.76,155.61Zm-6.84-5.48c.75-.28,1.12-1.09,1.13-2.44,0-.12-.07-.2-.2-.28l-1.08-.46V150l.16.09"/></g></g></svg>